<?xml version="1.0" encoding="utf-8"?>
<COLLADA xmlns="http://www.collada.org/2005/11/COLLADASchema" version="1.4.1">
  <asset>
    <contributor>
      <authoring_tool>Fusion URDF/XACRO Exporter</authoring_tool>
    </contributor>
    <created>2026-07-28T12:55:14Z</created>
    <modified>2026-07-28T12:55:14Z</modified>
    <unit name="meter" meter="1.0"/>
    <up_axis>Z_UP</up_axis>
  </asset>
  <library_effects>
    <effect id="ABS__White_-effect">
      <profile_COMMON>
        <technique sid="common">
          <lambert>
            <emission><color>0 0 0 1</color></emission>
            <ambient><color>0.0000 0.0000 0.0000 1</color></ambient>
            <diffuse><color>0.9647 0.9647 0.9529 1</color></diffuse>
            <reflective><color>0 0 0 1</color></reflective>
            <transparent opaque="A_ONE"><color>1 1 1 1</color></transparent>
            <transparency><float>1</float></transparency>
          </lambert>
        </technique>
      </profile_COMMON>
    </effect>
  </library_effects>
  <library_materials>
    <material id="ABS__White_" name="ABS_(White)">
      <instance_effect url="#ABS__White_-effect"/>
    </material>
  </library_materials>
  <library_geometries>
    <geometry id="base_link-mesh" name="base_link">
      <mesh>
        <source id="base_link-mesh-positions">
          <float_array id="base_link-mesh-positions-array" count="2022">0.809021 0.612882 -0.022003 0.808670 0.609657 -0.022003 0.807635 0.606584 -0.022003 0.805962 0.603804 -0.022003 0.803732 0.601450 -0.022003 0.801047 0.599629 -0.022003 0.798034 0.598429 -0.022003 0.794833 0.597904 -0.022003 0.791594 0.598080 -0.022003 0.788469 0.598947 -0.022003 0.785603 0.600467 -0.022003 0.783131 0.602567 -0.022003 0.781168 0.605149 -0.022003 0.779806 0.608092 -0.022003 0.779109 0.611260 -0.022003 0.779109 0.614504 -0.022003 0.779806 0.617672 -0.022003 0.781168 0.620615 -0.022003 0.783131 0.623197 -0.022003 0.785603 0.625297 -0.022003 0.788469 0.626817 -0.022003 0.791594 0.627684 -0.022003 0.794833 0.627860 -0.022003 0.798034 0.627335 -0.022003 0.801047 0.626135 -0.022003 0.803732 0.624314 -0.022003 0.805962 0.621960 -0.022003 0.807635 0.619180 -0.022003 0.808670 0.616107 -0.022003 0.809021 0.612882 -0.042003 0.808670 0.616107 -0.042003 0.807635 0.619180 -0.042003 0.805962 0.621960 -0.042003 0.803732 0.624314 -0.042003 0.801047 0.626135 -0.042003 0.798034 0.627335 -0.042003 0.794833 0.627860 -0.042003 0.791594 0.627684 -0.042003 0.788469 0.626817 -0.042003 0.785603 0.625297 -0.042003 0.783131 0.623197 -0.042003 0.781168 0.620615 -0.042003 0.779806 0.617672 -0.042003 0.779109 0.614504 -0.042003 0.779109 0.611260 -0.042003 0.779806 0.608092 -0.042003 0.781168 0.605149 -0.042003 0.783131 0.602567 -0.042003 0.785603 0.600467 -0.042003 0.788469 0.598947 -0.042003 0.791594 0.598080 -0.042003 0.794833 0.597904 -0.042003 0.798034 0.598429 -0.042003 0.801047 0.599629 -0.042003 0.803732 0.601450 -0.042003 0.805962 0.603804 -0.042003 0.807635 0.606584 -0.042003 0.808670 0.609657 -0.042003 0.895021 0.612882 -0.042003 0.894667 0.604431 -0.042003 0.893607 0.596038 -0.042003 0.891848 0.587764 -0.042003 0.889403 0.579666 -0.042003 0.886289 0.571802 -0.042003 0.882528 0.564225 -0.042003 0.878146 0.556989 -0.042003 0.873174 0.550146 -0.042003 0.867647 0.543743 -0.042003 0.861603 0.537824 -0.042003 0.855086 0.532432 -0.042003 0.848140 0.527605 -0.042003 0.840814 0.523375 -0.042003 0.833160 0.519774 -0.042003 0.825232 0.516825 -0.042003 0.817084 0.514551 -0.042003 0.808775 0.512966 -0.042003 0.800363 0.512081 -0.042003 0.791906 0.511904 -0.042003 0.783464 0.512435 -0.042003 0.775096 0.513671 -0.042003 0.766860 0.515603 -0.042003 0.758815 0.518217 -0.042003 0.751017 0.521494 -0.042003 0.743521 0.525413 -0.042003 0.736379 0.529946 -0.042003 0.729641 0.535060 -0.042003 0.723355 0.540720 -0.042003 0.717565 0.546887 -0.042003 0.712310 0.553516 -0.042003 0.707629 0.560561 -0.042003 0.703554 0.567974 -0.042003 0.700114 0.575701 -0.042003 0.697332 0.583690 -0.042003 0.695228 0.591883 -0.042003 0.693817 0.600223 -0.042003 0.693110 0.608653 -0.042003 0.693110 0.617111 -0.042003 0.693817 0.625541 -0.042003 0.695228 0.633881 -0.042003 0.697332 0.642074 -0.042003 0.700114 0.650063 -0.042003 0.703554 0.657790 -0.042003 0.707629 0.665203 -0.042003 0.712310 0.672248 -0.042003 0.717565 0.678877 -0.042003 0.723355 0.685044 -0.042003 0.729641 0.690704 -0.042003 0.736379 0.695818 -0.042003 0.743521 0.700351 -0.042003 0.751017 0.704270 -0.042003 0.758815 0.707547 -0.042003 0.766860 0.710161 -0.042003 0.775096 0.712093 -0.042003 0.783464 0.713329 -0.042003 0.791906 0.713860 -0.042003 0.800363 0.713683 -0.042003 0.808775 0.712799 -0.042003 0.817084 0.711213 -0.042003 0.825232 0.708939 -0.042003 0.833160 0.705990 -0.042003 0.840814 0.702389 -0.042003 0.848140 0.698159 -0.042003 0.855086 0.693332 -0.042003 0.861603 0.687940 -0.042003 0.867647 0.682021 -0.042003 0.873174 0.675618 -0.042003 0.878146 0.668775 -0.042003 0.882528 0.661539 -0.042003 0.886289 0.653962 -0.042003 0.889403 0.646098 -0.042003 0.891848 0.638000 -0.042003 0.893607 0.629726 -0.042003 0.894667 0.621333 -0.042003 0.904021 0.612882 -0.051003 0.903673 0.621622 -0.051003 0.902632 0.630306 -0.051003 0.900905 0.638880 -0.051003 0.898501 0.647290 -0.051003 0.895437 0.655482 -0.051003 0.891732 0.663405 -0.051003 0.887409 0.671008 -0.051003 0.882496 0.678244 -0.051003 0.877023 0.685067 -0.051003 0.871026 0.691433 -0.051003 0.864541 0.697303 -0.051003 0.857611 0.702639 -0.051003 0.850279 0.707407 -0.051003 0.842591 0.711578 -0.051003 0.834596 0.715125 -0.051003 0.826345 0.718026 -0.051003 0.817889 0.720261 -0.051003 0.809282 0.721818 -0.051003 0.800579 0.722686 -0.051003 0.791834 0.722860 -0.051003 0.783103 0.722339 -0.051003 0.774441 0.721125 -0.051003 0.765903 0.719228 -0.051003 0.757543 0.716657 -0.051003 0.749413 0.713431 -0.051003 0.741566 0.709569 -0.051003 0.734050 0.705096 -0.051003 0.726913 0.700040 -0.051003 0.720200 0.694433 -0.051003 0.713954 0.688310 -0.051003 0.708215 0.681710 -0.051003 0.703018 0.674675 -0.051003 0.698396 0.667249 -0.051003 0.694379 0.659480 -0.051003 0.690991 0.651416 -0.051003 0.688255 0.643109 -0.051003 0.686188 0.634610 -0.051003 0.684803 0.625974 -0.051003 0.684108 0.617255 -0.051003 0.684108 0.608509 -0.051003 0.684803 0.599790 -0.051003 0.686188 0.591154 -0.051003 0.688255 0.582655 -0.051003 0.690991 0.574348 -0.051003 0.694379 0.566284 -0.051003 0.698396 0.558515 -0.051003 0.703018 0.551089 -0.051003 0.708215 0.544054 -0.051003 0.713954 0.537454 -0.051003 0.720200 0.531332 -0.051003 0.726913 0.525724 -0.051003 0.734050 0.520668 -0.051003 0.741566 0.516195 -0.051003 0.749413 0.512333 -0.051003 0.757543 0.509107 -0.051003 0.765903 0.506536 -0.051003 0.774441 0.504639 -0.051003 0.783103 0.503425 -0.051003 0.791834 0.502904 -0.051003 0.800579 0.503078 -0.051003 0.809282 0.503946 -0.051003 0.817889 0.505503 -0.051003 0.826345 0.507738 -0.051003 0.834596 0.510639 -0.051003 0.842591 0.514186 -0.051003 0.850279 0.518357 -0.051003 0.857611 0.523125 -0.051003 0.864541 0.528461 -0.051003 0.871026 0.534331 -0.051003 0.877023 0.540697 -0.051003 0.882496 0.547520 -0.051003 0.887409 0.554756 -0.051003 0.891732 0.562359 -0.051003 0.895437 0.570282 -0.051003 0.898501 0.578474 -0.051003 0.900905 0.586884 -0.051003 0.902632 0.595458 -0.051003 0.903673 0.604142 -0.051003 0.719021 0.482978 -0.061003 0.724021 0.491638 -0.051003 0.729021 0.500299 -0.051003 0.729021 0.500299 -0.111003 0.719021 0.482978 -0.111003 0.672777 0.542882 -0.051003 0.664117 0.537882 -0.061003 0.664117 0.537882 -0.111003 0.681438 0.547882 -0.111003 0.681438 0.547882 -0.051003 0.721797 0.504791 -0.051003 0.714882 0.509746 -0.051003 0.708306 0.515143 -0.051003 0.702097 0.520958 -0.051003 0.696282 0.527167 -0.051003 0.690885 0.533743 -0.051003 0.685930 0.540658 -0.051003 0.685930 0.540658 -0.111003 0.690885 0.533743 -0.111003 0.696282 0.527167 -0.111003 0.702097 0.520958 -0.111003 0.708306 0.515143 -0.111003 0.714882 0.509746 -0.111003 0.721797 0.504791 -0.111003 0.669301 0.529546 -0.111003 0.675018 0.521568 -0.111003 0.681245 0.513980 -0.111003 0.687955 0.506816 -0.111003 0.695119 0.500106 -0.111003 0.702707 0.493879 -0.111003 0.710686 0.488162 -0.111003 0.727985 0.478200 -0.061003 0.737251 0.474040 -0.061003 0.746778 0.470516 -0.061003 0.756521 0.467645 -0.061003 0.759507 0.466907 -0.061003 0.762507 0.466230 -0.061003 0.765521 0.465614 -0.061003 0.774957 0.464098 -0.061003 0.784469 0.463186 -0.061003 0.794021 0.462882 -0.061003 0.803573 0.463186 -0.061003 0.813086 0.464098 -0.061003 0.822521 0.465614 -0.061003 0.825535 0.466230 -0.061003 0.828535 0.466907 -0.061003 0.831521 0.467645 -0.061003 0.841102 0.470462 -0.061003 0.850474 0.473911 -0.061003 0.859597 0.477975 -0.061003 0.868428 0.482638 -0.061003 0.876930 0.487877 -0.061003 0.885064 0.493671 -0.061003 0.892794 0.499993 -0.061003 0.900087 0.506816 -0.061003 0.906910 0.514109 -0.061003 0.913232 0.521839 -0.061003 0.919026 0.529973 -0.061003 0.924265 0.538475 -0.061003 0.928928 0.547307 -0.061003 0.932992 0.556429 -0.061003 0.936441 0.565801 -0.061003 0.939258 0.575382 -0.061003 0.939996 0.578368 -0.061003 0.940673 0.581368 -0.061003 0.941289 0.584382 -0.061003 0.942805 0.593817 -0.061003 0.943717 0.603330 -0.061003 0.944021 0.612882 -0.061003 0.943717 0.622434 -0.061003 0.942805 0.631947 -0.061003 0.941289 0.641382 -0.061003 0.940673 0.644396 -0.061003 0.939996 0.647396 -0.061003 0.939258 0.650382 -0.061003 0.936441 0.659963 -0.061003 0.932992 0.669335 -0.061003 0.928928 0.678457 -0.061003 0.924265 0.687289 -0.061003 0.919026 0.695791 -0.061003 0.913232 0.703925 -0.061003 0.906910 0.711655 -0.061003 0.900087 0.718948 -0.061003 0.892794 0.725771 -0.061003 0.885064 0.732093 -0.061003 0.876930 0.737887 -0.061003 0.868428 0.743126 -0.061003 0.859597 0.747789 -0.061003 0.850474 0.751853 -0.061003 0.841102 0.755302 -0.061003 0.831521 0.758119 -0.061003 0.828535 0.758857 -0.061003 0.825535 0.759534 -0.061003 0.822521 0.760150 -0.061003 0.813086 0.761666 -0.061003 0.803573 0.762578 -0.061003 0.794021 0.762882 -0.061003 0.784469 0.762578 -0.061003 0.774957 0.761666 -0.061003 0.765521 0.760150 -0.061003 0.762507 0.759534 -0.061003 0.759507 0.758857 -0.061003 0.756521 0.758119 -0.061003 0.746940 0.755302 -0.061003 0.737568 0.751853 -0.061003 0.728446 0.747789 -0.061003 0.719614 0.743126 -0.061003 0.711112 0.737887 -0.061003 0.702978 0.732093 -0.061003 0.695248 0.725771 -0.061003 0.687955 0.718948 -0.061003 0.681132 0.711655 -0.061003 0.674810 0.703925 -0.061003 0.669016 0.695791 -0.061003 0.663777 0.687289 -0.061003 0.659114 0.678457 -0.061003 0.655050 0.669335 -0.061003 0.651601 0.659963 -0.061003 0.648784 0.650382 -0.061003 0.648046 0.647396 -0.061003 0.647369 0.644396 -0.061003 0.646753 0.641382 -0.061003 0.645237 0.631947 -0.061003 0.644325 0.622434 -0.061003 0.644021 0.612882 -0.061003 0.644325 0.603330 -0.061003 0.645237 0.593817 -0.061003 0.646753 0.584382 -0.061003 0.647369 0.581368 -0.061003 0.648046 0.578368 -0.061003 0.648784 0.575382 -0.061003 0.651655 0.565639 -0.061003 0.655179 0.556112 -0.061003 0.659339 0.546846 -0.061003 0.668111 0.551673 -0.051003 0.664080 0.560773 -0.051003 0.660706 0.570136 -0.051003 0.658006 0.579716 -0.051003 0.655994 0.589463 -0.051003 0.654679 0.599328 -0.051003 0.654068 0.609262 -0.051003 0.654164 0.619215 -0.051003 0.654968 0.629135 -0.051003 0.656474 0.638973 -0.051003 0.658675 0.648679 -0.051003 0.661560 0.658205 -0.051003 0.665115 0.667501 -0.051003 0.669321 0.676521 -0.051003 0.674158 0.685220 -0.051003 0.679600 0.693553 -0.051003 0.685620 0.701478 -0.051003 0.692189 0.708956 -0.051003 0.699272 0.715948 -0.051003 0.706834 0.722419 -0.051003 0.714836 0.728337 -0.051003 0.723239 0.733671 -0.051003 0.731999 0.738394 -0.051003 0.741073 0.742483 -0.051003 0.750415 0.745918 -0.051003 0.759976 0.748680 -0.051003 0.769710 0.750755 -0.051003 0.779567 0.752134 -0.051003 0.789497 0.752809 -0.051003 0.799450 0.752777 -0.051003 0.809375 0.752038 -0.051003 0.819223 0.750595 -0.051003 0.828943 0.748457 -0.051003 0.838487 0.745633 -0.051003 0.847806 0.742138 -0.051003 0.856853 0.737991 -0.051003 0.865583 0.733210 -0.051003 0.873951 0.727822 -0.051003 0.881915 0.721853 -0.051003 0.889435 0.715333 -0.051003 0.896472 0.708296 -0.051003 0.902992 0.700776 -0.051003 0.908961 0.692812 -0.051003 0.914350 0.684444 -0.051003 0.919130 0.675714 -0.051003 0.923277 0.666667 -0.051003 0.926772 0.657348 -0.051003 0.929596 0.647804 -0.051003 0.931734 0.638083 -0.051003 0.933177 0.628236 -0.051003 0.933916 0.618311 -0.051003 0.933948 0.608358 -0.051003 0.933273 0.598428 -0.051003 0.931894 0.588571 -0.051003 0.929819 0.578837 -0.051003 0.927057 0.569275 -0.051003 0.923622 0.559934 -0.051003 0.919533 0.550860 -0.051003 0.914810 0.542100 -0.051003 0.909476 0.533697 -0.051003 0.903558 0.525695 -0.051003 0.897087 0.518133 -0.051003 0.890095 0.511050 -0.051003 0.882617 0.504481 -0.051003 0.874692 0.498461 -0.051003 0.866359 0.493019 -0.051003 0.857660 0.488182 -0.051003 0.848640 0.483976 -0.051003 0.839344 0.480421 -0.051003 0.829818 0.477536 -0.051003 0.820112 0.475335 -0.051003 0.810274 0.473829 -0.051003 0.800354 0.473025 -0.051003 0.790401 0.472929 -0.051003 0.780468 0.473540 -0.051003 0.770602 0.474855 -0.051003 0.760855 0.476867 -0.051003 0.751275 0.479567 -0.051003 0.741912 0.482941 -0.051003 0.732812 0.486972 -0.051003 0.648784 0.575382 -0.126003 0.651601 0.565801 -0.126003 0.655050 0.556429 -0.126003 0.659114 0.547307 -0.126003 0.663777 0.538475 -0.126003 0.669016 0.529973 -0.126003 0.674810 0.521839 -0.126003 0.681132 0.514109 -0.126003 0.687955 0.506816 -0.126003 0.695248 0.499993 -0.126003 0.702978 0.493671 -0.126003 0.711112 0.487877 -0.126003 0.719614 0.482638 -0.126003 0.728446 0.477975 -0.126003 0.737568 0.473911 -0.126003 0.746940 0.470462 -0.126003 0.756521 0.467645 -0.126003 0.814097 0.795119 -0.116003 0.817561 0.801119 -0.116003 0.817561 0.801119 -0.112503 0.814097 0.795119 -0.112503 0.814097 0.807119 -0.116003 0.814097 0.807119 -0.112503 0.807169 0.807119 -0.116003 0.807169 0.807119 -0.112503 0.803705 0.801119 -0.116003 0.803705 0.801119 -0.112503 0.807169 0.795119 -0.116003 0.807169 0.795119 -0.112503 0.831521 0.783439 -0.061003 0.822521 0.783439 -0.061003 0.831521 0.801119 -0.116003 0.822521 0.801119 -0.116003 0.822521 0.760150 -0.116003 0.813086 0.761666 -0.116003 0.803573 0.762578 -0.116003 0.794021 0.762882 -0.116003 0.784469 0.762578 -0.116003 0.774957 0.761666 -0.116003 0.765521 0.760150 -0.116003 0.824521 0.808119 -0.116003 0.763521 0.808119 -0.116003 0.756521 0.801119 -0.116003 0.765521 0.801119 -0.116003 0.773945 0.795119 -0.116003 0.770481 0.801119 -0.116003 0.773945 0.807119 -0.116003 0.780873 0.807119 -0.116003 0.784337 0.801119 -0.116003 0.780873 0.795119 -0.116003 0.773945 0.795119 -0.112503 0.770481 0.801119 -0.112503 0.773945 0.807119 -0.112503 0.780873 0.807119 -0.112503 0.784337 0.801119 -0.112503 0.780873 0.795119 -0.112503 0.765521 0.783439 -0.061003 0.756521 0.783439 -0.061003 0.756521 0.758119 -0.126003 0.746940 0.755302 -0.126003 0.737568 0.751853 -0.126003 0.728446 0.747789 -0.126003 0.719614 0.743126 -0.126003 0.711112 0.737887 -0.126003 0.702978 0.732093 -0.126003 0.695248 0.725771 -0.126003 0.687955 0.718948 -0.126003 0.681132 0.711655 -0.126003 0.674810 0.703925 -0.126003 0.669016 0.695791 -0.126003 0.663777 0.687289 -0.126003 0.659114 0.678457 -0.126003 0.655050 0.669335 -0.126003 0.651601 0.659963 -0.126003 0.648784 0.650382 -0.126003 0.831521 0.801119 -0.126003 0.824521 0.808119 -0.126003 0.831521 0.758119 -0.126003 0.763521 0.808119 -0.126003 0.756521 0.801119 -0.126003 0.976258 0.592806 -0.116003 0.982258 0.589342 -0.116003 0.982258 0.589342 -0.112503 0.976258 0.592806 -0.112503 0.988258 0.592806 -0.116003 0.988258 0.592806 -0.112503 0.988258 0.599734 -0.116003 0.988258 0.599734 -0.112503 0.982258 0.603198 -0.116003 0.982258 0.603198 -0.112503 0.976258 0.599734 -0.116003 0.976258 0.599734 -0.112503 0.964578 0.575382 -0.061003 0.964578 0.584382 -0.061003 0.982258 0.575382 -0.116003 0.982258 0.584382 -0.116003 0.941289 0.584382 -0.116003 0.942805 0.593817 -0.116003 0.943717 0.603330 -0.116003 0.944021 0.612882 -0.116003 0.943717 0.622434 -0.116003 0.942805 0.631947 -0.116003 0.941289 0.641382 -0.116003 0.989258 0.582382 -0.116003 0.989258 0.643382 -0.116003 0.982258 0.650382 -0.116003 0.982258 0.641382 -0.116003 0.976258 0.632958 -0.116003 0.982258 0.636422 -0.116003 0.988258 0.632958 -0.116003 0.988258 0.626030 -0.116003 0.982258 0.622566 -0.116003 0.976258 0.626030 -0.116003 0.976258 0.632958 -0.112503 0.982258 0.636422 -0.112503 0.988258 0.632958 -0.112503 0.988258 0.626030 -0.112503 0.982258 0.622566 -0.112503 0.976258 0.626030 -0.112503 0.964578 0.641382 -0.061003 0.964578 0.650382 -0.061003 0.939258 0.650382 -0.126003 0.936441 0.659963 -0.126003 0.932992 0.669335 -0.126003 0.928928 0.678457 -0.126003 0.924265 0.687289 -0.126003 0.919026 0.695791 -0.126003 0.913232 0.703925 -0.126003 0.906910 0.711655 -0.126003 0.900087 0.718948 -0.126003 0.892794 0.725771 -0.126003 0.885064 0.732093 -0.126003 0.876930 0.737887 -0.126003 0.868428 0.743126 -0.126003 0.859597 0.747789 -0.126003 0.850474 0.751853 -0.126003 0.841102 0.755302 -0.126003 0.982258 0.575382 -0.126003 0.989258 0.582382 -0.126003 0.939258 0.575382 -0.126003 0.989258 0.643382 -0.126003 0.982258 0.650382 -0.126003 0.773945 0.430645 -0.116003 0.770481 0.424645 -0.116003 0.770481 0.424645 -0.112503 0.773945 0.430645 -0.112503 0.773945 0.418645 -0.116003 0.773945 0.418645 -0.112503 0.780873 0.418645 -0.116003 0.780873 0.418645 -0.112503 0.784337 0.424645 -0.116003 0.784337 0.424645 -0.112503 0.780873 0.430645 -0.116003 0.780873 0.430645 -0.112503 0.756521 0.442325 -0.061003 0.765521 0.442325 -0.061003 0.756521 0.424645 -0.116003 0.765521 0.424645 -0.116003 0.765521 0.465614 -0.116003 0.774957 0.464098 -0.116003 0.784469 0.463186 -0.116003 0.794021 0.462882 -0.116003 0.803573 0.463186 -0.116003 0.813086 0.464098 -0.116003 0.822521 0.465614 -0.116003 0.763521 0.417645 -0.116003 0.824521 0.417645 -0.116003 0.831521 0.424645 -0.116003 0.822521 0.424645 -0.116003 0.814097 0.430645 -0.116003 0.817561 0.424645 -0.116003 0.814097 0.418645 -0.116003 0.807169 0.418645 -0.116003 0.803705 0.424645 -0.116003 0.807169 0.430645 -0.116003 0.814097 0.430645 -0.112503 0.817561 0.424645 -0.112503 0.814097 0.418645 -0.112503 0.807169 0.418645 -0.112503 0.803705 0.424645 -0.112503 0.807169 0.430645 -0.112503 0.822521 0.442325 -0.061003 0.831521 0.442325 -0.061003 0.831521 0.467645 -0.126003 0.841102 0.470462 -0.126003 0.850474 0.473911 -0.126003 0.859597 0.477975 -0.126003 0.868428 0.482638 -0.126003 0.876930 0.487877 -0.126003 0.885064 0.493671 -0.126003 0.892794 0.499993 -0.126003 0.900087 0.506816 -0.126003 0.906910 0.514109 -0.126003 0.913232 0.521839 -0.126003 0.919026 0.529973 -0.126003 0.924265 0.538475 -0.126003 0.928928 0.547307 -0.126003 0.932992 0.556429 -0.126003 0.936441 0.565801 -0.126003 0.756521 0.424645 -0.126003 0.763521 0.417645 -0.126003 0.824521 0.417645 -0.126003 0.831521 0.424645 -0.126003 0.611784 0.632958 -0.116003 0.605784 0.636422 -0.116003 0.605784 0.636422 -0.112503 0.611784 0.632958 -0.112503 0.599784 0.632958 -0.116003 0.599784 0.632958 -0.112503 0.599784 0.626030 -0.116003 0.599784 0.626030 -0.112503 0.605784 0.622566 -0.116003 0.605784 0.622566 -0.112503 0.611784 0.626030 -0.116003 0.611784 0.626030 -0.112503 0.623464 0.650382 -0.061003 0.623464 0.641382 -0.061003 0.605784 0.650382 -0.116003 0.605784 0.641382 -0.116003 0.646753 0.641382 -0.116003 0.645237 0.631947 -0.116003 0.644325 0.622434 -0.116003 0.644021 0.612882 -0.116003 0.644325 0.603330 -0.116003 0.645237 0.593817 -0.116003 0.646753 0.584382 -0.116003 0.598784 0.643382 -0.116003 0.598784 0.582382 -0.116003 0.605784 0.575382 -0.116003 0.605784 0.584382 -0.116003 0.611784 0.592806 -0.116003 0.605784 0.589342 -0.116003 0.599784 0.592806 -0.116003 0.599784 0.599734 -0.116003 0.605784 0.603198 -0.116003 0.611784 0.599734 -0.116003 0.611784 0.592806 -0.112503 0.605784 0.589342 -0.112503 0.599784 0.592806 -0.112503 0.599784 0.599734 -0.112503 0.605784 0.603198 -0.112503 0.611784 0.599734 -0.112503 0.623464 0.584382 -0.061003 0.623464 0.575382 -0.061003 0.605784 0.650382 -0.126003 0.598784 0.643382 -0.126003 0.598784 0.582382 -0.126003 0.605784 0.575382 -0.126003</float_array>
          <technique_common>
            <accessor source="#base_link-mesh-positions-array" count="674" stride="3">
              <param name="X" type="float"/>
              <param name="Y" type="float"/>
              <param name="Z" type="float"/>
            </accessor>
          </technique_common>
        </source>
        <source id="base_link-mesh-normals">
          <float_array id="base_link-mesh-normals-array" count="4698">0.976621 -0.214970 -0.000000 0.976621 -0.214970 -0.000000 1.000000 -0.000000 -0.000000 1.000000 -0.000000 -0.000000 0.976621 0.214970 -0.000000 0.976621 0.214970 -0.000000 0.907575 0.419889 -0.000000 0.907575 0.419889 -0.000000 0.796093 0.605174 -0.000000 0.796093 0.605174 -0.000000 0.647386 0.762162 -0.000000 0.647386 0.762162 -0.000000 0.468408 0.883512 -0.000000 0.468408 0.883512 -0.000000 0.267528 0.963550 -0.000000 0.267528 0.963550 -0.000000 0.054139 0.998533 -0.000000 0.054139 0.998533 -0.000000 -0.161782 0.986827 -0.000000 -0.161782 0.986827 -0.000000 -0.370138 0.928977 -0.000000 -0.370138 0.928977 -0.000000 -0.561187 0.827689 -0.000000 -0.561187 0.827689 -0.000000 -0.725995 0.687699 -0.000000 -0.725995 0.687699 -0.000000 -0.856857 0.515554 -0.000000 -0.856857 0.515554 -0.000000 -0.947653 0.319302 -0.000000 -0.947653 0.319302 -0.000000 -0.994138 0.108119 -0.000000 -0.994138 0.108119 -0.000000 -0.994138 -0.108119 0.000000 -0.994138 -0.108119 0.000000 -0.947653 -0.319302 0.000000 -0.947653 -0.319302 0.000000 -0.856857 -0.515554 0.000000 -0.856857 -0.515554 0.000000 -0.725995 -0.687699 0.000000 -0.725995 -0.687699 0.000000 -0.561187 -0.827689 0.000000 -0.561187 -0.827689 0.000000 -0.370138 -0.928977 0.000000 -0.370138 -0.928977 0.000000 -0.161782 -0.986827 0.000000 -0.161782 -0.986827 0.000000 0.054139 -0.998533 -0.000000 0.054139 -0.998533 -0.000000 0.267528 -0.963550 -0.000000 0.267528 -0.963550 -0.000000 0.468408 -0.883512 -0.000000 0.468408 -0.883512 -0.000000 0.647386 -0.762162 -0.000000 0.647386 -0.762162 -0.000000 0.796093 -0.605174 -0.000000 0.796093 -0.605174 -0.000000 0.907575 -0.419889 -0.000000 0.907575 -0.419889 -0.000000 0.000000 0.000000 1.000000 0.000000 0.000000 1.000000 0.000000 0.000000 1.000000 0.000000 0.000000 1.000000 0.000000 0.000000 1.000000 0.000000 0.000000 1.000000 0.000000 0.000000 1.000000 0.000000 0.000000 1.000000 0.000000 0.000000 1.000000 0.000000 0.000000 1.000000 0.000000 0.000000 1.000000 0.000000 0.000000 1.000000 0.000000 0.000000 1.000000 0.000000 0.000000 1.000000 0.000000 0.000000 1.000000 0.000000 0.000000 1.000000 0.000000 0.000000 1.000000 0.000000 0.000000 1.000000 0.000000 0.000000 1.000000 0.000000 0.000000 1.000000 0.000000 0.000000 1.000000 0.000000 0.000000 1.000000 0.000000 0.000000 1.000000 0.000000 0.000000 1.000000 0.000000 0.000000 1.000000 0.000000 0.000000 1.000000 0.000000 0.000000 1.000000 0.000000 0.000000 1.000000 0.000000 0.000000 1.000000 0.704627 -0.059169 0.707107 0.704872 -0.056180 0.707107 0.707107 -0.000000 0.707107 0.707107 -0.000000 0.707107 0.704872 0.056180 0.707107 0.698180 -0.112004 0.707107 0.697204 -0.117923 0.707107 0.687074 -0.167121 0.707107 0.684892 -0.175850 0.707107 0.671624 -0.221181 0.707107 0.667775 -0.232544 0.707107 0.651928 -0.273842 0.707107 0.645974 -0.287606 0.707107 0.628111 -0.324772 0.707107 0.619642 -0.340651 0.707107 0.600322 -0.373649 0.707107 0.588964 -0.391307 0.707107 0.568738 -0.420164 0.707107 0.554155 -0.439218 0.707107 0.533558 -0.464022 0.707107 0.515459 -0.484048 0.707107 0.495004 -0.504946 0.707107 0.473147 -0.525483 0.707107 0.453322 -0.542678 0.707107 0.427516 -0.563232 0.707107 0.408773 -0.576979 0.707107 0.378887 -0.597030 0.707107 0.361639 -0.607632 0.707107 0.327600 -0.626641 0.707107 0.312220 -0.634444 0.707107 0.274015 -0.651856 0.707107 0.260826 -0.657244 0.707107 0.218508 -0.672499 0.707107 0.207784 -0.675889 0.707107 0.161468 -0.688424 0.707107 0.153427 -0.690261 0.707107 0.103296 -0.699521 0.707107 0.098101 -0.700269 0.707107 0.044400 -0.705711 0.707107 0.042154 -0.705849 0.707107 -0.014809 -0.706952 0.707107 -0.014059 -0.706967 0.707107 -0.070183 -0.703615 0.707107 -0.073913 -0.703233 0.707107 -0.125864 -0.695815 0.707107 -0.132499 -0.694582 0.707107 -0.180748 -0.683615 0.707107 -0.190155 -0.681059 0.707107 -0.234490 -0.667094 0.707107 -0.246478 -0.662758 0.707107 -0.286750 -0.646355 0.707107 -0.301071 -0.639809 0.707107 -0.337196 -0.621529 0.707107 -0.353553 -0.612372 0.707107 -0.385511 -0.592774 0.707107 -0.403555 -0.580640 0.707107 -0.431388 -0.560272 0.707107 -0.450727 -0.544835 0.707107 -0.474538 -0.524227 0.707107 -0.494737 -0.505208 0.707107 -0.514688 -0.484867 0.707107 -0.535276 -0.462038 0.707107 -0.551584 -0.442442 0.707107 -0.572061 -0.415627 0.707107 -0.584992 -0.397220 0.707107 -0.604834 -0.366300 0.707107 -0.614702 -0.349487 0.707107 -0.633364 -0.314405 0.707107 -0.640526 -0.299544 0.707107 -0.657451 -0.260303 0.707107 -0.662300 -0.247707 0.707107 -0.676927 -0.204376 0.707107 -0.679887 -0.194304 0.707107 -0.691655 -0.147016 0.707107 -0.693175 -0.139673 0.707107 -0.701531 -0.088624 0.707107 -0.702081 -0.084159 0.707107 -0.706487 -0.029611 0.707107 -0.706548 -0.028112 0.707107 -0.706487 0.029611 0.707107 -0.706548 0.028112 0.707107 -0.702081 0.084159 0.707107 -0.701531 0.088624 0.707107 -0.693175 0.139673 0.707107 -0.691655 0.147016 0.707107 -0.679887 0.194304 0.707107 -0.676927 0.204376 0.707107 -0.662300 0.247707 0.707107 -0.657451 0.260303 0.707107 -0.640526 0.299544 0.707107 -0.633364 0.314405 0.707107 -0.614702 0.349487 0.707107 -0.604834 0.366300 0.707107 -0.584992 0.397220 0.707107 -0.572061 0.415627 0.707107 -0.551584 0.442442 0.707107 -0.535276 0.462038 0.707107 -0.514688 0.484867 0.707107 -0.494737 0.505208 0.707107 -0.474538 0.524227 0.707107 -0.450727 0.544835 0.707107 -0.431388 0.560272 0.707107 -0.403555 0.580640 0.707107 -0.385511 0.592774 0.707107 -0.353553 0.612372 0.707107 -0.337196 0.621529 0.707107 -0.301071 0.639809 0.707107 -0.286750 0.646355 0.707107 -0.246478 0.662758 0.707107 -0.234490 0.667094 0.707107 -0.190155 0.681059 0.707107 -0.180748 0.683615 0.707107 -0.132499 0.694582 0.707107 -0.125864 0.695815 0.707107 -0.073913 0.703233 0.707107 -0.070183 0.703615 0.707107 -0.014809 0.706952 0.707107 -0.014059 0.706967 0.707107 0.042154 0.705849 0.707107 0.044400 0.705711 0.707107 0.098101 0.700269 0.707107 0.103296 0.699521 0.707107 0.153427 0.690261 0.707107 0.161468 0.688424 0.707107 0.207784 0.675889 0.707107 0.218508 0.672499 0.707107 0.260826 0.657244 0.707107 0.274015 0.651856 0.707107 0.312220 0.634444 0.707107 0.327600 0.626641 0.707107 0.361639 0.607632 0.707107 0.378887 0.597030 0.707107 0.408773 0.576979 0.707107 0.427516 0.563232 0.707107 0.453322 0.542678 0.707107 0.473147 0.525483 0.707107 0.495004 0.504946 0.707107 0.515459 0.484048 0.707107 0.533558 0.464022 0.707107 0.554155 0.439218 0.707107 0.568738 0.420164 0.707107 0.588964 0.391307 0.707107 0.600322 0.373649 0.707107 0.619642 0.340651 0.707107 0.628111 0.324772 0.707107 0.645974 0.287606 0.707107 0.651928 0.273842 0.707107 0.667775 0.232544 0.707107 0.671624 0.221181 0.707107 0.684892 0.175850 0.707107 0.687074 0.167121 0.707107 0.697204 0.117923 0.707107 0.698180 0.112004 0.707107 0.704627 0.059169 0.707107 0.000000 0.000000 1.000000 0.000000 0.000000 1.000000 0.000000 0.000000 1.000000 0.000000 0.000000 1.000000 0.000000 0.000000 1.000000 0.000000 0.000000 1.000000 0.000000 0.000000 1.000000 0.000000 0.000000 1.000000 0.000000 0.000000 1.000000 0.000000 0.000000 1.000000 0.000000 0.000000 1.000000 0.000000 0.000000 1.000000 0.000000 0.000000 1.000000 0.000000 0.000000 1.000000 0.000000 0.000000 1.000000 0.000000 0.000000 1.000000 0.000000 0.000000 1.000000 0.000000 0.000000 1.000000 0.000000 0.000000 1.000000 0.000000 0.000000 1.000000 0.000000 0.000000 1.000000 0.000000 0.000000 1.000000 0.000000 0.000000 1.000000 0.000000 0.000000 1.000000 0.000000 0.000000 1.000000 0.000000 0.000000 1.000000 0.000000 0.000000 1.000000 0.000000 0.000000 1.000000 0.000000 0.000000 1.000000 0.000000 0.000000 1.000000 0.000000 0.000000 1.000000 0.000000 0.000000 1.000000 0.000000 0.000000 1.000000 0.000000 0.000000 1.000000 0.000000 0.000000 1.000000 0.000000 0.000000 1.000000 0.000000 0.000000 1.000000 0.000000 0.000000 1.000000 0.000000 0.000000 1.000000 0.000000 0.000000 1.000000 0.000000 0.000000 1.000000 0.000000 0.000000 1.000000 0.000000 0.000000 1.000000 0.000000 0.000000 1.000000 0.000000 0.000000 1.000000 0.000000 0.000000 1.000000 0.000000 0.000000 1.000000 0.000000 0.000000 1.000000 0.000000 0.000000 1.000000 0.000000 0.000000 1.000000 0.000000 0.000000 1.000000 0.000000 0.000000 1.000000 0.000000 0.000000 1.000000 0.000000 0.000000 1.000000 0.000000 0.000000 1.000000 0.000000 0.000000 1.000000 0.000000 0.000000 1.000000 0.000000 0.000000 1.000000 0.000000 0.000000 1.000000 0.000000 0.000000 1.000000 0.000000 0.000000 1.000000 0.000000 0.000000 1.000000 0.000000 0.000000 1.000000 0.000000 0.000000 1.000000 0.000000 0.000000 1.000000 0.000000 0.000000 1.000000 0.000000 0.000000 1.000000 0.000000 0.000000 1.000000 0.000000 0.000000 1.000000 0.000000 0.000000 1.000000 0.000000 0.000000 1.000000 0.000000 0.000000 1.000000 0.000000 0.000000 1.000000 0.000000 0.000000 1.000000 0.000000 0.000000 1.000000 0.000000 0.000000 1.000000 0.000000 0.000000 1.000000 0.000000 0.000000 1.000000 0.000000 0.000000 1.000000 0.000000 0.000000 1.000000 0.000000 0.000000 1.000000 0.000000 0.000000 1.000000 0.000000 0.000000 1.000000 0.000000 0.000000 1.000000 0.000000 0.000000 1.000000 0.000000 0.000000 1.000000 0.000000 0.000000 1.000000 0.000000 0.000000 1.000000 0.000000 0.000000 1.000000 0.000000 0.000000 1.000000 0.000000 0.000000 1.000000 0.000000 0.000000 1.000000 0.000000 0.000000 1.000000 0.000000 0.000000 1.000000 0.000000 0.000000 1.000000 0.000000 0.000000 1.000000 0.000000 0.000000 1.000000 0.000000 0.000000 1.000000 0.000000 0.000000 1.000000 0.000000 0.000000 1.000000 0.000000 0.000000 1.000000 0.000000 0.000000 1.000000 0.000000 0.000000 1.000000 0.000000 0.000000 1.000000 -0.866025 0.500000 -0.000000 -0.866025 0.500000 -0.000000 -0.866025 0.500000 -0.000000 -0.866025 0.500000 -0.000000 -0.866025 0.500000 -0.000000 0.500000 -0.866025 -0.000000 0.500000 -0.866025 -0.000000 0.500000 -0.866025 -0.000000 0.500000 -0.866025 -0.000000 0.500000 -0.866025 -0.000000 -0.500000 -0.866025 -0.000000 -0.500000 -0.866025 -0.000000 -0.555570 -0.831470 -0.000000 -0.555570 -0.831470 -0.000000 -0.608761 -0.793353 -0.000000 -0.608761 -0.793353 -0.000000 -0.659346 -0.751840 -0.000000 -0.659346 -0.751840 -0.000000 -0.707107 -0.707107 -0.000000 -0.707107 -0.707107 -0.000000 -0.751840 -0.659346 -0.000000 -0.751840 -0.659346 -0.000000 -0.793353 -0.608761 -0.000000 -0.793353 -0.608761 -0.000000 -0.831470 -0.555570 -0.000000 -0.831470 -0.555570 -0.000000 -0.866025 -0.500000 -0.000000 -0.866025 -0.500000 -0.000000 0.000000 0.000000 1.000000 0.000000 0.000000 1.000000 0.000000 0.000000 1.000000 0.000000 0.000000 1.000000 0.000000 0.000000 1.000000 0.000000 0.000000 1.000000 0.000000 0.000000 1.000000 0.000000 0.000000 1.000000 0.000000 0.000000 1.000000 0.000000 0.000000 1.000000 0.000000 0.000000 1.000000 0.000000 0.000000 1.000000 0.000000 0.000000 1.000000 0.000000 0.000000 1.000000 0.000000 0.000000 1.000000 0.000000 0.000000 1.000000 0.000000 0.000000 1.000000 0.000000 0.000000 1.000000 -0.353553 -0.612372 0.707107 -0.311299 -0.634896 0.707107 -0.353553 -0.612372 0.707107 -0.309153 -0.635944 0.707107 -0.267617 -0.654508 0.707107 -0.263191 -0.656301 0.707107 -0.222707 -0.671120 0.707107 -0.215898 -0.673341 0.707107 -0.176777 -0.684653 0.707107 -0.167514 -0.686978 0.707107 -0.162701 -0.688134 0.707107 -0.148557 -0.691325 0.707107 -0.118284 -0.697143 0.707107 -0.134350 -0.694226 0.707107 -0.089871 -0.701372 0.707107 -0.068456 -0.703785 0.707107 -0.045027 -0.705672 0.707107 -0.018281 -0.706870 0.707107 0.000000 -0.707107 0.707107 0.031985 -0.706383 0.707107 0.045027 -0.705672 0.707107 0.082090 -0.702326 0.707107 0.089871 -0.701372 0.707107 0.131780 -0.694719 0.707107 0.134350 -0.694226 0.707107 0.148557 -0.691325 0.707107 0.162701 -0.688134 0.707107 0.180804 -0.683601 0.707107 0.176777 -0.684653 0.707107 0.221942 -0.671373 0.707107 0.228914 -0.669028 0.707107 0.266124 -0.655117 0.707107 0.275868 -0.651074 0.707107 0.309126 -0.635957 0.707107 0.321427 -0.629829 0.707107 0.350758 -0.613978 0.707107 0.365362 -0.605401 0.707107 0.390835 -0.589278 0.707107 0.407450 -0.577914 0.707107 0.429179 -0.561965 0.707107 0.447479 -0.547506 0.707107 0.465622 -0.532162 0.707107 0.485246 -0.514331 0.707107 0.500000 -0.500000 0.707107 0.520561 -0.478556 0.707107 0.532162 -0.465622 0.707107 0.553245 -0.440363 0.707107 0.561965 -0.429179 0.707107 0.583133 -0.399944 0.707107 0.589278 -0.390835 0.707107 0.610074 -0.357504 0.707107 0.613978 -0.350758 0.707107 0.633932 -0.313258 0.707107 0.635957 -0.309126 0.707107 0.654586 -0.267428 0.707107 0.655117 -0.266124 0.707107 0.671373 -0.221942 0.707107 0.671931 -0.220246 0.707107 0.684653 -0.176777 0.707107 0.685881 -0.171951 0.707107 0.688134 -0.162701 0.707107 0.691325 -0.148557 0.707107 0.696364 -0.122788 0.707107 0.694226 -0.134350 0.707107 0.701372 -0.089871 0.707107 0.703328 -0.073004 0.707107 0.705672 -0.045027 0.707107 0.706737 -0.022850 0.707107 0.707107 0.000000 0.707107 0.706575 0.027418 0.707107 0.705672 0.045027 0.707107 0.702842 0.077548 0.707107 0.701372 0.089871 0.707107 0.695556 0.127287 0.707107 0.694226 0.134350 0.707107 0.691325 0.148557 0.707107 0.684755 0.176382 0.707107 0.688134 0.162701 0.707107 0.684653 0.176777 0.707107 0.671373 0.221942 0.707107 0.670494 0.224585 0.707107 0.655117 0.266124 0.707107 0.652843 0.271653 0.707107 0.635957 0.309126 0.707107 0.631894 0.317349 0.707107 0.613978 0.350758 0.707107 0.607751 0.361441 0.707107 0.589278 0.390835 0.707107 0.580536 0.403706 0.707107 0.561965 0.429179 0.707107 0.550387 0.443930 0.707107 0.532162 0.465622 0.707107 0.517457 0.481911 0.707107 0.500000 0.500000 0.707107 0.481911 0.517457 0.707107 0.465622 0.532162 0.707107 0.443930 0.550387 0.707107 0.429179 0.561965 0.707107 0.403706 0.580536 0.707107 0.390835 0.589278 0.707107 0.361441 0.607751 0.707107 0.350758 0.613978 0.707107 0.317349 0.631894 0.707107 0.309126 0.635957 0.707107 0.271653 0.652843 0.707107 0.266124 0.655117 0.707107 0.224585 0.670494 0.707107 0.221942 0.671373 0.707107 0.176382 0.684755 0.707107 0.176777 0.684653 0.707107 0.162701 0.688134 0.707107 0.148557 0.691325 0.707107 0.127287 0.695556 0.707107 0.134350 0.694226 0.707107 0.089871 0.701372 0.707107 0.077548 0.702842 0.707107 0.045027 0.705672 0.707107 0.027418 0.706575 0.707107 0.000000 0.707107 0.707107 -0.022850 0.706737 0.707107 -0.045027 0.705672 0.707107 -0.073004 0.703328 0.707107 -0.089871 0.701372 0.707107 -0.122788 0.696364 0.707107 -0.134350 0.694226 0.707107 -0.148557 0.691325 0.707107 -0.171951 0.685881 0.707107 -0.162701 0.688134 0.707107 -0.176777 0.684653 0.707107 -0.220246 0.671931 0.707107 -0.221942 0.671373 0.707107 -0.267428 0.654586 0.707107 -0.266124 0.655117 0.707107 -0.309126 0.635957 0.707107 -0.313258 0.633932 0.707107 -0.350758 0.613978 0.707107 -0.357504 0.610074 0.707107 -0.390835 0.589278 0.707107 -0.399944 0.583133 0.707107 -0.429179 0.561965 0.707107 -0.440363 0.553245 0.707107 -0.465622 0.532162 0.707107 -0.478556 0.520561 0.707107 -0.500000 0.500000 0.707107 -0.514331 0.485246 0.707107 -0.532162 0.465622 0.707107 -0.547506 0.447479 0.707107 -0.561965 0.429179 0.707107 -0.577914 0.407450 0.707107 -0.589278 0.390835 0.707107 -0.605401 0.365362 0.707107 -0.613978 0.350758 0.707107 -0.629829 0.321427 0.707107 -0.635957 0.309126 0.707107 -0.651074 0.275868 0.707107 -0.655117 0.266124 0.707107 -0.669028 0.228914 0.707107 -0.671373 0.221942 0.707107 -0.683601 0.180804 0.707107 -0.684653 0.176777 0.707107 -0.688134 0.162701 0.707107 -0.694719 0.131780 0.707107 -0.691325 0.148557 0.707107 -0.694226 0.134350 0.707107 -0.701372 0.089871 0.707107 -0.702326 0.082090 0.707107 -0.705672 0.045027 0.707107 -0.706383 0.031985 0.707107 -0.707107 0.000000 0.707107 -0.706870 -0.018281 0.707107 -0.705672 -0.045027 0.707107 -0.703785 -0.068456 0.707107 -0.701372 -0.089871 0.707107 -0.697143 -0.118284 0.707107 -0.694226 -0.134350 0.707107 -0.691325 -0.148557 0.707107 -0.686978 -0.167514 0.707107 -0.688134 -0.162701 0.707107 -0.684653 -0.176777 0.707107 -0.673341 -0.215898 0.707107 -0.671120 -0.222707 0.707107 -0.656301 -0.263191 0.707107 -0.654508 -0.267617 0.707107 -0.635944 -0.309153 0.707107 -0.634896 -0.311299 0.707107 -0.612372 -0.353553 0.707107 -0.612372 -0.353553 0.707107 -0.440243 -0.897879 0.000000 -0.500000 -0.866025 0.000000 -0.496046 -0.868296 0.000000 -0.500000 -0.866025 0.000000 -0.552724 -0.833365 0.000000 -0.555570 -0.831470 0.000000 -0.606951 -0.794739 0.000000 -0.608761 -0.793353 0.000000 -0.658488 -0.752591 0.000000 -0.659346 -0.751840 0.000000 -0.707107 -0.707107 0.000000 -0.707107 -0.707107 0.000000 -0.751840 -0.659346 0.000000 -0.752591 -0.658488 0.000000 -0.793353 -0.608761 0.000000 -0.794739 -0.606951 0.000000 -0.831470 -0.555570 0.000000 -0.833365 -0.552724 0.000000 -0.866025 -0.500000 0.000000 -0.868296 -0.496046 0.000000 -0.866025 -0.500000 0.000000 -0.897879 -0.440243 0.000000 -0.899379 -0.437170 0.000000 -0.925615 -0.378467 0.000000 -0.926475 -0.376356 0.000000 -0.949106 -0.314956 0.000000 -0.949465 -0.313874 0.000000 -0.968246 -0.250000 0.000000 -0.968246 -0.250000 0.000000 -0.437170 -0.899379 0.000000 -0.378467 -0.925615 0.000000 -0.376356 -0.926475 0.000000 -0.314956 -0.949106 0.000000 -0.313874 -0.949465 0.000000 -0.250000 -0.968246 0.000000 -0.250000 -0.968246 0.000000 0.866025 -0.500000 0.000000 0.866025 -0.500000 0.000000 0.866025 -0.500000 0.000000 0.866025 -0.500000 0.000000 0.866025 0.500000 0.000000 0.866025 0.500000 0.000000 0.866025 0.500000 0.000000 0.866025 0.500000 0.000000 0.000000 1.000000 0.000000 0.000000 1.000000 0.000000 0.000000 1.000000 0.000000 0.000000 1.000000 0.000000 -0.866025 0.500000 0.000000 -0.866025 0.500000 0.000000 -0.866025 0.500000 0.000000 -0.866025 0.500000 0.000000 -0.866025 -0.500000 0.000000 -0.866025 -0.500000 0.000000 -0.866025 -0.500000 0.000000 -0.866025 -0.500000 0.000000 -0.000000 -1.000000 0.000000 -0.000000 -1.000000 0.000000 -0.000000 -1.000000 0.000000 -0.000000 -1.000000 0.000000 0.000000 0.000000 1.000000 0.000000 0.000000 1.000000 0.000000 0.000000 1.000000 0.000000 0.000000 1.000000 0.000000 0.000000 1.000000 0.000000 0.000000 1.000000 0.000000 0.000000 1.000000 0.000000 0.000000 1.000000 0.000000 0.000000 1.000000 0.000000 0.000000 1.000000 0.000000 0.000000 1.000000 0.000000 0.000000 1.000000 0.000000 0.952021 0.306032 0.000000 0.952021 0.306032 0.000000 0.952021 0.306032 0.000000 0.952021 0.306032 -1.000000 0.000000 0.000000 -1.000000 0.000000 0.000000 -1.000000 0.000000 0.000000 -1.000000 0.000000 0.000000 0.190000 0.981784 -0.000000 0.190000 0.981784 -0.000000 0.127097 0.991890 -0.000000 0.127097 0.991890 -0.000000 0.063678 0.997971 -0.000000 0.063678 0.997971 -0.000000 0.000000 1.000000 -0.000000 0.000000 1.000000 -0.000000 -0.063678 0.997971 -0.000000 -0.063678 0.997971 -0.000000 -0.127097 0.991890 -0.000000 -0.127097 0.991890 -0.000000 -0.190000 0.981784 -0.000000 -0.190000 0.981784 -0.000000 -0.000000 -0.000000 1.000000 -0.000000 -0.000000 1.000000 -0.000000 -0.000000 1.000000 -0.000000 -0.000000 1.000000 -0.000000 -0.000000 1.000000 -0.000000 -0.000000 1.000000 -0.000000 -0.000000 1.000000 -0.000000 -0.000000 1.000000 -0.000000 -0.000000 1.000000 -0.000000 -0.000000 1.000000 -0.000000 -0.000000 1.000000 -0.000000 -0.000000 1.000000 -0.000000 -0.000000 1.000000 -0.000000 -0.000000 1.000000 -0.000000 -0.000000 1.000000 -0.000000 -0.000000 1.000000 -0.000000 -0.000000 1.000000 -0.000000 -0.000000 1.000000 -0.000000 -0.000000 1.000000 -0.000000 -0.000000 1.000000 -0.000000 -0.000000 1.000000 -0.000000 -0.000000 1.000000 -0.000000 -0.000000 1.000000 -0.000000 -0.000000 1.000000 -0.000000 -0.000000 1.000000 -0.866025 -0.500000 0.000000 -0.866025 -0.500000 0.000000 -0.866025 -0.500000 0.000000 -0.866025 -0.500000 0.000000 -0.866025 0.500000 0.000000 -0.866025 0.500000 0.000000 -0.866025 0.500000 0.000000 -0.866025 0.500000 0.000000 -0.000000 1.000000 0.000000 -0.000000 1.000000 0.000000 -0.000000 1.000000 0.000000 -0.000000 1.000000 0.000000 0.866025 0.500000 0.000000 0.866025 0.500000 0.000000 0.866025 0.500000 0.000000 0.866025 0.500000 0.000000 0.866025 -0.500000 0.000000 0.866025 -0.500000 0.000000 0.866025 -0.500000 0.000000 0.866025 -0.500000 0.000000 0.000000 -1.000000 0.000000 0.000000 -1.000000 0.000000 0.000000 -1.000000 0.000000 0.000000 -1.000000 0.000000 0.000000 0.000000 1.000000 0.000000 0.000000 1.000000 0.000000 0.000000 1.000000 0.000000 0.000000 1.000000 0.000000 0.000000 1.000000 0.000000 0.000000 1.000000 1.000000 -0.000000 0.000000 1.000000 -0.000000 0.000000 1.000000 -0.000000 0.000000 1.000000 -0.000000 0.000000 0.000000 0.000000 1.000000 0.000000 0.000000 1.000000 0.000000 0.000000 1.000000 0.000000 0.000000 1.000000 0.000000 0.000000 1.000000 0.000000 0.000000 1.000000 0.000000 0.952021 0.306032 0.000000 0.952021 0.306032 0.000000 0.952021 0.306032 0.000000 0.952021 0.306032 -0.250000 0.968246 -0.000000 -0.250000 0.968246 -0.000000 -0.313874 0.949465 -0.000000 -0.313874 0.949465 -0.000000 -0.376356 0.926475 -0.000000 -0.376356 0.926475 -0.000000 -0.437170 0.899379 -0.000000 -0.437170 0.899379 -0.000000 -0.496046 0.868296 -0.000000 -0.496046 0.868296 -0.000000 -0.552724 0.833365 -0.000000 -0.552724 0.833365 -0.000000 -0.606951 0.794739 -0.000000 -0.606951 0.794739 -0.000000 -0.658488 0.752591 -0.000000 -0.658488 0.752591 -0.000000 -0.707107 0.707107 -0.000000 -0.707107 0.707107 -0.000000 -0.752591 0.658488 -0.000000 -0.752591 0.658488 -0.000000 -0.794739 0.606951 -0.000000 -0.794739 0.606951 -0.000000 -0.833365 0.552724 -0.000000 -0.833365 0.552724 -0.000000 -0.868296 0.496046 -0.000000 -0.868296 0.496046 -0.000000 -0.899379 0.437170 -0.000000 -0.899379 0.437170 -0.000000 -0.926475 0.376356 -0.000000 -0.926475 0.376356 -0.000000 -0.949465 0.313874 -0.000000 -0.949465 0.313874 -0.000000 -0.968246 0.250000 -0.000000 -0.968246 0.250000 -0.000000 0.707107 0.707107 0.000000 0.707107 0.707107 0.000000 0.707107 0.707107 0.000000 0.707107 0.707107 0.000000 1.000000 -0.000000 0.000000 1.000000 -0.000000 0.000000 1.000000 -0.000000 0.000000 1.000000 -0.000000 0.000000 1.000000 -0.000000 0.000000 -0.707107 0.707107 0.000000 -0.707107 0.707107 0.000000 -0.707107 0.707107 0.000000 -0.707107 0.707107 0.000000 -1.000000 0.000000 0.000000 -1.000000 0.000000 0.000000 -1.000000 0.000000 0.000000 -1.000000 0.000000 0.000000 -1.000000 0.000000 0.000000 0.000000 1.000000 0.000000 0.000000 1.000000 0.000000 0.000000 1.000000 0.000000 0.000000 1.000000 0.000000 -0.500000 -0.866025 0.000000 -0.500000 -0.866025 0.000000 -0.500000 -0.866025 0.000000 -0.500000 -0.866025 0.000000 0.500000 -0.866025 0.000000 0.500000 -0.866025 0.000000 0.500000 -0.866025 0.000000 0.500000 -0.866025 0.000000 1.000000 -0.000000 0.000000 1.000000 -0.000000 0.000000 1.000000 -0.000000 0.000000 1.000000 -0.000000 0.000000 0.500000 0.866025 0.000000 0.500000 0.866025 0.000000 0.500000 0.866025 0.000000 0.500000 0.866025 0.000000 -0.500000 0.866025 0.000000 -0.500000 0.866025 0.000000 -0.500000 0.866025 0.000000 -0.500000 0.866025 0.000000 -1.000000 0.000000 0.000000 -1.000000 0.000000 0.000000 -1.000000 0.000000 0.000000 -1.000000 0.000000 0.000000 0.000000 0.000000 1.000000 0.000000 0.000000 1.000000 0.000000 0.000000 1.000000 0.000000 0.000000 1.000000 0.000000 0.000000 1.000000 0.000000 0.000000 1.000000 0.000000 0.000000 1.000000 0.000000 0.000000 1.000000 0.000000 0.000000 1.000000 0.000000 0.000000 1.000000 0.000000 0.000000 1.000000 0.000000 0.000000 1.000000 0.952021 -0.000000 0.306032 0.952021 -0.000000 0.306032 0.952021 -0.000000 0.306032 0.952021 -0.000000 0.306032 0.000000 1.000000 0.000000 0.000000 1.000000 0.000000 0.000000 1.000000 0.000000 0.000000 1.000000 0.000000 0.981784 -0.190000 -0.000000 0.981784 -0.190000 -0.000000 0.991890 -0.127097 -0.000000 0.991890 -0.127097 -0.000000 0.997971 -0.063678 -0.000000 0.997971 -0.063678 -0.000000 1.000000 0.000000 -0.000000 1.000000 -0.000000 -0.000000 0.997971 0.063678 -0.000000 0.997971 0.063678 -0.000000 0.991890 0.127097 -0.000000 0.991890 0.127097 -0.000000 0.981784 0.190000 -0.000000 0.981784 0.190000 -0.000000 -0.000000 -0.000000 1.000000 -0.000000 -0.000000 1.000000 -0.000000 -0.000000 1.000000 -0.000000 -0.000000 1.000000 -0.000000 -0.000000 1.000000 -0.000000 -0.000000 1.000000 -0.000000 -0.000000 1.000000 -0.000000 -0.000000 1.000000 -0.000000 -0.000000 1.000000 -0.000000 -0.000000 1.000000 -0.000000 -0.000000 1.000000 -0.000000 -0.000000 1.000000 -0.000000 -0.000000 1.000000 -0.000000 -0.000000 1.000000 -0.000000 -0.000000 1.000000 -0.000000 -0.000000 1.000000 -0.000000 -0.000000 1.000000 -0.000000 -0.000000 1.000000 -0.000000 -0.000000 1.000000 -0.000000 -0.000000 1.000000 -0.000000 -0.000000 1.000000 -0.000000 -0.000000 1.000000 -0.000000 -0.000000 1.000000 -0.000000 -0.000000 1.000000 -0.000000 -0.000000 1.000000 -0.500000 0.866025 0.000000 -0.500000 0.866025 0.000000 -0.500000 0.866025 0.000000 -0.500000 0.866025 0.000000 0.500000 0.866025 0.000000 0.500000 0.866025 0.000000 0.500000 0.866025 0.000000 0.500000 0.866025 0.000000 1.000000 0.000000 0.000000 1.000000 0.000000 0.000000 1.000000 0.000000 0.000000 1.000000 0.000000 0.000000 0.500000 -0.866025 0.000000 0.500000 -0.866025 0.000000 0.500000 -0.866025 0.000000 0.500000 -0.866025 0.000000 -0.500000 -0.866025 0.000000 -0.500000 -0.866025 0.000000 -0.500000 -0.866025 0.000000 -0.500000 -0.866025 0.000000 -1.000000 -0.000000 0.000000 -1.000000 -0.000000 0.000000 -1.000000 -0.000000 0.000000 -1.000000 -0.000000 0.000000 0.000000 0.000000 1.000000 0.000000 0.000000 1.000000 0.000000 0.000000 1.000000 0.000000 0.000000 1.000000 0.000000 0.000000 1.000000 0.000000 0.000000 1.000000 -0.000000 -1.000000 0.000000 -0.000000 -1.000000 0.000000 -0.000000 -1.000000 0.000000 -0.000000 -1.000000 0.000000 0.000000 0.000000 1.000000 0.000000 0.000000 1.000000 0.000000 0.000000 1.000000 0.000000 0.000000 1.000000 0.000000 0.000000 1.000000 0.000000 0.000000 1.000000 0.952021 -0.000000 0.306032 0.952021 -0.000000 0.306032 0.952021 -0.000000 0.306032 0.952021 -0.000000 0.306032 0.250000 0.968246 -0.000000 0.250000 0.968246 -0.000000 0.313874 0.949465 -0.000000 0.313874 0.949465 -0.000000 0.376356 0.926475 -0.000000 0.376356 0.926475 -0.000000 0.437170 0.899379 -0.000000 0.437170 0.899379 -0.000000 0.496046 0.868296 -0.000000 0.496046 0.868296 -0.000000 0.552724 0.833365 -0.000000 0.552724 0.833365 -0.000000 0.606951 0.794739 -0.000000 0.606951 0.794739 -0.000000 0.658488 0.752591 -0.000000 0.658488 0.752591 -0.000000 0.707107 0.707107 -0.000000 0.707107 0.707107 -0.000000 0.752591 0.658488 -0.000000 0.752591 0.658488 -0.000000 0.794739 0.606951 -0.000000 0.794739 0.606951 -0.000000 0.833365 0.552724 -0.000000 0.833365 0.552724 -0.000000 0.868296 0.496046 -0.000000 0.868296 0.496046 -0.000000 0.899379 0.437170 -0.000000 0.899379 0.437170 -0.000000 0.926475 0.376356 -0.000000 0.926475 0.376356 -0.000000 0.949465 0.313874 -0.000000 0.949465 0.313874 -0.000000 0.968246 0.250000 -0.000000 0.968246 0.250000 -0.000000 0.707107 -0.707107 0.000000 0.707107 -0.707107 0.000000 0.707107 -0.707107 0.000000 0.707107 -0.707107 0.000000 -0.000000 -1.000000 0.000000 -0.000000 -1.000000 0.000000 -0.000000 -1.000000 0.000000 -0.000000 -1.000000 0.000000 -0.000000 -1.000000 0.000000 0.707107 0.707107 0.000000 0.707107 0.707107 0.000000 0.707107 0.707107 0.000000 0.707107 0.707107 0.000000 0.000000 1.000000 0.000000 0.000000 1.000000 0.000000 0.000000 1.000000 0.000000 0.000000 1.000000 0.000000 0.000000 1.000000 0.000000 1.000000 -0.000000 0.000000 1.000000 -0.000000 0.000000 1.000000 -0.000000 0.000000 1.000000 -0.000000 0.000000 -0.866025 0.500000 0.000000 -0.866025 0.500000 0.000000 -0.866025 0.500000 0.000000 -0.866025 0.500000 0.000000 -0.866025 -0.500000 0.000000 -0.866025 -0.500000 0.000000 -0.866025 -0.500000 0.000000 -0.866025 -0.500000 0.000000 -0.000000 -1.000000 0.000000 -0.000000 -1.000000 0.000000 -0.000000 -1.000000 0.000000 -0.000000 -1.000000 0.000000 0.866025 -0.500000 0.000000 0.866025 -0.500000 0.000000 0.866025 -0.500000 0.000000 0.866025 -0.500000 0.000000 0.866025 0.500000 0.000000 0.866025 0.500000 0.000000 0.866025 0.500000 0.000000 0.866025 0.500000 0.000000 0.000000 1.000000 0.000000 0.000000 1.000000 0.000000 0.000000 1.000000 0.000000 0.000000 1.000000 0.000000 0.000000 0.000000 1.000000 0.000000 0.000000 1.000000 0.000000 0.000000 1.000000 0.000000 0.000000 1.000000 0.000000 0.000000 1.000000 0.000000 0.000000 1.000000 0.000000 0.000000 1.000000 0.000000 0.000000 1.000000 0.000000 0.000000 1.000000 0.000000 0.000000 1.000000 0.000000 0.000000 1.000000 0.000000 0.000000 1.000000 -0.000000 -0.952021 0.306032 -0.000000 -0.952021 0.306032 -0.000000 -0.952021 0.306032 -0.000000 -0.952021 0.306032 1.000000 -0.000000 0.000000 1.000000 -0.000000 0.000000 1.000000 -0.000000 0.000000 1.000000 -0.000000 0.000000 -0.190000 -0.981784 0.000000 -0.190000 -0.981784 0.000000 -0.127097 -0.991890 0.000000 -0.127097 -0.991890 0.000000 -0.063678 -0.997971 0.000000 -0.063678 -0.997971 0.000000 0.000000 -1.000000 -0.000000 0.000000 -1.000000 -0.000000 0.063678 -0.997971 -0.000000 0.063678 -0.997971 -0.000000 0.127097 -0.991890 -0.000000 0.127097 -0.991890 -0.000000 0.190000 -0.981784 -0.000000 0.190000 -0.981784 -0.000000 -0.000000 -0.000000 1.000000 -0.000000 -0.000000 1.000000 -0.000000 -0.000000 1.000000 -0.000000 -0.000000 1.000000 -0.000000 -0.000000 1.000000 -0.000000 -0.000000 1.000000 -0.000000 -0.000000 1.000000 -0.000000 -0.000000 1.000000 -0.000000 -0.000000 1.000000 -0.000000 -0.000000 1.000000 -0.000000 -0.000000 1.000000 -0.000000 -0.000000 1.000000 -0.000000 -0.000000 1.000000 -0.000000 -0.000000 1.000000 -0.000000 -0.000000 1.000000 -0.000000 -0.000000 1.000000 -0.000000 -0.000000 1.000000 -0.000000 -0.000000 1.000000 -0.000000 -0.000000 1.000000 -0.000000 -0.000000 1.000000 -0.000000 -0.000000 1.000000 -0.000000 -0.000000 1.000000 -0.000000 -0.000000 1.000000 -0.000000 -0.000000 1.000000 -0.000000 -0.000000 1.000000 0.866025 0.500000 0.000000 0.866025 0.500000 0.000000 0.866025 0.500000 0.000000 0.866025 0.500000 0.000000 0.866025 -0.500000 0.000000 0.866025 -0.500000 0.000000 0.866025 -0.500000 0.000000 0.866025 -0.500000 0.000000 0.000000 -1.000000 0.000000 0.000000 -1.000000 0.000000 0.000000 -1.000000 0.000000 0.000000 -1.000000 0.000000 -0.866025 -0.500000 0.000000 -0.866025 -0.500000 0.000000 -0.866025 -0.500000 0.000000 -0.866025 -0.500000 0.000000 -0.866025 0.500000 0.000000 -0.866025 0.500000 0.000000 -0.866025 0.500000 0.000000 -0.866025 0.500000 0.000000 -0.000000 1.000000 0.000000 -0.000000 1.000000 0.000000 -0.000000 1.000000 0.000000 -0.000000 1.000000 0.000000 0.000000 0.000000 1.000000 0.000000 0.000000 1.000000 0.000000 0.000000 1.000000 0.000000 0.000000 1.000000 0.000000 0.000000 1.000000 0.000000 0.000000 1.000000 -1.000000 0.000000 0.000000 -1.000000 0.000000 0.000000 -1.000000 0.000000 0.000000 -1.000000 0.000000 0.000000 0.000000 0.000000 1.000000 0.000000 0.000000 1.000000 0.000000 0.000000 1.000000 0.000000 0.000000 1.000000 0.000000 0.000000 1.000000 0.000000 0.000000 1.000000 -0.000000 -0.952021 0.306032 -0.000000 -0.952021 0.306032 -0.000000 -0.952021 0.306032 -0.000000 -0.952021 0.306032 0.968246 -0.250000 -0.000000 0.968246 -0.250000 -0.000000 0.949465 -0.313874 -0.000000 0.949465 -0.313874 -0.000000 0.926475 -0.376356 -0.000000 0.926475 -0.376356 -0.000000 0.899379 -0.437170 -0.000000 0.899379 -0.437170 -0.000000 0.868296 -0.496046 -0.000000 0.868296 -0.496046 -0.000000 0.833365 -0.552724 -0.000000 0.833365 -0.552724 -0.000000 0.794739 -0.606951 -0.000000 0.794739 -0.606951 -0.000000 0.752591 -0.658488 -0.000000 0.752591 -0.658488 -0.000000 0.707107 -0.707107 -0.000000 0.707107 -0.707107 -0.000000 0.658488 -0.752591 -0.000000 0.658488 -0.752591 -0.000000 0.606951 -0.794739 -0.000000 0.606951 -0.794739 -0.000000 0.552724 -0.833365 -0.000000 0.552724 -0.833365 -0.000000 0.496046 -0.868296 -0.000000 0.496046 -0.868296 -0.000000 0.437170 -0.899379 -0.000000 0.437170 -0.899379 -0.000000 0.376356 -0.926475 -0.000000 0.376356 -0.926475 -0.000000 0.313874 -0.949465 -0.000000 0.313874 -0.949465 -0.000000 0.250000 -0.968246 -0.000000 0.250000 -0.968246 -0.000000 -0.707107 -0.707107 0.000000 -0.707107 -0.707107 0.000000 -0.707107 -0.707107 0.000000 -0.707107 -0.707107 0.000000 -1.000000 0.000000 0.000000 -1.000000 0.000000 0.000000 -1.000000 0.000000 0.000000 -1.000000 0.000000 0.000000 -1.000000 0.000000 0.000000 0.707107 -0.707107 0.000000 0.707107 -0.707107 0.000000 0.707107 -0.707107 0.000000 0.707107 -0.707107 0.000000 1.000000 -0.000000 0.000000 1.000000 -0.000000 0.000000 1.000000 -0.000000 0.000000 1.000000 -0.000000 0.000000 1.000000 -0.000000 0.000000 -0.000000 -1.000000 0.000000 -0.000000 -1.000000 0.000000 -0.000000 -1.000000 0.000000 -0.000000 -1.000000 0.000000 0.500000 0.866025 0.000000 0.500000 0.866025 0.000000 0.500000 0.866025 0.000000 0.500000 0.866025 0.000000 -0.500000 0.866025 0.000000 -0.500000 0.866025 0.000000 -0.500000 0.866025 0.000000 -0.500000 0.866025 0.000000 -1.000000 0.000000 0.000000 -1.000000 0.000000 0.000000 -1.000000 0.000000 0.000000 -1.000000 0.000000 0.000000 -0.500000 -0.866025 0.000000 -0.500000 -0.866025 0.000000 -0.500000 -0.866025 0.000000 -0.500000 -0.866025 0.000000 0.500000 -0.866025 0.000000 0.500000 -0.866025 0.000000 0.500000 -0.866025 0.000000 0.500000 -0.866025 0.000000 1.000000 -0.000000 0.000000 1.000000 -0.000000 0.000000 1.000000 -0.000000 0.000000 1.000000 -0.000000 0.000000 0.000000 0.000000 1.000000 0.000000 0.000000 1.000000 0.000000 0.000000 1.000000 0.000000 0.000000 1.000000 0.000000 0.000000 1.000000 0.000000 0.000000 1.000000 0.000000 0.000000 1.000000 0.000000 0.000000 1.000000 0.000000 0.000000 1.000000 0.000000 0.000000 1.000000 0.000000 0.000000 1.000000 0.000000 0.000000 1.000000 -0.952021 0.000000 0.306032 -0.952021 0.000000 0.306032 -0.952021 0.000000 0.306032 -0.952021 0.000000 0.306032 0.000000 -1.000000 0.000000 0.000000 -1.000000 0.000000 0.000000 -1.000000 0.000000 0.000000 -1.000000 0.000000 -0.981784 0.190000 -0.000000 -0.981784 0.190000 -0.000000 -0.991890 0.127097 -0.000000 -0.991890 0.127097 -0.000000 -0.997971 0.063678 -0.000000 -0.997971 0.063678 -0.000000 -1.000000 0.000000 -0.000000 -1.000000 0.000000 -0.000000 -0.997971 -0.063678 0.000000 -0.997971 -0.063678 0.000000 -0.991890 -0.127097 0.000000 -0.991890 -0.127097 0.000000 -0.981784 -0.190000 0.000000 -0.981784 -0.190000 0.000000 -0.000000 -0.000000 1.000000 -0.000000 -0.000000 1.000000 -0.000000 -0.000000 1.000000 -0.000000 -0.000000 1.000000 -0.000000 -0.000000 1.000000 -0.000000 -0.000000 1.000000 -0.000000 -0.000000 1.000000 -0.000000 -0.000000 1.000000 -0.000000 -0.000000 1.000000 -0.000000 -0.000000 1.000000 -0.000000 -0.000000 1.000000 -0.000000 -0.000000 1.000000 -0.000000 -0.000000 1.000000 -0.000000 -0.000000 1.000000 -0.000000 -0.000000 1.000000 -0.000000 -0.000000 1.000000 -0.000000 -0.000000 1.000000 -0.000000 -0.000000 1.000000 -0.000000 -0.000000 1.000000 -0.000000 -0.000000 1.000000 -0.000000 -0.000000 1.000000 -0.000000 -0.000000 1.000000 -0.000000 -0.000000 1.000000 -0.000000 -0.000000 1.000000 -0.000000 -0.000000 1.000000 0.500000 -0.866025 0.000000 0.500000 -0.866025 0.000000 0.500000 -0.866025 0.000000 0.500000 -0.866025 0.000000 -0.500000 -0.866025 0.000000 -0.500000 -0.866025 0.000000 -0.500000 -0.866025 0.000000 -0.500000 -0.866025 0.000000 -1.000000 -0.000000 0.000000 -1.000000 -0.000000 0.000000 -1.000000 -0.000000 0.000000 -1.000000 -0.000000 0.000000 -0.500000 0.866025 0.000000 -0.500000 0.866025 0.000000 -0.500000 0.866025 0.000000 -0.500000 0.866025 0.000000 0.500000 0.866025 0.000000 0.500000 0.866025 0.000000 0.500000 0.866025 0.000000 0.500000 0.866025 0.000000 1.000000 0.000000 0.000000 1.000000 0.000000 0.000000 1.000000 0.000000 0.000000 1.000000 0.000000 0.000000 0.000000 0.000000 1.000000 0.000000 0.000000 1.000000 0.000000 0.000000 1.000000 0.000000 0.000000 1.000000 0.000000 0.000000 1.000000 0.000000 0.000000 1.000000 0.000000 1.000000 0.000000 0.000000 1.000000 0.000000 0.000000 1.000000 0.000000 0.000000 1.000000 0.000000 0.000000 0.000000 1.000000 0.000000 0.000000 1.000000 0.000000 0.000000 1.000000 0.000000 0.000000 1.000000 0.000000 0.000000 1.000000 0.000000 0.000000 1.000000 -0.952021 0.000000 0.306032 -0.952021 0.000000 0.306032 -0.952021 0.000000 0.306032 -0.952021 0.000000 0.306032 -0.707107 0.707107 0.000000 -0.707107 0.707107 0.000000 -0.707107 0.707107 0.000000 -0.707107 0.707107 0.000000 0.000000 1.000000 0.000000 0.000000 1.000000 0.000000 0.000000 1.000000 0.000000 0.000000 1.000000 0.000000 0.000000 1.000000 0.000000 -0.707107 -0.707107 0.000000 -0.707107 -0.707107 0.000000 -0.707107 -0.707107 0.000000 -0.707107 -0.707107 0.000000 0.000000 -1.000000 0.000000 0.000000 -1.000000 0.000000 0.000000 -1.000000 0.000000 0.000000 -1.000000 0.000000 0.000000 -1.000000 0.000000 -1.000000 0.000000 0.000000 -1.000000 0.000000 0.000000 -1.000000 0.000000 0.000000 -1.000000 0.000000 0.000000 0.000000 0.000000 1.000000 0.000000 0.000000 1.000000 0.000000 0.000000 1.000000 0.000000 0.000000 1.000000 0.000000 0.000000 1.000000 0.000000 0.000000 1.000000 0.000000 0.000000 1.000000 0.000000 0.000000 1.000000 0.000000 0.000000 1.000000 0.000000 0.000000 1.000000 0.000000 0.000000 1.000000 0.000000 0.000000 1.000000 0.000000 0.000000 1.000000 0.000000 0.000000 1.000000 0.000000 0.000000 1.000000 0.000000 0.000000 1.000000 0.000000 0.000000 1.000000 0.000000 0.000000 1.000000 0.000000 0.000000 1.000000 0.000000 0.000000 1.000000 0.000000 0.000000 1.000000 0.000000 0.000000 1.000000 0.000000 0.000000 1.000000 0.000000 0.000000 1.000000 0.000000 0.000000 1.000000 0.000000 0.000000 1.000000 0.000000 0.000000 1.000000 0.000000 0.000000 1.000000 0.000000 0.000000 1.000000 0.000000 0.000000 1.000000 0.000000 0.000000 1.000000 0.000000 0.000000 1.000000 0.000000 0.000000 1.000000 0.000000 0.000000 1.000000 0.000000 0.000000 1.000000 0.000000 0.000000 1.000000 0.000000 0.000000 1.000000 0.000000 0.000000 1.000000 0.000000 0.000000 1.000000 0.000000 0.000000 1.000000 0.000000 0.000000 1.000000 0.000000 0.000000 1.000000 0.000000 0.000000 1.000000 0.000000 0.000000 1.000000 0.000000 0.000000 1.000000 0.000000 0.000000 1.000000 0.000000 0.000000 1.000000 0.000000 0.000000 1.000000 0.000000 0.000000 1.000000 0.000000 0.000000 1.000000 0.000000 0.000000 1.000000 0.000000 0.000000 1.000000 0.000000 0.000000 1.000000 0.000000 0.000000 1.000000 0.000000 0.000000 1.000000 0.000000 0.000000 1.000000 0.000000 0.000000 1.000000 0.000000 0.000000 1.000000 0.000000 0.000000 1.000000 0.000000 0.000000 1.000000 0.000000 0.000000 1.000000 0.000000 0.000000 1.000000 0.000000 0.000000 1.000000 0.000000 0.000000 1.000000 0.000000 0.000000 1.000000 0.000000 0.000000 1.000000 0.000000 0.000000 1.000000 0.000000 0.000000 1.000000 0.000000 0.000000 1.000000 0.000000 0.000000 1.000000 0.000000 0.000000 1.000000 0.000000 0.000000 1.000000 0.000000 0.000000 1.000000 0.000000 0.000000 1.000000 0.000000 0.000000 1.000000 0.000000 0.000000 1.000000 0.000000 0.000000 1.000000 0.000000 0.000000 1.000000 0.000000 0.000000 1.000000 0.000000 0.000000 1.000000 0.000000 0.000000 1.000000 0.000000 0.000000 1.000000 0.000000 0.000000 1.000000 0.000000 0.000000 1.000000 0.000000 0.000000 1.000000 0.000000 0.000000 1.000000 0.000000 0.000000 1.000000 0.000000 0.000000 1.000000 0.000000 0.000000 1.000000 0.000000 0.000000 1.000000 0.000000 0.000000 1.000000 0.000000 0.000000 1.000000 0.000000 0.000000 1.000000 0.000000 0.000000 1.000000 0.000000 0.000000 1.000000 0.000000 0.000000 1.000000 0.000000 0.000000 1.000000 0.000000 0.000000 1.000000 0.000000 0.000000 1.000000 0.000000 0.000000 1.000000 0.000000 0.000000 1.000000 0.000000 0.000000 1.000000 0.000000 0.000000 1.000000 0.000000 0.000000 1.000000 0.000000 0.000000 1.000000 0.000000 0.000000 1.000000 0.000000 0.000000 1.000000 0.000000 0.000000 1.000000 0.000000 0.000000 1.000000 0.000000 0.000000 1.000000 0.000000 0.000000 1.000000 0.000000 0.000000 1.000000 0.000000 0.000000 1.000000 0.000000 0.000000 1.000000 0.000000 0.000000 1.000000 0.000000 0.000000 1.000000 0.000000 0.000000 1.000000 0.000000 0.000000 1.000000 0.000000 0.000000 1.000000 0.000000 0.000000 1.000000 0.000000 0.000000 1.000000 0.000000 0.000000 1.000000 0.000000 0.000000 1.000000 0.000000 0.000000 1.000000 0.000000 0.000000 1.000000 0.000000 0.000000 1.000000 0.000000 0.000000 1.000000 0.000000 0.000000 1.000000 0.000000 0.000000 1.000000 0.000000 0.000000 1.000000 0.000000 0.000000 1.000000 0.000000 0.000000 1.000000 0.000000 0.000000 1.000000 0.000000 0.000000 1.000000 0.000000 0.000000 1.000000 0.000000 0.000000 1.000000 0.000000 0.000000 1.000000 0.000000 0.000000 1.000000 0.000000 0.000000 1.000000 0.000000 0.000000 1.000000 0.000000 0.000000 1.000000 0.000000 0.000000 1.000000 0.000000 0.000000 1.000000 0.000000 0.000000 1.000000 0.000000 0.000000 1.000000 0.000000 0.000000 1.000000 0.000000 0.000000 1.000000 0.000000 0.000000 1.000000 0.000000 0.000000 1.000000 0.000000 0.000000 1.000000 0.000000 0.000000 1.000000 0.000000 0.000000 1.000000 0.000000 0.000000 1.000000 0.000000 0.000000 1.000000 0.000000 0.000000 1.000000 0.000000 0.000000 1.000000 0.000000 0.000000 1.000000 0.000000 0.000000 1.000000 0.000000 0.000000 1.000000 0.000000 0.000000 1.000000 0.000000 0.000000 1.000000 0.000000 0.000000 1.000000 0.000000 0.000000 1.000000 0.000000 0.000000 1.000000 0.000000 0.000000 1.000000 0.000000 0.000000 1.000000 0.000000 0.000000 1.000000 0.000000 0.000000 1.000000 0.000000 0.000000 1.000000 0.000000 0.000000 1.000000 -0.000000 -0.000000 -1.000000 -0.000000 -0.000000 -1.000000 -0.000000 -0.000000 -1.000000 -0.000000 -0.000000 -1.000000 -0.000000 -0.000000 -1.000000 -0.000000 -0.000000 -1.000000 -0.000000 -0.000000 -1.000000 -0.000000 -0.000000 -1.000000 -0.000000 -0.000000 -1.000000 -0.000000 -0.000000 -1.000000 -0.000000 -0.000000 -1.000000 -0.000000 -0.000000 -1.000000 -0.000000 -0.000000 -1.000000 -0.000000 -0.000000 -1.000000 -0.000000 -0.000000 -1.000000 -0.000000 -0.000000 -1.000000 -0.000000 -0.000000 -1.000000 -0.000000 -0.000000 -1.000000 -0.000000 -0.000000 -1.000000 -0.000000 -0.000000 -1.000000 -0.000000 -0.000000 -1.000000 -0.000000 -0.000000 -1.000000 -0.000000 -0.000000 -1.000000 -0.000000 -0.000000 -1.000000 -0.000000 -0.000000 -1.000000 -0.000000 -0.000000 -1.000000 -0.000000 -0.000000 -1.000000 -0.000000 -0.000000 -1.000000 -0.000000 -0.000000 -1.000000 -0.000000 -0.000000 -1.000000 -0.000000 -0.000000 -1.000000 -0.000000 -0.000000 -1.000000 -0.000000 -0.000000 -1.000000 -0.000000 -0.000000 -1.000000 -0.000000 -0.000000 -1.000000 -0.000000 -0.000000 -1.000000 -0.000000 -0.000000 -1.000000 -0.000000 -0.000000 -1.000000 -0.000000 -0.000000 -1.000000 -0.000000 -0.000000 -1.000000 -0.000000 -0.000000 -1.000000 -0.000000 -0.000000 -1.000000 -0.000000 -0.000000 -1.000000 -0.000000 -0.000000 -1.000000 -0.000000 -0.000000 -1.000000 -0.000000 -0.000000 -1.000000 -0.000000 -0.000000 -1.000000 -0.000000 -0.000000 -1.000000 -0.000000 -0.000000 -1.000000 -0.000000 -0.000000 -1.000000 -0.000000 -0.000000 -1.000000 -0.000000 -0.000000 -1.000000 -0.000000 -0.000000 -1.000000 -0.000000 -0.000000 -1.000000 -0.000000 -0.000000 -1.000000 -0.000000 -0.000000 -1.000000 -0.000000 -0.000000 -1.000000 -0.000000 -0.000000 -1.000000 -0.000000 -0.000000 -1.000000 -0.000000 -0.000000 -1.000000 -0.000000 -0.000000 -1.000000 -0.000000 -0.000000 -1.000000 -0.000000 -0.000000 -1.000000 -0.000000 -0.000000 -1.000000 -0.000000 -0.000000 -1.000000 -0.000000 -0.000000 -1.000000 -0.000000 -0.000000 -1.000000 -0.000000 -0.000000 -1.000000 -0.000000 -0.000000 -1.000000 -0.000000 -0.000000 -1.000000 -0.000000 -0.000000 -1.000000 -0.000000 -0.000000 -1.000000 -0.000000 -0.000000 -1.000000 -0.000000 -0.000000 -1.000000 -0.000000 -0.000000 -1.000000 -0.000000 -0.000000 -1.000000 -0.000000 -0.000000 -1.000000 -0.000000 -0.000000 -1.000000 -0.000000 -0.000000 -1.000000 -0.000000 -0.000000 -1.000000 -0.000000 -0.000000 -1.000000 -0.000000 -0.000000 -1.000000 -0.000000 -0.000000 -1.000000 -0.000000 -0.000000 -1.000000</float_array>
          <technique_common>
            <accessor source="#base_link-mesh-normals-array" count="1566" stride="3">
              <param name="X" type="float"/>
              <param name="Y" type="float"/>
              <param name="Z" type="float"/>
            </accessor>
          </technique_common>
        </source>
        <vertices id="base_link-mesh-vertices">
          <input semantic="POSITION" source="#base_link-mesh-positions"/>
        </vertices>
        <triangles material="ABS__White_" count="1344">
          <input semantic="VERTEX" source="#base_link-mesh-vertices" offset="0"/>
          <input semantic="NORMAL" source="#base_link-mesh-normals" offset="1"/>
          <p>1 0 57 1 0 2 0 2 57 1 29 3 0 2 29 3 28 4 28 4 29 3 30 5 28 4 30 5 27 6 27 6 30 5 31 7 27 6 31 7 26 8 26 8 31 7 32 9 26 8 32 9 25 10 25 10 32 9 33 11 25 10 33 11 24 12 24 12 33 11 34 13 24 12 34 13 23 14 23 14 34 13 35 15 23 14 35 15 22 16 22 16 35 15 36 17 22 16 36 17 21 18 21 18 36 17 37 19 21 18 37 19 20 20 20 20 37 19 38 21 20 20 38 21 19 22 19 22 38 21 39 23 19 22 39 23 18 24 18 24 39 23 40 25 18 24 40 25 17 26 17 26 40 25 41 27 17 26 41 27 16 28 16 28 41 27 42 29 16 28 42 29 15 30 15 30 42 29 43 31 15 30 43 31 14 32 14 32 43 31 44 33 14 32 44 33 13 34 13 34 44 33 45 35 13 34 45 35 12 36 12 36 45 35 46 37 12 36 46 37 11 38 11 38 46 37 47 39 11 38 47 39 10 40 10 40 47 39 48 41 10 40 48 41 9 42 9 42 48 41 49 43 9 42 49 43 8 44 8 44 49 43 50 45 8 44 50 45 7 46 7 46 50 45 51 47 7 46 51 47 6 48 6 48 51 47 52 49 6 48 52 49 5 50 5 50 52 49 53 51 5 50 53 51 4 52 4 52 53 51 54 53 4 52 54 53 3 54 3 54 54 53 55 55 3 54 55 55 2 56 2 56 55 55 56 57 2 56 56 57 1 0 1 0 56 57 57 1 1 58 0 59 19 60 19 60 0 59 28 61 19 60 28 61 27 62 27 62 26 63 19 60 19 60 26 63 25 64 19 60 25 64 24 65 19 60 24 65 20 66 20 66 24 65 23 67 20 66 23 67 21 68 21 68 23 67 22 69 18 70 10 71 19 60 19 60 10 71 9 72 19 60 9 72 8 73 10 71 18 70 11 74 11 74 18 70 17 75 11 74 17 75 12 76 12 76 17 75 16 77 12 76 16 77 13 78 13 78 16 77 15 79 13 78 15 79 14 80 8 73 7 81 19 60 19 60 7 81 6 82 19 60 6 82 5 83 5 83 4 84 19 60 19 60 4 84 3 85 19 60 3 85 2 86 2 86 1 58 19 60 59 87 211 88 58 89 58 89 211 88 133 90 58 89 133 90 134 91 211 88 59 87 210 92 210 92 59 87 60 93 210 92 60 93 209 94 209 94 60 93 61 95 209 94 61 95 208 96 208 96 61 95 62 97 208 96 62 97 207 98 207 98 62 97 63 99 207 98 63 99 206 100 206 100 63 99 64 101 206 100 64 101 205 102 205 102 64 101 65 103 205 102 65 103 204 104 204 104 65 103 66 105 204 104 66 105 203 106 203 106 66 105 67 107 203 106 67 107 202 108 202 108 67 107 68 109 202 108 68 109 201 110 201 110 68 109 69 111 201 110 69 111 200 112 200 112 69 111 70 113 200 112 70 113 199 114 199 114 70 113 71 115 199 114 71 115 198 116 198 116 71 115 72 117 198 116 72 117 197 118 197 118 72 117 73 119 197 118 73 119 196 120 196 120 73 119 74 121 196 120 74 121 195 122 195 122 74 121 75 123 195 122 75 123 194 124 194 124 75 123 76 125 194 124 76 125 193 126 193 126 76 125 77 127 193 126 77 127 192 128 192 128 77 127 191 129 191 129 77 127 78 130 191 129 78 130 190 131 190 131 78 130 79 132 190 131 79 132 189 133 189 133 79 132 80 134 189 133 80 134 188 135 188 135 80 134 81 136 188 135 81 136 187 137 187 137 81 136 82 138 187 137 82 138 186 139 186 139 82 138 83 140 186 139 83 140 185 141 185 141 83 140 84 142 185 141 84 142 184 143 184 143 84 142 85 144 184 143 85 144 183 145 183 145 85 144 86 146 183 145 86 146 182 147 182 147 86 146 87 148 182 147 87 148 181 149 181 149 87 148 88 150 181 149 88 150 180 151 180 151 88 150 89 152 180 151 89 152 179 153 179 153 89 152 90 154 179 153 90 154 178 155 178 155 90 154 91 156 178 155 91 156 177 157 177 157 91 156 92 158 177 157 92 158 176 159 176 159 92 158 93 160 176 159 93 160 175 161 175 161 93 160 94 162 175 161 94 162 174 163 174 163 94 162 95 164 174 163 95 164 173 165 173 165 95 164 96 166 173 165 96 166 172 167 172 167 96 166 171 168 171 168 96 166 97 169 171 168 97 169 170 170 170 170 97 169 98 171 170 170 98 171 169 172 169 172 98 171 99 173 169 172 99 173 168 174 168 174 99 173 100 175 168 174 100 175 167 176 167 176 100 175 101 177 167 176 101 177 166 178 166 178 101 177 102 179 166 178 102 179 165 180 165 180 102 179 103 181 165 180 103 181 164 182 164 182 103 181 104 183 164 182 104 183 163 184 163 184 104 183 105 185 163 184 105 185 162 186 162 186 105 185 106 187 162 186 106 187 161 188 161 188 106 187 107 189 161 188 107 189 160 190 160 190 107 189 108 191 160 190 108 191 159 192 159 192 108 191 109 193 159 192 109 193 158 194 158 194 109 193 110 195 158 194 110 195 157 196 157 196 110 195 111 197 157 196 111 197 156 198 156 198 111 197 112 199 156 198 112 199 155 200 155 200 112 199 113 201 155 200 113 201 154 202 154 202 113 201 114 203 154 202 114 203 153 204 153 204 114 203 152 205 152 205 114 203 115 206 152 205 115 206 151 207 151 207 115 206 116 208 151 207 116 208 150 209 150 209 116 208 117 210 150 209 117 210 149 211 149 211 117 210 118 212 149 211 118 212 148 213 148 213 118 212 119 214 148 213 119 214 147 215 147 215 119 214 120 216 147 215 120 216 146 217 146 217 120 216 121 218 146 217 121 218 145 219 145 219 121 218 122 220 145 219 122 220 144 221 144 221 122 220 123 222 144 221 123 222 143 223 143 223 123 222 124 224 143 223 124 224 142 225 142 225 124 224 125 226 142 225 125 226 141 227 141 227 125 226 126 228 141 227 126 228 140 229 140 229 126 228 127 230 140 229 127 230 139 231 139 231 127 230 128 232 139 231 128 232 138 233 138 233 128 232 129 234 138 233 129 234 137 235 137 235 129 234 130 236 137 235 130 236 136 237 136 237 130 236 131 238 136 237 131 238 135 239 135 239 131 238 132 240 135 239 132 240 134 91 134 91 132 240 58 89 30 241 29 242 58 243 58 243 29 242 57 244 58 243 57 244 56 245 58 243 56 245 59 246 59 246 56 245 55 247 59 246 55 247 54 248 54 248 53 249 59 246 59 246 53 249 52 250 59 246 52 250 51 251 50 252 77 253 51 251 51 251 77 253 76 254 51 251 76 254 75 255 49 256 80 257 50 252 50 252 80 257 79 258 50 252 79 258 78 259 48 260 83 261 49 256 49 256 83 261 82 262 49 256 82 262 81 263 47 264 85 265 48 260 48 260 85 265 84 266 48 260 84 266 83 261 46 267 88 268 47 264 47 264 88 268 87 269 47 264 87 269 86 270 45 271 90 272 46 267 46 267 90 272 89 273 46 267 89 273 88 268 44 274 93 275 45 271 45 271 93 275 92 276 45 271 92 276 91 277 43 278 96 279 44 274 44 274 96 279 95 280 44 274 95 280 94 281 42 282 98 283 43 278 43 278 98 283 97 284 43 278 97 284 96 279 41 285 101 286 42 282 42 282 101 286 100 287 42 282 100 287 99 288 40 289 103 290 41 285 41 285 103 290 102 291 41 285 102 291 101 286 103 290 40 289 104 292 104 292 40 289 39 293 104 292 39 293 38 294 38 294 37 295 104 292 104 292 37 295 36 296 104 292 36 296 125 297 125 297 36 296 126 298 126 298 36 296 127 299 127 299 36 296 128 300 128 300 36 296 129 301 129 301 36 296 130 302 130 302 36 296 131 303 131 303 36 296 35 304 131 303 35 304 34 305 34 305 33 306 131 303 131 303 33 306 32 307 131 303 32 307 132 308 132 308 32 307 31 309 132 308 31 309 30 241 132 308 30 241 58 243 125 297 124 310 104 292 104 292 124 310 105 311 105 311 124 310 123 312 105 311 123 312 106 313 106 313 123 312 122 314 106 313 122 314 107 315 107 315 122 314 121 316 107 315 121 316 108 317 108 317 121 316 120 318 108 317 120 318 109 319 109 319 120 318 119 320 109 319 119 320 110 321 110 321 119 320 118 322 110 321 118 322 111 323 111 323 118 322 117 324 111 323 117 324 112 325 112 325 117 324 116 326 112 325 116 326 113 327 113 327 116 326 115 328 113 327 115 328 114 329 99 288 98 283 42 282 94 281 93 275 44 274 91 277 90 272 45 271 86 270 85 265 47 264 81 263 80 257 49 256 78 259 77 253 50 252 75 255 74 330 51 251 51 251 74 330 73 331 51 251 73 331 72 332 72 332 71 333 51 251 51 251 71 333 70 334 51 251 70 334 69 335 69 335 68 336 51 251 51 251 68 336 67 337 51 251 67 337 66 338 66 338 65 339 51 251 51 251 65 339 64 340 51 251 64 340 63 341 63 341 62 342 51 251 51 251 62 342 61 343 51 251 61 343 60 344 60 344 59 246 51 251 212 345 213 346 216 347 216 347 213 346 215 348 215 348 213 346 214 349 218 350 219 351 217 352 217 352 219 351 220 353 217 352 220 353 221 354 215 355 214 356 235 357 235 357 214 356 222 358 235 357 222 358 223 359 235 357 223 359 234 360 234 360 223 359 224 361 234 360 224 361 233 362 233 362 224 361 225 363 233 362 225 363 232 364 232 364 225 363 226 365 232 364 226 365 231 366 231 366 226 365 227 367 231 366 227 367 230 368 230 368 227 367 228 369 230 368 228 369 229 370 229 370 228 369 220 371 220 371 228 369 221 372 216 373 215 374 242 375 242 375 215 374 235 376 242 375 235 376 241 377 241 377 235 376 234 378 241 377 234 378 240 379 240 379 234 378 233 380 240 379 233 380 239 381 239 381 233 380 232 382 239 381 232 382 238 383 238 383 232 382 231 384 238 383 231 384 237 385 237 385 231 384 230 386 237 385 230 386 236 387 236 387 230 386 229 388 236 387 229 388 219 389 219 389 229 388 220 390 212 391 243 392 213 393 213 393 243 392 425 394 425 394 243 392 244 395 425 394 244 395 424 396 424 396 244 395 245 397 424 396 245 397 423 398 423 398 245 397 246 399 423 398 246 399 422 400 422 400 246 399 247 401 422 400 247 401 248 402 422 400 248 402 421 403 421 403 248 402 249 404 421 403 249 404 250 405 421 403 250 405 420 406 420 406 250 405 251 407 420 406 251 407 419 408 419 408 251 407 252 409 419 408 252 409 418 410 418 410 252 409 253 411 418 410 253 411 417 412 417 412 253 411 254 413 417 412 254 413 416 414 416 414 254 413 255 415 416 414 255 415 256 416 256 416 257 417 416 414 416 414 257 417 415 418 415 418 257 417 258 419 415 418 258 419 259 420 415 418 259 420 414 421 414 421 259 420 260 422 414 421 260 422 413 423 413 423 260 422 261 424 413 423 261 424 412 425 412 425 261 424 262 426 412 425 262 426 411 427 411 427 262 426 263 428 411 427 263 428 410 429 410 429 263 428 264 430 410 429 264 430 409 431 409 431 264 430 265 432 409 431 265 432 408 433 408 433 265 432 266 434 408 433 266 434 407 435 407 435 266 434 267 436 407 435 267 436 406 437 406 437 267 436 268 438 406 437 268 438 405 439 405 439 268 438 269 440 405 439 269 440 404 441 404 441 269 440 270 442 404 441 270 442 403 443 403 443 270 442 271 444 403 443 271 444 402 445 402 445 271 444 272 446 402 445 272 446 273 447 402 445 273 447 401 448 401 448 273 447 274 449 401 448 274 449 400 450 400 450 274 449 275 451 400 450 275 451 276 452 400 450 276 452 399 453 399 453 276 452 277 454 399 453 277 454 278 455 399 453 278 455 398 456 398 456 278 455 279 457 398 456 279 457 397 458 397 458 279 457 280 459 397 458 280 459 396 460 396 460 280 459 281 461 396 460 281 461 395 462 395 462 281 461 282 463 395 462 282 463 394 464 394 464 282 463 283 465 394 464 283 465 284 466 394 464 284 466 393 467 393 467 284 466 285 468 393 467 285 468 286 469 286 469 287 470 393 467 393 467 287 470 392 471 392 471 287 470 288 472 392 471 288 472 391 473 391 473 288 472 289 474 391 473 289 474 390 475 390 475 289 474 290 476 390 475 290 476 389 477 389 477 290 476 291 478 389 477 291 478 388 479 388 479 291 478 292 480 388 479 292 480 387 481 387 481 292 480 293 482 387 481 293 482 386 483 386 483 293 482 294 484 386 483 294 484 385 485 385 485 294 484 295 486 385 485 295 486 384 487 384 487 295 486 296 488 384 487 296 488 383 489 383 489 296 488 297 490 383 489 297 490 382 491 382 491 297 490 298 492 382 491 298 492 381 493 381 493 298 492 299 494 381 493 299 494 380 495 380 495 299 494 300 496 380 495 300 496 379 497 379 497 300 496 301 498 379 497 301 498 378 499 378 499 301 498 302 500 378 499 302 500 303 501 303 501 304 502 378 499 378 499 304 502 377 503 377 503 304 502 305 504 377 503 305 504 306 505 377 503 306 505 376 506 376 506 306 505 307 507 376 506 307 507 375 508 375 508 307 507 308 509 375 508 308 509 374 510 374 510 308 509 309 511 374 510 309 511 373 512 373 512 309 511 310 513 373 512 310 513 372 514 372 514 310 513 311 515 372 514 311 515 312 516 372 514 312 516 371 517 371 517 312 516 313 518 371 517 313 518 314 519 371 517 314 519 370 520 370 520 314 519 315 521 370 520 315 521 369 522 369 522 315 521 316 523 369 522 316 523 317 524 369 522 317 524 368 525 368 525 317 524 318 526 368 525 318 526 367 527 367 527 318 526 319 528 367 527 319 528 366 529 366 529 319 528 320 530 366 529 320 530 365 531 365 531 320 530 321 532 365 531 321 532 364 533 364 533 321 532 322 534 364 533 322 534 363 535 363 535 322 534 323 536 363 535 323 536 362 537 362 537 323 536 324 538 362 537 324 538 361 539 361 539 324 538 325 540 361 539 325 540 360 541 360 541 325 540 326 542 360 541 326 542 359 543 359 543 326 542 327 544 359 543 327 544 358 545 358 545 327 544 328 546 358 545 328 546 357 547 357 547 328 546 329 548 357 547 329 548 356 549 356 549 329 548 330 550 356 549 330 550 331 551 356 549 331 551 355 552 355 552 331 551 332 553 355 552 332 553 333 554 333 554 334 555 355 552 355 552 334 555 354 556 354 556 334 555 335 557 354 556 335 557 353 558 353 558 335 557 336 559 353 558 336 559 352 560 352 560 336 559 337 561 352 560 337 561 351 562 351 562 337 561 338 563 351 562 338 563 350 564 350 564 338 563 339 565 350 564 339 565 340 566 350 564 340 566 349 567 349 567 340 566 341 568 349 567 341 568 342 569 349 567 342 569 348 570 348 570 342 569 343 571 348 570 343 571 347 572 347 572 343 571 344 573 347 572 344 573 346 574 346 574 344 573 345 575 346 574 345 575 217 576 217 576 345 575 218 577 243 578 212 579 438 580 438 580 212 579 216 581 438 580 216 581 437 582 437 582 216 581 242 583 437 582 242 583 436 584 436 584 242 583 241 585 436 584 241 585 435 586 435 586 241 585 240 587 435 586 240 587 434 588 434 588 240 587 239 589 434 588 239 589 238 590 434 588 238 590 433 591 433 591 238 590 237 592 433 591 237 592 432 593 432 593 237 592 236 594 432 593 236 594 431 595 431 595 236 594 219 596 431 595 219 596 430 597 430 597 219 596 218 598 430 597 218 598 345 599 430 597 345 599 429 600 429 600 345 599 344 601 429 600 344 601 428 602 428 602 344 601 343 603 428 602 343 603 427 604 427 604 343 603 342 605 427 604 342 605 426 606 438 580 439 607 243 578 243 578 439 607 244 608 244 608 439 607 440 609 244 608 440 609 245 610 245 610 440 609 441 611 245 610 441 611 246 612 246 612 441 611 442 613 443 614 444 615 446 616 446 616 444 615 445 617 444 618 447 619 445 620 445 620 447 619 448 621 447 622 449 623 448 624 448 624 449 623 450 625 449 626 451 627 450 628 450 628 451 627 452 629 451 630 453 631 452 632 452 632 453 631 454 633 453 634 443 635 454 636 454 636 443 635 446 637 446 638 445 639 454 640 454 640 445 639 452 641 452 641 445 639 448 642 452 641 448 642 450 643 305 644 304 645 456 646 456 646 304 645 455 647 455 647 304 645 303 648 455 647 303 648 302 649 455 650 457 651 456 652 456 652 457 651 458 653 305 654 456 655 459 656 459 656 456 655 458 657 305 658 459 659 306 660 306 660 459 659 460 661 306 660 460 661 307 662 307 662 460 661 461 663 307 662 461 663 308 664 308 664 461 663 462 665 308 664 462 665 309 666 309 666 462 665 463 667 309 666 463 667 310 668 310 668 463 667 464 669 310 668 464 669 311 670 311 670 464 669 465 671 443 672 458 673 444 674 444 674 458 673 466 675 444 674 466 675 447 676 447 676 466 675 449 677 449 677 466 675 473 678 449 677 473 678 474 679 453 680 461 681 443 672 443 672 461 681 460 682 443 672 460 682 459 683 451 684 474 679 453 680 453 680 474 679 475 685 453 680 475 685 462 686 462 686 475 685 463 687 463 687 475 685 470 688 463 687 470 688 464 689 464 689 470 688 465 690 465 690 470 688 469 691 469 691 470 688 471 692 469 691 471 692 467 693 467 693 471 692 472 694 467 693 472 694 473 678 451 684 449 677 474 679 459 683 458 673 443 672 458 673 457 695 466 675 466 675 467 693 473 678 467 693 468 696 469 691 462 686 461 681 453 680 471 697 470 698 477 699 477 699 470 698 476 700 472 701 471 702 478 703 478 703 471 702 477 704 473 705 472 706 479 707 479 707 472 706 478 708 474 709 473 710 480 711 480 711 473 710 479 712 475 713 474 714 481 715 481 715 474 714 480 716 470 717 475 718 476 719 476 719 475 718 481 720 481 721 480 722 476 723 476 723 480 722 477 724 477 724 480 722 479 725 477 724 479 725 478 726 311 727 465 728 482 729 482 729 465 728 469 730 314 731 313 732 483 733 483 733 313 732 312 734 483 733 312 734 482 735 482 735 312 734 311 736 468 737 483 738 469 739 469 739 483 738 482 740 314 741 484 742 315 743 315 743 484 742 485 744 315 743 485 744 316 745 316 745 485 744 486 746 316 745 486 746 317 747 317 747 486 746 487 748 317 747 487 748 318 749 318 749 487 748 488 750 318 749 488 750 319 751 319 751 488 750 489 752 319 751 489 752 320 753 320 753 489 752 490 754 320 753 490 754 321 755 321 755 490 754 491 756 321 755 491 756 322 757 322 757 491 756 492 758 322 757 492 758 323 759 323 759 492 758 493 760 323 759 493 760 324 761 324 761 493 760 494 762 324 761 494 762 325 763 325 763 494 762 495 764 325 763 495 764 326 765 326 765 495 764 496 766 326 765 496 766 327 767 327 767 496 766 497 768 327 767 497 768 328 769 328 769 497 768 498 770 328 769 498 770 329 771 329 771 498 770 499 772 329 771 499 772 330 773 330 773 499 772 500 774 457 775 501 776 466 777 466 777 501 776 502 778 501 779 457 780 503 781 503 781 457 780 455 782 503 781 455 782 302 783 467 784 504 785 468 786 468 786 504 785 505 787 505 788 484 789 468 790 468 790 484 789 483 791 483 791 484 789 314 792 502 793 504 794 466 795 466 795 504 794 467 796 506 797 507 798 509 799 509 799 507 798 508 800 507 801 510 802 508 803 508 803 510 802 511 804 510 805 512 806 511 807 511 807 512 806 513 808 512 809 514 810 513 811 513 811 514 810 515 812 514 813 516 814 515 815 515 815 516 814 517 816 516 817 506 818 517 819 517 819 506 818 509 820 509 821 508 822 517 823 517 823 508 822 515 824 515 824 508 822 511 825 515 824 511 825 513 826 277 827 276 828 519 829 519 829 276 828 518 830 518 830 276 828 275 831 518 830 275 831 274 832 518 833 520 834 519 835 519 835 520 834 521 836 277 837 519 838 522 839 522 839 519 838 521 840 277 841 522 842 278 843 278 843 522 842 523 844 278 843 523 844 279 845 279 845 523 844 524 846 279 845 524 846 280 847 280 847 524 846 525 848 280 847 525 848 281 849 281 849 525 848 526 850 281 849 526 850 282 851 282 851 526 850 527 852 282 851 527 852 283 853 283 853 527 852 528 854 506 855 521 856 507 857 507 857 521 856 529 858 507 857 529 858 510 859 510 859 529 858 512 860 512 860 529 858 536 861 512 860 536 861 537 862 516 863 524 864 506 855 506 855 524 864 523 865 506 855 523 865 522 866 514 867 537 862 516 863 516 863 537 862 538 868 516 863 538 868 525 869 525 869 538 868 526 870 526 870 538 868 533 871 526 870 533 871 527 872 527 872 533 871 528 873 528 873 533 871 532 874 532 874 533 871 534 875 532 874 534 875 530 876 530 876 534 875 535 877 530 876 535 877 536 861 514 867 512 860 537 862 522 866 521 856 506 855 521 856 520 878 529 858 529 858 530 876 536 861 530 876 531 879 532 874 525 869 524 864 516 863 534 880 533 881 540 882 540 882 533 881 539 883 535 884 534 885 541 886 541 886 534 885 540 887 536 888 535 889 542 890 542 890 535 889 541 891 537 892 536 893 543 894 543 894 536 893 542 895 538 896 537 897 544 898 544 898 537 897 543 899 533 900 538 901 539 902 539 902 538 901 544 903 544 904 543 905 539 906 539 906 543 905 540 907 540 907 543 905 542 908 540 907 542 908 541 909 283 910 528 911 545 912 545 912 528 911 532 913 286 914 285 915 546 916 546 916 285 915 284 917 546 916 284 917 545 918 545 918 284 917 283 919 531 920 546 921 532 922 532 922 546 921 545 923 503 924 302 925 562 926 562 926 302 925 301 927 562 926 301 927 561 928 561 928 301 927 300 929 561 928 300 929 560 930 560 930 300 929 299 931 560 930 299 931 559 932 559 932 299 931 298 933 559 932 298 933 558 934 558 934 298 933 297 935 558 934 297 935 557 936 557 936 297 935 296 937 557 936 296 937 556 938 556 938 296 937 295 939 556 938 295 939 555 940 555 940 295 939 294 941 555 940 294 941 554 942 554 942 294 941 293 943 554 942 293 943 553 944 553 944 293 943 292 945 553 944 292 945 552 946 552 946 292 945 291 947 552 946 291 947 551 948 551 948 291 947 290 949 551 948 290 949 550 950 550 950 290 949 289 951 550 950 289 951 549 952 549 952 289 951 288 953 549 952 288 953 548 954 548 954 288 953 287 955 548 954 287 955 547 956 547 956 287 955 286 957 520 958 563 959 529 960 529 960 563 959 564 961 563 962 520 963 565 964 565 964 520 963 518 965 565 964 518 965 274 966 530 967 566 968 531 969 531 969 566 968 567 970 567 971 547 972 531 973 531 973 547 972 546 974 546 974 547 972 286 975 564 976 566 977 529 978 529 978 566 977 530 979 568 980 569 981 571 982 571 982 569 981 570 983 569 984 572 985 570 986 570 986 572 985 573 987 572 988 574 989 573 990 573 990 574 989 575 991 574 992 576 993 575 994 575 994 576 993 577 995 576 996 578 997 577 998 577 998 578 997 579 999 578 1000 568 1001 579 1002 579 1002 568 1001 571 1003 571 1004 570 1005 579 1006 579 1006 570 1005 577 1007 577 1007 570 1005 573 1008 577 1007 573 1008 575 1009 249 1010 248 1011 581 1012 581 1012 248 1011 580 1013 580 1013 248 1011 247 1014 580 1013 247 1014 246 1015 580 1016 582 1017 581 1018 581 1018 582 1017 583 1019 249 1020 581 1021 584 1022 584 1022 581 1021 583 1023 249 1024 584 1025 250 1026 250 1026 584 1025 585 1027 250 1026 585 1027 251 1028 251 1028 585 1027 586 1029 251 1028 586 1029 252 1030 252 1030 586 1029 587 1031 252 1030 587 1031 253 1032 253 1032 587 1031 588 1033 253 1032 588 1033 254 1034 254 1034 588 1033 589 1035 254 1034 589 1035 255 1036 255 1036 589 1035 590 1037 568 1038 583 1039 569 1040 569 1040 583 1039 591 1041 569 1040 591 1041 572 1042 572 1042 591 1041 574 1043 574 1043 591 1041 598 1044 574 1043 598 1044 599 1045 578 1046 586 1047 568 1038 568 1038 586 1047 585 1048 568 1038 585 1048 584 1049 576 1050 599 1045 578 1046 578 1046 599 1045 600 1051 578 1046 600 1051 587 1052 587 1052 600 1051 588 1053 588 1053 600 1051 595 1054 588 1053 595 1054 589 1055 589 1055 595 1054 590 1056 590 1056 595 1054 594 1057 594 1057 595 1054 596 1058 594 1057 596 1058 592 1059 592 1059 596 1058 597 1060 592 1059 597 1060 598 1044 576 1050 574 1043 599 1045 584 1049 583 1039 568 1038 583 1039 582 1061 591 1041 591 1041 592 1059 598 1044 592 1059 593 1062 594 1057 587 1052 586 1047 578 1046 596 1063 595 1064 602 1065 602 1065 595 1064 601 1066 597 1067 596 1068 603 1069 603 1069 596 1068 602 1070 598 1071 597 1072 604 1073 604 1073 597 1072 603 1074 599 1075 598 1076 605 1077 605 1077 598 1076 604 1078 600 1079 599 1080 606 1081 606 1081 599 1080 605 1082 595 1083 600 1084 601 1085 601 1085 600 1084 606 1086 606 1087 605 1088 601 1089 601 1089 605 1088 602 1090 602 1090 605 1088 604 1091 602 1090 604 1091 603 1092 255 1093 590 1094 607 1095 607 1095 590 1094 594 1096 258 1097 257 1098 608 1099 608 1099 257 1098 256 1100 608 1099 256 1100 607 1101 607 1101 256 1100 255 1102 593 1103 608 1104 594 1105 594 1105 608 1104 607 1106 565 1107 274 1108 624 1109 624 1109 274 1108 273 1110 624 1109 273 1110 623 1111 623 1111 273 1110 272 1112 623 1111 272 1112 622 1113 622 1113 272 1112 271 1114 622 1113 271 1114 621 1115 621 1115 271 1114 270 1116 621 1115 270 1116 620 1117 620 1117 270 1116 269 1118 620 1117 269 1118 619 1119 619 1119 269 1118 268 1120 619 1119 268 1120 618 1121 618 1121 268 1120 267 1122 618 1121 267 1122 617 1123 617 1123 267 1122 266 1124 617 1123 266 1124 616 1125 616 1125 266 1124 265 1126 616 1125 265 1126 615 1127 615 1127 265 1126 264 1128 615 1127 264 1128 614 1129 614 1129 264 1128 263 1130 614 1129 263 1130 613 1131 613 1131 263 1130 262 1132 613 1131 262 1132 612 1133 612 1133 262 1132 261 1134 612 1133 261 1134 611 1135 611 1135 261 1134 260 1136 611 1135 260 1136 610 1137 610 1137 260 1136 259 1138 610 1137 259 1138 609 1139 609 1139 259 1138 258 1140 582 1141 625 1142 591 1143 591 1143 625 1142 626 1144 625 1145 582 1146 442 1147 442 1147 582 1146 580 1148 442 1147 580 1148 246 1149 592 1150 627 1151 593 1152 593 1152 627 1151 628 1153 628 1154 609 1155 593 1156 593 1156 609 1155 608 1157 608 1157 609 1155 258 1158 626 1159 627 1160 591 1161 591 1161 627 1160 592 1162 629 1163 630 1164 632 1165 632 1165 630 1164 631 1166 630 1167 633 1168 631 1169 631 1169 633 1168 634 1170 633 1171 635 1172 634 1173 634 1173 635 1172 636 1174 635 1175 637 1176 636 1177 636 1177 637 1176 638 1178 637 1179 639 1180 638 1181 638 1181 639 1180 640 1182 639 1183 629 1184 640 1185 640 1185 629 1184 632 1186 632 1187 631 1188 640 1189 640 1189 631 1188 638 1190 638 1190 631 1188 634 1191 638 1190 634 1191 636 1192 333 1193 332 1194 642 1195 642 1195 332 1194 641 1196 641 1196 332 1194 331 1197 641 1196 331 1197 330 1198 641 1199 643 1200 642 1201 642 1201 643 1200 644 1202 333 1203 642 1204 645 1205 645 1205 642 1204 644 1206 333 1207 645 1208 334 1209 334 1209 645 1208 646 1210 334 1209 646 1210 335 1211 335 1211 646 1210 647 1212 335 1211 647 1212 336 1213 336 1213 647 1212 648 1214 336 1213 648 1214 337 1215 337 1215 648 1214 649 1216 337 1215 649 1216 338 1217 338 1217 649 1216 650 1218 338 1217 650 1218 339 1219 339 1219 650 1218 651 1220 629 1221 644 1222 630 1223 630 1223 644 1222 652 1224 630 1223 652 1224 633 1225 633 1225 652 1224 635 1226 635 1226 652 1224 659 1227 635 1226 659 1227 660 1228 639 1229 647 1230 629 1221 629 1221 647 1230 646 1231 629 1221 646 1231 645 1232 637 1233 660 1228 639 1229 639 1229 660 1228 661 1234 639 1229 661 1234 648 1235 648 1235 661 1234 649 1236 649 1236 661 1234 656 1237 649 1236 656 1237 650 1238 650 1238 656 1237 651 1239 651 1239 656 1237 655 1240 655 1240 656 1237 657 1241 655 1240 657 1241 653 1242 653 1242 657 1241 658 1243 653 1242 658 1243 659 1227 637 1233 635 1226 660 1228 645 1232 644 1222 629 1221 644 1222 643 1244 652 1224 652 1224 653 1242 659 1227 653 1242 654 1245 655 1240 648 1235 647 1230 639 1229 657 1246 656 1247 663 1248 663 1248 656 1247 662 1249 658 1250 657 1251 664 1252 664 1252 657 1251 663 1253 659 1254 658 1255 665 1256 665 1256 658 1255 664 1257 660 1258 659 1259 666 1260 666 1260 659 1259 665 1261 661 1262 660 1263 667 1264 667 1264 660 1263 666 1265 656 1266 661 1267 662 1268 662 1268 661 1267 667 1269 667 1270 666 1271 662 1272 662 1272 666 1271 663 1273 663 1273 666 1271 665 1274 663 1273 665 1274 664 1275 339 1276 651 1277 668 1278 668 1278 651 1277 655 1279 342 1280 341 1281 669 1282 669 1282 341 1281 340 1283 669 1282 340 1283 668 1284 668 1284 340 1283 339 1285 654 1286 669 1287 655 1288 655 1288 669 1287 668 1289 643 1290 670 1291 652 1292 652 1292 670 1291 671 1293 670 1294 643 1295 500 1296 500 1296 643 1295 641 1297 500 1296 641 1297 330 1298 653 1299 672 1300 654 1301 654 1301 672 1300 673 1302 673 1303 426 1304 654 1305 654 1305 426 1304 669 1306 669 1306 426 1304 342 1307 671 1308 672 1309 652 1310 652 1310 672 1309 653 1311 211 1312 397 1313 133 1314 133 1314 397 1313 396 1315 133 1314 396 1315 134 1316 134 1316 396 1315 395 1317 134 1316 395 1317 135 1318 135 1318 395 1317 394 1319 135 1318 394 1319 136 1320 136 1320 394 1319 393 1321 136 1320 393 1321 137 1322 137 1322 393 1321 392 1323 137 1322 392 1323 138 1324 138 1324 392 1323 391 1325 138 1324 391 1325 390 1326 397 1313 211 1312 398 1327 398 1327 211 1312 210 1328 398 1327 210 1328 399 1329 399 1329 210 1328 209 1330 399 1329 209 1330 400 1331 400 1331 209 1330 208 1332 400 1331 208 1332 401 1333 401 1333 208 1332 402 1334 402 1334 208 1332 207 1335 402 1334 207 1335 403 1336 403 1336 207 1335 206 1337 403 1336 206 1337 404 1338 404 1338 206 1337 205 1339 404 1338 205 1339 405 1340 405 1340 205 1339 204 1341 405 1340 204 1341 406 1342 406 1342 204 1341 203 1343 406 1342 203 1343 407 1344 407 1344 203 1343 202 1345 407 1344 202 1345 408 1346 408 1346 202 1345 201 1347 408 1346 201 1347 409 1348 409 1348 201 1347 200 1349 409 1348 200 1349 410 1350 410 1350 200 1349 411 1351 411 1351 200 1349 199 1352 411 1351 199 1352 412 1353 412 1353 199 1352 198 1354 412 1353 198 1354 413 1355 413 1355 198 1354 197 1356 413 1355 197 1356 414 1357 414 1357 197 1356 196 1358 414 1357 196 1358 415 1359 415 1359 196 1358 195 1360 415 1359 195 1360 416 1361 416 1361 195 1360 194 1362 416 1361 194 1362 417 1363 417 1363 194 1362 193 1364 417 1363 193 1364 418 1365 418 1365 193 1364 192 1366 418 1365 192 1366 419 1367 419 1367 192 1366 191 1368 419 1367 191 1368 420 1369 420 1369 191 1368 421 1370 421 1370 191 1368 190 1371 421 1370 190 1371 422 1372 422 1372 190 1371 189 1373 422 1372 189 1373 423 1374 423 1374 189 1373 188 1375 423 1374 188 1375 424 1376 424 1376 188 1375 187 1377 424 1376 187 1377 425 1378 425 1378 187 1377 214 1379 425 1378 214 1379 213 1380 187 1377 186 1381 214 1379 214 1379 186 1381 185 1382 214 1379 185 1382 222 1383 222 1383 185 1382 184 1384 222 1383 184 1384 223 1385 223 1385 184 1384 224 1386 224 1386 184 1384 183 1387 224 1386 183 1387 225 1388 225 1388 183 1387 182 1389 225 1388 182 1389 226 1390 226 1390 182 1389 181 1391 226 1390 181 1391 227 1392 227 1392 181 1391 180 1393 227 1392 180 1393 228 1394 228 1394 180 1393 179 1395 228 1394 179 1395 221 1396 221 1396 179 1395 178 1397 221 1396 178 1397 346 1398 346 1398 178 1397 347 1399 347 1399 178 1397 177 1400 347 1399 177 1400 348 1401 348 1401 177 1400 176 1402 348 1401 176 1402 349 1403 349 1403 176 1402 175 1404 349 1403 175 1404 350 1405 350 1405 175 1404 174 1406 350 1405 174 1406 351 1407 351 1407 174 1406 173 1408 351 1407 173 1408 352 1409 352 1409 173 1408 172 1410 352 1409 172 1410 353 1411 353 1411 172 1410 171 1412 353 1411 171 1412 354 1413 354 1413 171 1412 355 1414 355 1414 171 1412 170 1415 355 1414 170 1415 356 1416 356 1416 170 1415 169 1417 356 1416 169 1417 357 1418 357 1418 169 1417 168 1419 357 1418 168 1419 358 1420 358 1420 168 1419 167 1421 358 1420 167 1421 359 1422 359 1422 167 1421 166 1423 359 1422 166 1423 360 1424 360 1424 166 1423 165 1425 360 1424 165 1425 361 1426 361 1426 165 1425 164 1427 361 1426 164 1427 362 1428 362 1428 164 1427 163 1429 362 1428 163 1429 363 1430 363 1430 163 1429 364 1431 364 1431 163 1429 162 1432 364 1431 162 1432 365 1433 365 1433 162 1432 161 1434 365 1433 161 1434 366 1435 366 1435 161 1434 160 1436 366 1435 160 1436 367 1437 367 1437 160 1436 159 1438 367 1437 159 1438 368 1439 368 1439 159 1438 158 1440 368 1439 158 1440 369 1441 369 1441 158 1440 157 1442 369 1441 157 1442 370 1443 370 1443 157 1442 156 1444 370 1443 156 1444 371 1445 371 1445 156 1444 155 1446 371 1445 155 1446 372 1447 372 1447 155 1446 154 1448 372 1447 154 1448 373 1449 373 1449 154 1448 374 1450 374 1450 154 1448 153 1451 374 1450 153 1451 375 1452 375 1452 153 1451 152 1453 375 1452 152 1453 376 1454 376 1454 152 1453 151 1455 376 1454 151 1455 377 1456 377 1456 151 1455 150 1457 377 1456 150 1457 378 1458 378 1458 150 1457 149 1459 378 1458 149 1459 379 1460 379 1460 149 1459 148 1461 379 1460 148 1461 380 1462 380 1462 148 1461 147 1463 380 1462 147 1463 381 1464 381 1464 147 1463 146 1465 381 1464 146 1465 382 1466 382 1466 146 1465 383 1467 383 1467 146 1465 145 1468 383 1467 145 1468 384 1469 384 1469 145 1468 144 1470 384 1469 144 1470 385 1471 385 1471 144 1470 143 1472 385 1471 143 1472 386 1473 386 1473 143 1472 142 1474 386 1473 142 1474 387 1475 387 1475 142 1474 141 1476 387 1475 141 1476 388 1477 388 1477 141 1476 140 1478 388 1477 140 1478 389 1479 389 1479 140 1478 139 1480 389 1479 139 1480 390 1326 390 1326 139 1480 138 1324 346 1398 217 1481 221 1396 501 1482 503 1483 502 1484 502 1484 503 1483 484 1485 502 1484 484 1485 504 1486 504 1486 484 1485 505 1487 484 1485 503 1483 485 1488 485 1488 503 1483 562 1489 485 1488 562 1489 486 1490 486 1490 562 1489 561 1491 486 1490 561 1491 487 1492 487 1492 561 1491 560 1493 487 1492 560 1493 488 1494 488 1494 560 1493 559 1495 488 1494 559 1495 489 1496 489 1496 559 1495 558 1497 489 1496 558 1497 490 1498 490 1498 558 1497 557 1499 490 1498 557 1499 491 1500 491 1500 557 1499 556 1501 491 1500 556 1501 492 1502 492 1502 556 1501 555 1503 492 1502 555 1503 493 1504 493 1504 555 1503 554 1505 493 1504 554 1505 494 1506 494 1506 554 1505 553 1507 494 1506 553 1507 495 1508 495 1508 553 1507 552 1509 495 1508 552 1509 496 1510 496 1510 552 1509 551 1511 496 1510 551 1511 497 1512 497 1512 551 1511 550 1513 497 1512 550 1513 498 1514 498 1514 550 1513 549 1515 498 1514 549 1515 499 1516 499 1516 549 1515 548 1517 499 1516 548 1517 500 1518 500 1518 548 1517 426 1519 500 1518 426 1519 672 1520 672 1520 426 1519 673 1521 548 1517 547 1522 426 1519 426 1519 547 1522 427 1523 427 1523 547 1522 565 1524 427 1523 565 1524 624 1525 567 1526 566 1527 547 1522 547 1522 566 1527 564 1528 547 1522 564 1528 565 1524 565 1524 564 1528 563 1529 427 1523 624 1525 428 1530 428 1530 624 1525 623 1531 428 1530 623 1531 429 1532 429 1532 623 1531 622 1533 429 1532 622 1533 430 1534 430 1534 622 1533 621 1535 430 1534 621 1535 431 1536 431 1536 621 1535 620 1537 431 1536 620 1537 432 1538 432 1538 620 1537 619 1539 432 1538 619 1539 433 1540 433 1540 619 1539 618 1541 433 1540 618 1541 434 1542 434 1542 618 1541 617 1543 434 1542 617 1543 435 1544 435 1544 617 1543 616 1545 435 1544 616 1545 436 1546 436 1546 616 1545 615 1547 436 1546 615 1547 437 1548 437 1548 615 1547 614 1549 437 1548 614 1549 438 1550 438 1550 614 1549 613 1551 438 1550 613 1551 439 1552 439 1552 613 1551 612 1553 439 1552 612 1553 440 1554 440 1554 612 1553 611 1555 440 1554 611 1555 441 1556 441 1556 611 1555 610 1557 441 1556 610 1557 442 1558 442 1558 610 1557 609 1559 442 1558 609 1559 627 1560 627 1560 609 1559 628 1561 627 1560 626 1562 442 1558 442 1558 626 1562 625 1563 672 1520 671 1564 500 1518 500 1518 671 1564 670 1565</p>
        </triangles>
      </mesh>
    </geometry>
  </library_geometries>
  <library_visual_scenes>
    <visual_scene id="Scene" name="Scene">
      <node id="base_link-node" name="base_link" type="NODE">
        <instance_geometry url="#base_link-mesh">
          <bind_material>
            <technique_common>
              <instance_material symbol="ABS__White_" target="#ABS__White_"/>
            </technique_common>
          </bind_material>
        </instance_geometry>
      </node>
    </visual_scene>
  </library_visual_scenes>
  <scene>
    <instance_visual_scene url="#Scene"/>
  </scene>
</COLLADA>
