<?xml version="1.0" encoding="utf-8"?>
<COLLADA xmlns="http://www.collada.org/2005/11/COLLADASchema" version="1.4.1">
  <asset>
    <contributor>
      <authoring_tool>Fusion URDF/XACRO Exporter</authoring_tool>
    </contributor>
    <created>2026-07-28T12:55:13Z</created>
    <modified>2026-07-28T12:55:13Z</modified>
    <unit name="meter" meter="1.0"/>
    <up_axis>Z_UP</up_axis>
  </asset>
  <library_effects>
    <effect id="ABS__White_-effect">
      <profile_COMMON>
        <technique sid="common">
          <lambert>
            <emission><color>0 0 0 1</color></emission>
            <ambient><color>0.0000 0.0000 0.0000 1</color></ambient>
            <diffuse><color>0.9647 0.9647 0.9529 1</color></diffuse>
            <reflective><color>0 0 0 1</color></reflective>
            <transparent opaque="A_ONE"><color>1 1 1 1</color></transparent>
            <transparency><float>1</float></transparency>
          </lambert>
        </technique>
      </profile_COMMON>
    </effect>
  </library_effects>
  <library_materials>
    <material id="ABS__White_" name="ABS_(White)">
      <instance_effect url="#ABS__White_-effect"/>
    </material>
  </library_materials>
  <library_geometries>
    <geometry id="JAW_8-mesh" name="JAW_8">
      <mesh>
        <source id="JAW_8-mesh-positions">
          <float_array id="JAW_8-mesh-positions-array" count="1905">0.685237 1.335401 0.555496 0.685237 1.335401 0.596816 0.686237 1.335401 0.596816 0.686237 1.335401 0.555496 0.685237 1.342923 0.555496 0.685237 1.342841 0.554714 0.685237 1.342598 0.553966 0.685237 1.342205 0.553285 0.685237 1.341679 0.552701 0.685237 1.341042 0.552239 0.685237 1.340324 0.551919 0.685237 1.339555 0.551755 0.685237 1.338769 0.551755 0.685237 1.338000 0.551919 0.685237 1.337281 0.552239 0.685237 1.336645 0.552701 0.685237 1.336119 0.553285 0.685237 1.335726 0.553966 0.685237 1.335483 0.554714 0.686237 1.335483 0.554714 0.686237 1.335726 0.553966 0.686237 1.336119 0.553285 0.686237 1.336645 0.552701 0.686237 1.337281 0.552239 0.686237 1.338000 0.551919 0.686237 1.338769 0.551755 0.686237 1.339555 0.551755 0.686237 1.340324 0.551919 0.686237 1.341042 0.552239 0.686237 1.341679 0.552701 0.686237 1.342205 0.553285 0.686237 1.342598 0.553966 0.686237 1.342841 0.554714 0.686237 1.342923 0.555496 0.685237 1.342923 0.596816 0.686237 1.342923 0.596816 0.685237 1.335483 0.597598 0.685237 1.335726 0.598345 0.685237 1.336119 0.599026 0.685237 1.336645 0.599611 0.685237 1.337281 0.600073 0.685237 1.338000 0.600393 0.685237 1.338769 0.600556 0.685237 1.339555 0.600556 0.685237 1.340324 0.600393 0.685237 1.341042 0.600073 0.685237 1.341679 0.599611 0.685237 1.342205 0.599026 0.685237 1.342598 0.598345 0.685237 1.342841 0.597598 0.686237 1.342841 0.597598 0.686237 1.342598 0.598345 0.686237 1.342205 0.599026 0.686237 1.341679 0.599611 0.686237 1.341042 0.600073 0.686237 1.340324 0.600393 0.686237 1.339555 0.600556 0.686237 1.338769 0.600556 0.686237 1.338000 0.600393 0.686237 1.337281 0.600073 0.686237 1.336645 0.599611 0.686237 1.336119 0.599026 0.686237 1.335726 0.598345 0.686237 1.335483 0.597598 0.684037 1.332884 0.534888 0.684037 1.332944 0.534435 0.684037 1.333118 0.534013 0.684037 1.333396 0.533650 0.684037 1.333759 0.533372 0.684037 1.334181 0.533197 0.684037 1.334634 0.533138 0.684037 1.335087 0.533197 0.684037 1.335509 0.533372 0.684037 1.335871 0.533650 0.684037 1.336149 0.534013 0.684037 1.336324 0.534435 0.684037 1.336384 0.534888 0.684037 1.336324 0.535341 0.684037 1.336149 0.535763 0.684037 1.335871 0.536125 0.684037 1.335509 0.536403 0.684037 1.335087 0.536578 0.684037 1.334634 0.536638 0.684037 1.334181 0.536578 0.684037 1.333759 0.536403 0.684037 1.333396 0.536125 0.684037 1.333118 0.535763 0.684037 1.332944 0.535341 0.685237 1.332884 0.534888 0.685237 1.332944 0.535341 0.685237 1.333118 0.535763 0.685237 1.333396 0.536125 0.685237 1.333759 0.536403 0.685237 1.334181 0.536578 0.685237 1.334634 0.536638 0.685237 1.335087 0.536578 0.685237 1.335509 0.536403 0.685237 1.335871 0.536125 0.685237 1.336149 0.535763 0.685237 1.336324 0.535341 0.685237 1.336384 0.534888 0.685237 1.336324 0.534435 0.685237 1.336149 0.534013 0.685237 1.335871 0.533650 0.685237 1.335509 0.533372 0.685237 1.335087 0.533197 0.685237 1.334634 0.533138 0.685237 1.334181 0.533197 0.685237 1.333759 0.533372 0.685237 1.333396 0.533650 0.685237 1.333118 0.534013 0.685237 1.332944 0.534435 0.684037 1.357378 0.548475 0.684037 1.357438 0.548023 0.684037 1.357613 0.547600 0.684037 1.357891 0.547238 0.684037 1.358253 0.546960 0.684037 1.358675 0.546785 0.684037 1.359128 0.546725 0.684037 1.359581 0.546785 0.684037 1.360003 0.546960 0.684037 1.360366 0.547238 0.684037 1.360644 0.547600 0.684037 1.360819 0.548023 0.684037 1.360878 0.548475 0.684037 1.360819 0.548928 0.684037 1.360644 0.549350 0.684037 1.360366 0.549713 0.684037 1.360003 0.549991 0.684037 1.359581 0.550166 0.684037 1.359128 0.550225 0.684037 1.358675 0.550166 0.684037 1.358253 0.549991 0.684037 1.357891 0.549713 0.684037 1.357613 0.549350 0.684037 1.357438 0.548928 0.685237 1.357378 0.548475 0.685237 1.357438 0.548928 0.685237 1.357613 0.549350 0.685237 1.357891 0.549713 0.685237 1.358253 0.549991 0.685237 1.358675 0.550166 0.685237 1.359128 0.550225 0.685237 1.359581 0.550166 0.685237 1.360003 0.549991 0.685237 1.360366 0.549713 0.685237 1.360644 0.549350 0.685237 1.360819 0.548928 0.685237 1.360878 0.548475 0.685237 1.360819 0.548023 0.685237 1.360644 0.547600 0.685237 1.360366 0.547238 0.685237 1.360003 0.546960 0.685237 1.359581 0.546785 0.685237 1.359128 0.546725 0.685237 1.358675 0.546785 0.685237 1.358253 0.546960 0.685237 1.357891 0.547238 0.685237 1.357613 0.547600 0.685237 1.357438 0.548023 0.703237 1.335401 0.596816 0.703237 1.335401 0.555496 0.702237 1.335401 0.555496 0.702237 1.335401 0.596816 0.703237 1.335483 0.554714 0.703237 1.335726 0.553966 0.703237 1.336119 0.553285 0.703237 1.336645 0.552701 0.703237 1.337281 0.552239 0.703237 1.338000 0.551919 0.703237 1.338769 0.551755 0.703237 1.339555 0.551755 0.703237 1.340324 0.551919 0.703237 1.341042 0.552239 0.703237 1.341679 0.552701 0.703237 1.342205 0.553285 0.703237 1.342598 0.553966 0.703237 1.342841 0.554714 0.703237 1.342923 0.555496 0.702237 1.342923 0.555496 0.702237 1.342841 0.554714 0.702237 1.342598 0.553966 0.702237 1.342205 0.553285 0.702237 1.341679 0.552701 0.702237 1.341042 0.552239 0.702237 1.340324 0.551919 0.702237 1.339555 0.551755 0.702237 1.338769 0.551755 0.702237 1.338000 0.551919 0.702237 1.337281 0.552239 0.702237 1.336645 0.552701 0.702237 1.336119 0.553285 0.702237 1.335726 0.553966 0.702237 1.335483 0.554714 0.703237 1.342923 0.596816 0.702237 1.342923 0.596816 0.703237 1.342841 0.597598 0.703237 1.342598 0.598345 0.703237 1.342205 0.599026 0.703237 1.341679 0.599611 0.703237 1.341042 0.600073 0.703237 1.340324 0.600393 0.703237 1.339555 0.600556 0.703237 1.338769 0.600556 0.703237 1.338000 0.600393 0.703237 1.337281 0.600073 0.703237 1.336645 0.599611 0.703237 1.336119 0.599026 0.703237 1.335726 0.598345 0.703237 1.335483 0.597598 0.702237 1.335483 0.597598 0.702237 1.335726 0.598345 0.702237 1.336119 0.599026 0.702237 1.336645 0.599611 0.702237 1.337281 0.600073 0.702237 1.338000 0.600393 0.702237 1.338769 0.600556 0.702237 1.339555 0.600556 0.702237 1.340324 0.600393 0.702237 1.341042 0.600073 0.702237 1.341679 0.599611 0.702237 1.342205 0.599026 0.702237 1.342598 0.598345 0.702237 1.342841 0.597598 0.704437 1.332884 0.534888 0.704437 1.332944 0.535341 0.704437 1.333118 0.535763 0.704437 1.333396 0.536125 0.704437 1.333759 0.536403 0.704437 1.334181 0.536578 0.704437 1.334634 0.536638 0.704437 1.335087 0.536578 0.704437 1.335509 0.536403 0.704437 1.335871 0.536125 0.704437 1.336149 0.535763 0.704437 1.336324 0.535341 0.704437 1.336384 0.534888 0.704437 1.336324 0.534435 0.704437 1.336149 0.534013 0.704437 1.335871 0.533650 0.704437 1.335509 0.533372 0.704437 1.335087 0.533197 0.704437 1.334634 0.533138 0.704437 1.334181 0.533197 0.704437 1.333759 0.533372 0.704437 1.333396 0.533650 0.704437 1.333118 0.534013 0.704437 1.332944 0.534435 0.703237 1.332884 0.534888 0.703237 1.332944 0.534435 0.703237 1.333118 0.534013 0.703237 1.333396 0.533650 0.703237 1.333759 0.533372 0.703237 1.334181 0.533197 0.703237 1.334634 0.533138 0.703237 1.335087 0.533197 0.703237 1.335509 0.533372 0.703237 1.335871 0.533650 0.703237 1.336149 0.534013 0.703237 1.336324 0.534435 0.703237 1.336384 0.534888 0.703237 1.336324 0.535341 0.703237 1.336149 0.535763 0.703237 1.335871 0.536125 0.703237 1.335509 0.536403 0.703237 1.335087 0.536578 0.703237 1.334634 0.536638 0.703237 1.334181 0.536578 0.703237 1.333759 0.536403 0.703237 1.333396 0.536125 0.703237 1.333118 0.535763 0.703237 1.332944 0.535341 0.704437 1.357378 0.548475 0.704437 1.357438 0.548928 0.704437 1.357613 0.549350 0.704437 1.357891 0.549713 0.704437 1.358253 0.549991 0.704437 1.358675 0.550166 0.704437 1.359128 0.550225 0.704437 1.359581 0.550166 0.704437 1.360003 0.549991 0.704437 1.360366 0.549713 0.704437 1.360644 0.549350 0.704437 1.360819 0.548928 0.704437 1.360878 0.548475 0.704437 1.360819 0.548023 0.704437 1.360644 0.547600 0.704437 1.360366 0.547238 0.704437 1.360003 0.546960 0.704437 1.359581 0.546785 0.704437 1.359128 0.546725 0.704437 1.358675 0.546785 0.704437 1.358253 0.546960 0.704437 1.357891 0.547238 0.704437 1.357613 0.547600 0.704437 1.357438 0.548023 0.703237 1.357378 0.548475 0.703237 1.357438 0.548023 0.703237 1.357613 0.547600 0.703237 1.357891 0.547238 0.703237 1.358253 0.546960 0.703237 1.358675 0.546785 0.703237 1.359128 0.546725 0.703237 1.359581 0.546785 0.703237 1.360003 0.546960 0.703237 1.360366 0.547238 0.703237 1.360644 0.547600 0.703237 1.360819 0.548023 0.703237 1.360878 0.548475 0.703237 1.360819 0.548928 0.703237 1.360644 0.549350 0.703237 1.360366 0.549713 0.703237 1.360003 0.549991 0.703237 1.359581 0.550166 0.703237 1.359128 0.550225 0.703237 1.358675 0.550166 0.703237 1.358253 0.549991 0.703237 1.357891 0.549713 0.703237 1.357613 0.549350 0.703237 1.357438 0.548928 0.691124 1.357195 0.494417 0.686225 1.357195 0.494417 0.685831 1.358150 0.491681 0.694129 1.349100 0.493334 0.686449 1.349100 0.493334 0.686533 1.348895 0.493921 0.695264 1.348895 0.493921 0.685831 1.351778 0.489458 0.686796 1.351346 0.489867 0.687789 1.350940 0.490300 0.689844 1.350207 0.491236 0.691967 1.349591 0.492252 0.696835 1.348611 0.494733 0.696835 1.355306 0.497069 0.690268 1.357195 0.493921 0.686650 1.355306 0.497069 0.686650 1.348611 0.494733 0.686288 1.349591 0.492252 0.686130 1.350207 0.491236 0.685977 1.350940 0.490300 0.686161 1.357195 0.493921 0.703237 1.357195 0.493921 0.703237 1.357195 0.518921 0.685237 1.357195 0.518921 0.685237 1.357195 0.493921 0.703237 1.348895 0.493921 0.703237 1.339010 0.522246 0.685237 1.339010 0.522246 0.685237 1.348895 0.493921 0.685237 1.330335 0.607276 0.685237 1.330386 0.607665 0.685237 1.330536 0.608026 0.685237 1.330774 0.608337 0.685237 1.331085 0.608575 0.685237 1.331447 0.608725 0.685237 1.331835 0.608776 0.685237 1.332223 0.608725 0.685237 1.332585 0.608575 0.685237 1.332896 0.608337 0.685237 1.333134 0.608026 0.685237 1.333284 0.607665 0.685237 1.333335 0.607276 0.685237 1.333284 0.606888 0.685237 1.333134 0.606526 0.685237 1.332896 0.606216 0.685237 1.332585 0.605977 0.685237 1.332223 0.605828 0.685237 1.331835 0.605776 0.685237 1.331447 0.605828 0.685237 1.331085 0.605977 0.685237 1.330774 0.606216 0.685237 1.330536 0.606526 0.685237 1.330386 0.606888 0.703237 1.330335 0.607276 0.703237 1.330386 0.606888 0.703237 1.330536 0.606526 0.703237 1.330774 0.606216 0.703237 1.331085 0.605977 0.703237 1.331447 0.605828 0.703237 1.331835 0.605776 0.703237 1.332223 0.605828 0.703237 1.332585 0.605977 0.703237 1.332896 0.606216 0.703237 1.333134 0.606526 0.703237 1.333284 0.606888 0.703237 1.333335 0.607276 0.703237 1.333284 0.607665 0.703237 1.333134 0.608026 0.703237 1.332896 0.608337 0.703237 1.332585 0.608575 0.703237 1.332223 0.608725 0.703237 1.331835 0.608776 0.703237 1.331447 0.608725 0.703237 1.331085 0.608575 0.703237 1.330774 0.608337 0.703237 1.330536 0.608026 0.703237 1.330386 0.607665 0.691237 1.330335 0.607276 0.697237 1.330335 0.607276 0.691237 1.330386 0.607665 0.697237 1.330386 0.607665 0.691237 1.330536 0.608026 0.697237 1.330536 0.608026 0.691237 1.330774 0.608337 0.697237 1.330774 0.608337 0.691237 1.331085 0.608575 0.697237 1.331085 0.608575 0.691237 1.331447 0.608725 0.697237 1.331447 0.608725 0.691237 1.331835 0.608776 0.697237 1.331835 0.608776 0.691237 1.332223 0.608725 0.697237 1.332223 0.608725 0.691237 1.332585 0.608575 0.697237 1.332585 0.608575 0.691237 1.332896 0.608337 0.697237 1.332896 0.608337 0.691237 1.333134 0.608026 0.697237 1.333134 0.608026 0.691237 1.333284 0.607665 0.697237 1.333284 0.607665 0.691237 1.333335 0.607276 0.697237 1.333335 0.607276 0.691237 1.333284 0.606888 0.697237 1.333284 0.606888 0.691237 1.333134 0.606526 0.697237 1.333134 0.606526 0.691237 1.332896 0.606216 0.697237 1.332896 0.606216 0.691237 1.332585 0.605977 0.697237 1.332585 0.605977 0.691237 1.332223 0.605828 0.697237 1.332223 0.605828 0.691237 1.331835 0.605776 0.697237 1.331835 0.605776 0.691237 1.331447 0.605828 0.697237 1.331447 0.605828 0.691237 1.331085 0.605977 0.697237 1.331085 0.605977 0.691237 1.330774 0.606216 0.697237 1.330774 0.606216 0.691237 1.330536 0.606526 0.697237 1.330536 0.606526 0.691237 1.330386 0.606888 0.697237 1.330386 0.606888 0.703237 1.331936 0.529028 0.703237 1.331257 0.529773 0.703237 1.330684 0.530601 0.703237 1.330228 0.531499 0.703237 1.329896 0.532450 0.703237 1.329694 0.533437 0.703237 1.329626 0.534442 0.685237 1.329626 0.534442 0.685237 1.329694 0.533437 0.685237 1.329896 0.532450 0.685237 1.330228 0.531499 0.685237 1.330684 0.530601 0.685237 1.331257 0.529773 0.685237 1.331936 0.529028 0.685237 1.329626 0.534705 0.685237 1.329696 0.535724 0.685237 1.329903 0.536725 0.685237 1.330245 0.537688 0.685237 1.330714 0.538595 0.685237 1.331303 0.539431 0.685237 1.331999 0.540178 0.685237 1.332791 0.540825 0.685237 1.333663 0.541357 0.685237 1.334599 0.541766 0.685237 1.327905 0.605315 0.685237 1.327881 0.606266 0.685237 1.328007 0.607209 0.685237 1.328281 0.608120 0.685237 1.328695 0.608977 0.685237 1.329240 0.609757 0.685237 1.329900 0.610441 0.685237 1.330661 0.611012 0.685237 1.331503 0.611456 0.685237 1.332404 0.611761 0.685237 1.333342 0.611920 0.685237 1.343995 0.612866 0.685237 1.344950 0.612875 0.685237 1.345895 0.612732 0.685237 1.346804 0.612440 0.685237 1.347656 0.612009 0.685237 1.348429 0.611447 0.685237 1.349102 0.610770 0.685237 1.349660 0.609995 0.685237 1.350088 0.609141 0.685237 1.350374 0.608230 0.685237 1.350513 0.607285 0.685237 1.350500 0.606330 0.685237 1.344544 0.542814 0.685237 1.348544 0.540814 0.685237 1.352996 0.549768 0.685237 1.353394 0.550676 0.685237 1.353936 0.551505 0.685237 1.354606 0.552235 0.685237 1.355388 0.552843 0.685237 1.356260 0.553315 0.685237 1.357197 0.553637 0.685237 1.358174 0.553801 0.685237 1.359165 0.553801 0.685237 1.360143 0.553638 0.685237 1.361080 0.553317 0.685237 1.361952 0.552846 0.685237 1.362734 0.552237 0.685237 1.363405 0.551508 0.685237 1.363947 0.550679 0.685237 1.364346 0.549772 0.685237 1.364589 0.548811 0.685237 1.364672 0.547823 0.685237 1.364590 0.546836 0.685237 1.364347 0.545875 0.685237 1.359895 0.536921 0.685237 1.359895 0.522921 0.685237 1.359895 0.518921 0.685237 1.359895 0.516171 0.685237 1.359895 0.512171 0.685237 1.359895 0.509421 0.685237 1.359895 0.505421 0.685237 1.359895 0.502671 0.685237 1.359895 0.498671 0.685237 1.359895 0.495921 0.685237 1.359895 0.491921 0.685237 1.359895 0.486921 0.685237 1.358434 0.486921 0.685237 1.357172 0.487001 0.685237 1.355929 0.487240 0.685237 1.354727 0.487634 0.685237 1.353584 0.488176 0.685237 1.352518 0.488859 0.685237 1.351548 0.489670 0.685237 1.350687 0.490598 0.685237 1.349951 0.491627 0.685237 1.349350 0.492740 0.685237 1.342195 0.518921 0.703237 1.329626 0.534705 0.703237 1.329696 0.535724 0.703237 1.329903 0.536725 0.703237 1.330245 0.537688 0.703237 1.330714 0.538595 0.703237 1.331303 0.539431 0.703237 1.331999 0.540178 0.703237 1.332791 0.540825 0.703237 1.333663 0.541357 0.703237 1.334599 0.541766 0.703237 1.358434 0.486921 0.703237 1.357172 0.487001 0.703237 1.355929 0.487240 0.703237 1.354727 0.487634 0.703237 1.353584 0.488176 0.703237 1.352518 0.488859 0.703237 1.351548 0.489670 0.703237 1.350687 0.490598 0.703237 1.349951 0.491627 0.703237 1.349350 0.492740 0.703237 1.359895 0.486921 0.703237 1.327905 0.605315 0.703237 1.327881 0.606266 0.703237 1.328007 0.607209 0.703237 1.328281 0.608120 0.703237 1.328695 0.608977 0.703237 1.329240 0.609757 0.703237 1.329900 0.610441 0.703237 1.330661 0.611012 0.703237 1.331503 0.611456 0.703237 1.332404 0.611761 0.703237 1.333342 0.611920 0.703237 1.343995 0.612866 0.703237 1.344950 0.612875 0.703237 1.345895 0.612732 0.703237 1.346804 0.612440 0.703237 1.347656 0.612009 0.703237 1.348429 0.611447 0.703237 1.349102 0.610770 0.703237 1.349660 0.609995 0.703237 1.350088 0.609141 0.703237 1.350374 0.608230 0.703237 1.350513 0.607285 0.703237 1.350500 0.606330 0.678237 1.359895 0.522921 0.678237 1.359895 0.518921 0.703237 1.363895 0.520921 0.703237 1.359895 0.518921 0.678237 1.363895 0.520921 0.703237 1.359895 0.522921 0.703237 1.359895 0.536921 0.703237 1.359895 0.516171 0.678237 1.359895 0.502671 0.678237 1.359895 0.498671 0.703237 1.363895 0.500671 0.703237 1.359895 0.498671 0.678237 1.363895 0.500671 0.703237 1.359895 0.502671 0.703237 1.359895 0.505421 0.703237 1.359895 0.495921 0.678237 1.359895 0.516171 0.678237 1.359895 0.512171 0.703237 1.363895 0.514171 0.703237 1.359895 0.512171 0.678237 1.363895 0.514171 0.703237 1.359895 0.509421 0.678237 1.359895 0.509421 0.678237 1.359895 0.505421 0.703237 1.363895 0.507421 0.678237 1.363895 0.507421 0.678237 1.359895 0.495921 0.678237 1.359895 0.491921 0.703237 1.363895 0.493921 0.678237 1.363895 0.493921 0.703237 1.359895 0.491921 0.703237 1.342195 0.518921 0.703237 1.344544 0.542814 0.703237 1.348544 0.540814 0.703237 1.352996 0.549768 0.703237 1.353394 0.550676 0.703237 1.353936 0.551505 0.703237 1.354606 0.552235 0.703237 1.355388 0.552843 0.703237 1.356260 0.553315 0.703237 1.357197 0.553637 0.703237 1.358174 0.553801 0.703237 1.359165 0.553801 0.703237 1.360143 0.553638 0.703237 1.361080 0.553317 0.703237 1.361952 0.552846 0.703237 1.362734 0.552237 0.703237 1.363405 0.551508 0.703237 1.363947 0.550679 0.703237 1.364346 0.549772 0.703237 1.364589 0.548811 0.703237 1.364672 0.547823 0.703237 1.364590 0.546836 0.703237 1.364347 0.545875</float_array>
          <technique_common>
            <accessor source="#JAW_8-mesh-positions-array" count="635" stride="3">
              <param name="X" type="float"/>
              <param name="Y" type="float"/>
              <param name="Z" type="float"/>
            </accessor>
          </technique_common>
        </source>
        <source id="JAW_8-mesh-normals">
          <float_array id="JAW_8-mesh-normals-array" count="3936">-0.000000 1.000000 -0.000000 -0.000000 1.000000 -0.000000 -0.000000 1.000000 -0.000000 -0.000000 1.000000 -0.000000 -0.000000 -1.000000 0.000000 -0.000000 -1.000000 0.000000 -0.000000 -0.978148 0.207912 -0.000000 -0.978148 0.207912 -0.000000 -0.913545 0.406737 -0.000000 -0.913545 0.406737 -0.000000 -0.809017 0.587785 -0.000000 -0.809017 0.587785 -0.000000 -0.669131 0.743145 -0.000000 -0.669131 0.743145 -0.000000 -0.500000 0.866025 -0.000000 -0.500000 0.866025 -0.000000 -0.309017 0.951057 -0.000000 -0.309017 0.951057 -0.000000 -0.104528 0.994522 -0.000000 -0.104528 0.994522 -0.000000 0.104528 0.994522 -0.000000 0.104528 0.994522 -0.000000 0.309017 0.951057 -0.000000 0.309017 0.951057 -0.000000 0.500000 0.866025 -0.000000 0.500000 0.866025 -0.000000 0.669131 0.743145 -0.000000 0.669131 0.743145 -0.000000 0.809017 0.587785 -0.000000 0.809017 0.587785 -0.000000 0.913545 0.406737 -0.000000 0.913545 0.406737 -0.000000 0.978148 0.207912 -0.000000 0.978148 0.207912 -0.000000 -1.000000 -0.000000 -0.000000 -1.000000 -0.000000 -0.000000 0.978148 -0.207912 -0.000000 0.978148 -0.207912 -0.000000 0.913545 -0.406737 -0.000000 0.913545 -0.406737 -0.000000 0.809017 -0.587785 -0.000000 0.809017 -0.587785 -0.000000 0.669131 -0.743145 -0.000000 0.669131 -0.743145 -0.000000 0.500000 -0.866025 -0.000000 0.500000 -0.866025 -0.000000 0.309017 -0.951057 -0.000000 0.309017 -0.951057 -0.000000 0.104528 -0.994522 -0.000000 0.104528 -0.994522 0.000000 -0.104528 -0.994522 0.000000 -0.104528 -0.994522 0.000000 -0.309017 -0.951057 0.000000 -0.309017 -0.951057 0.000000 -0.500000 -0.866025 0.000000 -0.500000 -0.866025 0.000000 -0.669131 -0.743145 0.000000 -0.669131 -0.743145 0.000000 -0.809017 -0.587785 0.000000 -0.809017 -0.587785 0.000000 -0.913545 -0.406737 0.000000 -0.913545 -0.406737 0.000000 -0.978148 -0.207912 0.000000 -0.978148 -0.207912 -1.000000 0.000000 0.000000 -1.000000 0.000000 0.000000 -1.000000 0.000000 0.000000 -1.000000 0.000000 0.000000 -1.000000 0.000000 0.000000 -1.000000 0.000000 0.000000 -1.000000 0.000000 0.000000 -1.000000 0.000000 0.000000 -1.000000 0.000000 0.000000 -1.000000 0.000000 0.000000 -1.000000 0.000000 0.000000 -1.000000 0.000000 0.000000 -1.000000 0.000000 0.000000 -1.000000 0.000000 0.000000 -1.000000 0.000000 0.000000 -1.000000 0.000000 0.000000 -1.000000 0.000000 0.000000 -1.000000 0.000000 0.000000 -1.000000 0.000000 0.000000 -1.000000 0.000000 0.000000 -1.000000 0.000000 0.000000 -1.000000 0.000000 0.000000 -1.000000 0.000000 0.000000 -1.000000 0.000000 0.000000 -1.000000 0.000000 0.000000 -1.000000 0.000000 0.000000 -1.000000 0.000000 0.000000 -1.000000 0.000000 0.000000 -1.000000 0.000000 0.000000 -1.000000 0.000000 0.000000 -1.000000 0.000000 0.000000 -1.000000 0.000000 0.000000 0.000000 -0.965926 -0.258819 0.000000 -0.965926 -0.258819 0.000000 -1.000000 -0.000000 0.000000 -1.000000 -0.000000 0.000000 -0.965926 0.258819 0.000000 -0.965926 0.258819 0.000000 -0.866025 0.500000 0.000000 -0.866025 0.500000 0.000000 -0.707107 0.707107 0.000000 -0.707107 0.707107 0.000000 -0.500000 0.866025 0.000000 -0.500000 0.866025 0.000000 -0.258819 0.965926 0.000000 -0.258819 0.965926 0.000000 0.000000 1.000000 0.000000 0.000000 1.000000 0.000000 0.258819 0.965926 0.000000 0.258819 0.965926 0.000000 0.500000 0.866025 0.000000 0.500000 0.866025 0.000000 0.707107 0.707107 0.000000 0.707107 0.707107 0.000000 0.866025 0.500000 0.000000 0.866025 0.500000 0.000000 0.965926 0.258819 0.000000 0.965926 0.258819 0.000000 1.000000 -0.000000 0.000000 1.000000 -0.000000 0.000000 0.965926 -0.258819 0.000000 0.965926 -0.258819 0.000000 0.866025 -0.500000 0.000000 0.866025 -0.500000 0.000000 0.707107 -0.707107 0.000000 0.707107 -0.707107 0.000000 0.500000 -0.866025 0.000000 0.500000 -0.866025 0.000000 0.258819 -0.965926 0.000000 0.258819 -0.965926 0.000000 0.000000 -1.000000 0.000000 0.000000 -1.000000 0.000000 -0.258819 -0.965926 0.000000 -0.258819 -0.965926 0.000000 -0.500000 -0.866025 0.000000 -0.500000 -0.866025 0.000000 -0.707107 -0.707107 0.000000 -0.707107 -0.707107 0.000000 -0.866025 -0.500000 0.000000 -0.866025 -0.500000 -1.000000 0.000000 0.000000 -1.000000 0.000000 0.000000 -1.000000 0.000000 0.000000 -1.000000 0.000000 0.000000 -1.000000 0.000000 0.000000 -1.000000 0.000000 0.000000 -1.000000 0.000000 0.000000 -1.000000 0.000000 0.000000 -1.000000 0.000000 0.000000 -1.000000 0.000000 0.000000 -1.000000 0.000000 0.000000 -1.000000 0.000000 0.000000 -1.000000 0.000000 0.000000 -1.000000 0.000000 0.000000 -1.000000 0.000000 0.000000 -1.000000 0.000000 0.000000 -1.000000 0.000000 0.000000 -1.000000 0.000000 0.000000 -1.000000 0.000000 0.000000 -1.000000 0.000000 0.000000 -1.000000 0.000000 0.000000 -1.000000 0.000000 0.000000 -1.000000 0.000000 0.000000 -1.000000 0.000000 0.000000 0.000000 -0.965926 -0.258819 0.000000 -0.965926 -0.258819 0.000000 -1.000000 -0.000000 0.000000 -1.000000 -0.000000 0.000000 -0.965926 0.258819 0.000000 -0.965926 0.258819 0.000000 -0.866025 0.500000 0.000000 -0.866025 0.500000 0.000000 -0.707107 0.707107 0.000000 -0.707107 0.707107 0.000000 -0.500000 0.866025 0.000000 -0.500000 0.866025 0.000000 -0.258819 0.965926 0.000000 -0.258819 0.965926 0.000000 0.000000 1.000000 0.000000 0.000000 1.000000 0.000000 0.258819 0.965926 0.000000 0.258819 0.965926 0.000000 0.500000 0.866025 0.000000 0.500000 0.866025 0.000000 0.707107 0.707107 0.000000 0.707107 0.707107 0.000000 0.866025 0.500000 0.000000 0.866025 0.500000 0.000000 0.965926 0.258819 0.000000 0.965926 0.258819 0.000000 1.000000 -0.000000 0.000000 1.000000 -0.000000 0.000000 0.965926 -0.258819 0.000000 0.965926 -0.258819 0.000000 0.866025 -0.500000 0.000000 0.866025 -0.500000 0.000000 0.707107 -0.707107 0.000000 0.707107 -0.707107 0.000000 0.500000 -0.866025 0.000000 0.500000 -0.866025 0.000000 0.258819 -0.965926 0.000000 0.258819 -0.965926 0.000000 0.000000 -1.000000 0.000000 0.000000 -1.000000 0.000000 -0.258819 -0.965926 0.000000 -0.258819 -0.965926 0.000000 -0.500000 -0.866025 0.000000 -0.500000 -0.866025 0.000000 -0.707107 -0.707107 0.000000 -0.707107 -0.707107 0.000000 -0.866025 -0.500000 0.000000 -0.866025 -0.500000 -1.000000 0.000000 0.000000 -1.000000 0.000000 0.000000 -1.000000 0.000000 0.000000 -1.000000 0.000000 0.000000 -1.000000 0.000000 0.000000 -1.000000 0.000000 0.000000 -1.000000 0.000000 0.000000 -1.000000 0.000000 0.000000 -1.000000 0.000000 0.000000 -1.000000 0.000000 0.000000 -1.000000 0.000000 0.000000 -1.000000 0.000000 0.000000 -1.000000 0.000000 0.000000 -1.000000 0.000000 0.000000 -1.000000 0.000000 0.000000 -1.000000 0.000000 0.000000 -1.000000 0.000000 0.000000 -1.000000 0.000000 0.000000 -1.000000 0.000000 0.000000 -1.000000 0.000000 0.000000 -1.000000 0.000000 0.000000 -1.000000 0.000000 0.000000 -1.000000 0.000000 0.000000 -1.000000 0.000000 0.000000 -0.000000 1.000000 -0.000000 -0.000000 1.000000 -0.000000 -0.000000 1.000000 -0.000000 -0.000000 1.000000 -0.000000 0.000000 0.978148 0.207912 0.000000 0.978148 0.207912 0.000000 0.913545 0.406737 0.000000 0.913545 0.406737 0.000000 0.809017 0.587785 0.000000 0.809017 0.587785 0.000000 0.669131 0.743145 0.000000 0.669131 0.743145 0.000000 0.500000 0.866025 0.000000 0.500000 0.866025 0.000000 0.309017 0.951057 0.000000 0.309017 0.951057 0.000000 0.104528 0.994522 0.000000 0.104528 0.994522 0.000000 -0.104528 0.994522 0.000000 -0.104528 0.994522 0.000000 -0.309017 0.951057 0.000000 -0.309017 0.951057 0.000000 -0.500000 0.866025 0.000000 -0.500000 0.866025 0.000000 -0.669131 0.743145 0.000000 -0.669131 0.743145 0.000000 -0.809017 0.587785 0.000000 -0.809017 0.587785 0.000000 -0.913545 0.406737 0.000000 -0.913545 0.406737 0.000000 -0.978148 0.207912 0.000000 -0.978148 0.207912 0.000000 -1.000000 0.000000 0.000000 -1.000000 0.000000 -0.000000 -1.000000 -0.000000 -0.000000 -1.000000 -0.000000 -0.000000 -0.978148 -0.207912 -0.000000 -0.978148 -0.207912 -0.000000 -0.913545 -0.406737 -0.000000 -0.913545 -0.406737 -0.000000 -0.809017 -0.587785 -0.000000 -0.809017 -0.587785 -0.000000 -0.669131 -0.743145 -0.000000 -0.669131 -0.743145 -0.000000 -0.500000 -0.866025 -0.000000 -0.500000 -0.866025 -0.000000 -0.309017 -0.951057 -0.000000 -0.309017 -0.951057 -0.000000 -0.104528 -0.994522 -0.000000 -0.104528 -0.994522 0.000000 0.104528 -0.994522 0.000000 0.104528 -0.994522 0.000000 0.309017 -0.951057 0.000000 0.309017 -0.951057 0.000000 0.500000 -0.866025 0.000000 0.500000 -0.866025 0.000000 0.669131 -0.743145 0.000000 0.669131 -0.743145 0.000000 0.809017 -0.587785 0.000000 0.809017 -0.587785 0.000000 0.913545 -0.406737 0.000000 0.913545 -0.406737 0.000000 0.978148 -0.207912 0.000000 0.978148 -0.207912 1.000000 0.000000 0.000000 1.000000 0.000000 0.000000 1.000000 0.000000 0.000000 1.000000 0.000000 0.000000 1.000000 0.000000 0.000000 1.000000 0.000000 0.000000 1.000000 0.000000 0.000000 1.000000 0.000000 0.000000 1.000000 0.000000 0.000000 1.000000 0.000000 0.000000 1.000000 0.000000 0.000000 1.000000 0.000000 0.000000 1.000000 0.000000 0.000000 1.000000 0.000000 0.000000 1.000000 0.000000 0.000000 1.000000 0.000000 0.000000 1.000000 0.000000 0.000000 1.000000 0.000000 0.000000 1.000000 0.000000 0.000000 1.000000 0.000000 0.000000 1.000000 0.000000 0.000000 1.000000 0.000000 0.000000 1.000000 0.000000 0.000000 1.000000 0.000000 0.000000 1.000000 0.000000 0.000000 1.000000 0.000000 0.000000 1.000000 0.000000 0.000000 1.000000 0.000000 0.000000 1.000000 0.000000 0.000000 1.000000 0.000000 0.000000 1.000000 0.000000 0.000000 1.000000 0.000000 0.000000 -0.000000 -0.965926 0.258819 -0.000000 -0.965926 0.258819 -0.000000 -1.000000 0.000000 -0.000000 -1.000000 0.000000 0.000000 -0.965926 -0.258819 0.000000 -0.965926 -0.258819 0.000000 -0.866025 -0.500000 0.000000 -0.866025 -0.500000 0.000000 -0.707107 -0.707107 0.000000 -0.707107 -0.707107 0.000000 -0.500000 -0.866025 0.000000 -0.500000 -0.866025 0.000000 -0.258819 -0.965926 0.000000 -0.258819 -0.965926 -0.000000 0.000000 -1.000000 -0.000000 0.000000 -1.000000 -0.000000 0.258819 -0.965926 -0.000000 0.258819 -0.965926 -0.000000 0.500000 -0.866025 -0.000000 0.500000 -0.866025 -0.000000 0.707107 -0.707107 -0.000000 0.707107 -0.707107 -0.000000 0.866025 -0.500000 -0.000000 0.866025 -0.500000 -0.000000 0.965926 -0.258819 -0.000000 0.965926 -0.258819 -0.000000 1.000000 -0.000000 -0.000000 1.000000 -0.000000 -0.000000 0.965926 0.258819 -0.000000 0.965926 0.258819 -0.000000 0.866025 0.500000 -0.000000 0.866025 0.500000 -0.000000 0.707107 0.707107 -0.000000 0.707107 0.707107 -0.000000 0.500000 0.866025 -0.000000 0.500000 0.866025 -0.000000 0.258819 0.965926 -0.000000 0.258819 0.965926 -0.000000 0.000000 1.000000 -0.000000 0.000000 1.000000 -0.000000 -0.258819 0.965926 -0.000000 -0.258819 0.965926 -0.000000 -0.500000 0.866025 -0.000000 -0.500000 0.866025 -0.000000 -0.707107 0.707107 -0.000000 -0.707107 0.707107 -0.000000 -0.866025 0.500000 -0.000000 -0.866025 0.500000 1.000000 0.000000 0.000000 1.000000 0.000000 0.000000 1.000000 0.000000 0.000000 1.000000 0.000000 0.000000 1.000000 0.000000 0.000000 1.000000 0.000000 0.000000 1.000000 0.000000 0.000000 1.000000 0.000000 0.000000 1.000000 0.000000 0.000000 1.000000 0.000000 0.000000 1.000000 0.000000 0.000000 1.000000 0.000000 0.000000 1.000000 0.000000 0.000000 1.000000 0.000000 0.000000 1.000000 0.000000 0.000000 1.000000 0.000000 0.000000 1.000000 0.000000 0.000000 1.000000 0.000000 0.000000 1.000000 0.000000 0.000000 1.000000 0.000000 0.000000 1.000000 0.000000 0.000000 1.000000 0.000000 0.000000 1.000000 0.000000 0.000000 1.000000 0.000000 0.000000 -0.000000 -0.965926 0.258819 -0.000000 -0.965926 0.258819 -0.000000 -1.000000 0.000000 -0.000000 -1.000000 0.000000 0.000000 -0.965926 -0.258819 0.000000 -0.965926 -0.258819 0.000000 -0.866025 -0.500000 0.000000 -0.866025 -0.500000 0.000000 -0.707107 -0.707107 0.000000 -0.707107 -0.707107 0.000000 -0.500000 -0.866025 0.000000 -0.500000 -0.866025 0.000000 -0.258819 -0.965926 0.000000 -0.258819 -0.965926 -0.000000 0.000000 -1.000000 -0.000000 0.000000 -1.000000 -0.000000 0.258819 -0.965926 -0.000000 0.258819 -0.965926 -0.000000 0.500000 -0.866025 -0.000000 0.500000 -0.866025 -0.000000 0.707107 -0.707107 -0.000000 0.707107 -0.707107 -0.000000 0.866025 -0.500000 -0.000000 0.866025 -0.500000 -0.000000 0.965926 -0.258819 -0.000000 0.965926 -0.258819 -0.000000 1.000000 -0.000000 -0.000000 1.000000 -0.000000 -0.000000 0.965926 0.258819 -0.000000 0.965926 0.258819 -0.000000 0.866025 0.500000 -0.000000 0.866025 0.500000 -0.000000 0.707107 0.707107 -0.000000 0.707107 0.707107 -0.000000 0.500000 0.866025 -0.000000 0.500000 0.866025 -0.000000 0.258819 0.965926 -0.000000 0.258819 0.965926 -0.000000 0.000000 1.000000 -0.000000 0.000000 1.000000 -0.000000 -0.258819 0.965926 -0.000000 -0.258819 0.965926 -0.000000 -0.500000 0.866025 -0.000000 -0.500000 0.866025 -0.000000 -0.707107 0.707107 -0.000000 -0.707107 0.707107 -0.000000 -0.866025 0.500000 -0.000000 -0.866025 0.500000 1.000000 0.000000 0.000000 1.000000 0.000000 0.000000 1.000000 0.000000 0.000000 1.000000 0.000000 0.000000 1.000000 0.000000 0.000000 1.000000 0.000000 0.000000 1.000000 0.000000 0.000000 1.000000 0.000000 0.000000 1.000000 0.000000 0.000000 1.000000 0.000000 0.000000 1.000000 0.000000 0.000000 1.000000 0.000000 0.000000 1.000000 0.000000 0.000000 1.000000 0.000000 0.000000 1.000000 0.000000 0.000000 1.000000 0.000000 0.000000 1.000000 0.000000 0.000000 1.000000 0.000000 0.000000 1.000000 0.000000 0.000000 1.000000 0.000000 0.000000 1.000000 0.000000 0.000000 1.000000 0.000000 0.000000 1.000000 0.000000 0.000000 1.000000 0.000000 0.000000 -0.000000 -0.944161 -0.329484 -0.000000 -0.944161 -0.329484 -0.000000 -0.944161 -0.329484 -0.000000 0.944161 0.329484 -0.000000 0.944161 0.329484 -0.000000 0.944161 0.329484 -0.000000 0.944161 0.329484 -0.480203 -0.289009 0.828178 -0.480203 -0.289009 0.828178 -0.480203 -0.289009 0.828178 -0.480203 -0.289009 0.828178 -0.480203 -0.289009 0.828178 -0.480203 -0.289009 0.828178 -0.480203 -0.289009 0.828178 -0.480203 -0.289009 0.828178 -0.480203 -0.289009 0.828178 -0.480203 -0.289009 0.828178 -0.480203 -0.289009 0.828178 -0.480203 -0.289009 0.828178 -0.000000 0.329484 -0.944161 -0.000000 0.329484 -0.944161 -0.000000 0.329484 -0.944161 -0.000000 0.329484 -0.944161 0.990893 0.044365 -0.127131 0.990893 0.044365 -0.127131 0.990893 0.044365 -0.127131 0.990893 0.044365 -0.127131 0.990893 0.044365 -0.127131 0.990893 0.044365 -0.127131 0.990893 0.044365 -0.127131 0.990893 0.044365 -0.127131 0.990893 0.044365 -0.127131 0.990893 0.044365 -0.127131 0.990893 0.044365 -0.127131 0.000000 -1.000000 -0.000000 0.000000 -1.000000 -0.000000 0.000000 -1.000000 -0.000000 0.000000 -1.000000 -0.000000 0.000000 -1.000000 -0.000000 0.000000 -1.000000 -0.000000 0.000000 -1.000000 -0.000000 0.000000 -1.000000 -0.000000 0.000000 -0.944161 -0.329484 0.000000 -0.944161 -0.329484 0.000000 -0.944161 -0.329484 0.000000 -0.944161 -0.329484 0.000000 -0.944161 -0.329484 0.000000 -0.944161 -0.329484 0.000000 -0.944161 -0.329484 0.000000 -0.944161 -0.329484 0.000000 0.965926 -0.258819 0.000000 0.965926 -0.258819 0.000000 1.000000 -0.000000 0.000000 1.000000 -0.000000 0.000000 0.965926 0.258819 0.000000 0.965926 0.258819 0.000000 0.866025 0.500000 0.000000 0.866025 0.500000 0.000000 0.707107 0.707107 0.000000 0.707107 0.707107 0.000000 0.500000 0.866025 0.000000 0.500000 0.866025 0.000000 0.258819 0.965926 0.000000 0.258819 0.965926 0.000000 -0.000000 1.000000 0.000000 -0.000000 1.000000 0.000000 -0.258819 0.965926 0.000000 -0.258819 0.965926 0.000000 -0.500000 0.866025 0.000000 -0.500000 0.866025 0.000000 -0.707107 0.707107 0.000000 -0.707107 0.707107 0.000000 -0.866025 0.500000 0.000000 -0.866025 0.500000 0.000000 -0.965926 0.258819 0.000000 -0.965926 0.258819 -0.000000 -1.000000 -0.000000 -0.000000 -1.000000 -0.000000 -0.000000 -0.965926 -0.258819 -0.000000 -0.965926 -0.258819 -0.000000 -0.866025 -0.500000 -0.000000 -0.866025 -0.500000 -0.000000 -0.707107 -0.707107 -0.000000 -0.707107 -0.707107 -0.000000 -0.500000 -0.866025 -0.000000 -0.500000 -0.866025 -0.000000 -0.258819 -0.965926 -0.000000 -0.258819 -0.965926 -0.000000 -0.000000 -1.000000 -0.000000 -0.000000 -1.000000 0.000000 0.258819 -0.965926 0.000000 0.258819 -0.965926 0.000000 0.500000 -0.866025 0.000000 0.500000 -0.866025 0.000000 0.707107 -0.707107 0.000000 0.707107 -0.707107 0.000000 0.866025 -0.500000 0.000000 0.866025 -0.500000 0.000000 0.965926 0.258819 0.000000 0.965926 0.258819 0.000000 1.000000 0.000000 0.000000 1.000000 0.000000 0.000000 0.965926 -0.258819 0.000000 0.965926 -0.258819 0.000000 0.866025 -0.500000 0.000000 0.866025 -0.500000 0.000000 0.707107 -0.707107 0.000000 0.707107 -0.707107 0.000000 0.500000 -0.866025 0.000000 0.500000 -0.866025 0.000000 0.258819 -0.965926 0.000000 0.258819 -0.965926 -0.000000 -0.000000 -1.000000 -0.000000 -0.000000 -1.000000 -0.000000 -0.258819 -0.965926 -0.000000 -0.258819 -0.965926 -0.000000 -0.500000 -0.866025 -0.000000 -0.500000 -0.866025 -0.000000 -0.707107 -0.707107 -0.000000 -0.707107 -0.707107 -0.000000 -0.866025 -0.500000 -0.000000 -0.866025 -0.500000 -0.000000 -0.965926 -0.258819 -0.000000 -0.965926 -0.258819 -0.000000 -1.000000 -0.000000 -0.000000 -1.000000 -0.000000 0.000000 -0.965926 0.258819 0.000000 -0.965926 0.258819 0.000000 -0.866025 0.500000 0.000000 -0.866025 0.500000 0.000000 -0.707107 0.707107 0.000000 -0.707107 0.707107 0.000000 -0.500000 0.866025 0.000000 -0.500000 0.866025 0.000000 -0.258819 0.965926 0.000000 -0.258819 0.965926 0.000000 -0.000000 1.000000 0.000000 -0.000000 1.000000 0.000000 0.258819 0.965926 0.000000 0.258819 0.965926 0.000000 0.500000 0.866025 0.000000 0.500000 0.866025 0.000000 0.707107 0.707107 0.000000 0.707107 0.707107 0.000000 0.866025 0.500000 0.000000 0.866025 0.500000 0.000000 -0.692053 -0.721847 0.000000 -0.692053 -0.721847 0.000000 -0.782543 -0.622596 0.000000 -0.782543 -0.622596 0.000000 -0.858917 -0.512114 0.000000 -0.858917 -0.512114 0.000000 -0.919797 -0.392395 0.000000 -0.919797 -0.392395 0.000000 -0.964084 -0.265596 0.000000 -0.964084 -0.265596 0.000000 -0.990980 -0.134007 0.000000 -0.990980 -0.134007 -0.000000 -1.000000 0.000000 -0.000000 -1.000000 0.000000 -1.000000 -0.000000 -0.000000 -1.000000 -0.000000 -0.000000 -1.000000 -0.000000 -0.000000 -1.000000 -0.000000 -0.000000 -1.000000 -0.000000 -0.000000 -1.000000 -0.000000 -0.000000 -1.000000 -0.000000 -0.000000 -1.000000 -0.000000 -0.000000 -1.000000 -0.000000 -0.000000 -1.000000 -0.000000 -0.000000 -1.000000 -0.000000 -0.000000 -1.000000 -0.000000 -0.000000 -1.000000 -0.000000 -0.000000 -1.000000 -0.000000 -0.000000 -1.000000 -0.000000 -0.000000 -1.000000 -0.000000 -0.000000 -1.000000 -0.000000 -0.000000 -1.000000 -0.000000 -0.000000 -1.000000 -0.000000 -0.000000 -1.000000 -0.000000 -0.000000 -1.000000 -0.000000 -0.000000 -1.000000 -0.000000 -0.000000 -1.000000 -0.000000 -0.000000 -1.000000 -0.000000 -0.000000 -1.000000 -0.000000 -0.000000 -1.000000 -0.000000 -0.000000 -1.000000 -0.000000 -0.000000 -1.000000 -0.000000 -0.000000 -1.000000 -0.000000 -0.000000 -1.000000 -0.000000 -0.000000 -1.000000 -0.000000 -0.000000 -1.000000 -0.000000 -0.000000 -1.000000 -0.000000 -0.000000 -1.000000 -0.000000 -0.000000 -1.000000 -0.000000 -0.000000 -1.000000 -0.000000 -0.000000 -1.000000 -0.000000 -0.000000 -1.000000 -0.000000 -0.000000 -1.000000 -0.000000 -0.000000 -1.000000 -0.000000 -0.000000 -1.000000 -0.000000 -0.000000 -1.000000 -0.000000 -0.000000 -1.000000 -0.000000 -0.000000 -1.000000 -0.000000 -0.000000 -1.000000 -0.000000 -0.000000 -1.000000 -0.000000 -0.000000 -1.000000 -0.000000 -0.000000 -1.000000 -0.000000 -0.000000 -1.000000 -0.000000 -0.000000 -1.000000 -0.000000 -0.000000 -1.000000 -0.000000 -0.000000 -1.000000 -0.000000 -0.000000 -1.000000 -0.000000 -0.000000 -1.000000 -0.000000 -0.000000 -1.000000 -0.000000 -0.000000 -1.000000 -0.000000 -0.000000 -1.000000 -0.000000 -0.000000 -1.000000 -0.000000 -0.000000 -1.000000 -0.000000 -0.000000 -1.000000 -0.000000 -0.000000 -1.000000 -0.000000 -0.000000 -1.000000 -0.000000 -0.000000 -1.000000 -0.000000 -0.000000 -1.000000 -0.000000 -0.000000 -1.000000 -0.000000 -0.000000 -1.000000 -0.000000 -0.000000 -1.000000 -0.000000 -0.000000 -1.000000 -0.000000 -0.000000 -1.000000 -0.000000 -0.000000 -1.000000 -0.000000 -0.000000 -1.000000 -0.000000 -0.000000 -1.000000 -0.000000 -0.000000 -1.000000 -0.000000 -0.000000 -1.000000 -0.000000 -0.000000 -1.000000 -0.000000 -0.000000 -1.000000 -0.000000 -0.000000 -1.000000 -0.000000 -0.000000 -1.000000 -0.000000 -0.000000 -1.000000 -0.000000 -0.000000 -1.000000 -0.000000 -0.000000 -1.000000 -0.000000 -0.000000 -1.000000 -0.000000 -0.000000 -1.000000 -0.000000 -0.000000 -1.000000 -0.000000 -0.000000 -1.000000 -0.000000 -0.000000 -1.000000 -0.000000 -0.000000 -1.000000 -0.000000 -0.000000 -1.000000 -0.000000 -0.000000 -1.000000 -0.000000 -0.000000 -1.000000 -0.000000 -0.000000 -1.000000 -0.000000 -0.000000 -1.000000 -0.000000 -0.000000 -1.000000 -0.000000 -0.000000 -1.000000 -0.000000 -0.000000 -1.000000 -0.000000 -0.000000 -1.000000 -0.000000 -0.000000 -1.000000 -0.000000 -0.000000 -1.000000 -0.000000 -0.000000 -1.000000 -0.000000 -0.000000 -1.000000 -0.000000 -0.000000 -1.000000 -0.000000 -0.000000 -1.000000 -0.000000 -0.000000 -1.000000 -0.000000 -0.000000 -1.000000 -0.000000 -0.000000 -1.000000 -0.000000 -0.000000 -1.000000 -0.000000 -0.000000 -1.000000 -0.000000 -0.000000 -1.000000 -0.000000 -0.000000 -1.000000 -0.000000 -0.000000 -1.000000 -0.000000 -0.000000 -1.000000 -0.000000 -0.000000 -1.000000 -0.000000 -0.000000 -1.000000 -0.000000 -0.000000 -1.000000 -0.000000 -0.000000 -1.000000 -0.000000 -0.000000 -1.000000 -0.000000 -0.000000 -1.000000 -0.000000 -0.000000 -1.000000 -0.000000 -0.000000 -1.000000 -0.000000 -0.000000 -1.000000 -0.000000 -0.000000 -1.000000 -0.000000 -0.000000 -1.000000 -0.000000 -0.000000 -1.000000 -0.000000 -0.000000 -1.000000 -0.000000 -0.000000 -1.000000 -0.000000 -0.000000 -1.000000 -0.000000 -0.000000 -1.000000 -0.000000 -0.000000 -1.000000 -0.000000 -0.000000 -1.000000 -0.000000 -0.000000 -1.000000 -0.000000 -0.000000 -1.000000 -0.000000 -0.000000 -1.000000 -0.000000 -0.000000 -1.000000 -0.000000 -0.000000 -1.000000 -0.000000 -0.000000 -1.000000 -0.000000 -0.000000 -1.000000 -0.000000 -0.000000 -1.000000 -0.000000 -0.000000 -1.000000 -0.000000 -0.000000 -1.000000 -0.000000 -0.000000 -1.000000 -0.000000 -0.000000 -1.000000 -0.000000 -0.000000 -1.000000 -0.000000 -0.000000 -1.000000 -0.000000 -0.000000 -1.000000 -0.000000 -0.000000 -1.000000 -0.000000 -0.000000 -1.000000 -0.000000 -0.000000 -1.000000 -0.000000 -0.000000 -1.000000 -0.000000 -0.000000 -1.000000 -0.000000 -0.000000 -1.000000 -0.000000 -0.000000 -1.000000 -0.000000 -0.000000 -1.000000 -0.000000 -0.000000 -1.000000 -0.000000 -0.000000 -1.000000 -0.000000 -0.000000 -1.000000 -0.000000 -0.000000 -1.000000 -0.000000 -0.000000 -1.000000 -0.000000 -0.000000 -1.000000 -0.000000 -0.000000 -1.000000 -0.000000 -0.000000 -1.000000 -0.000000 -0.000000 -1.000000 -0.000000 -0.000000 -1.000000 -0.000000 -0.000000 -1.000000 -0.000000 -0.000000 -1.000000 -0.000000 -0.000000 -1.000000 -0.000000 -0.000000 -1.000000 -0.000000 -0.000000 -1.000000 -0.000000 -0.000000 -1.000000 -0.000000 -0.000000 -1.000000 -0.000000 -0.000000 -1.000000 -0.000000 -0.000000 -1.000000 -0.000000 -0.000000 -1.000000 -0.000000 -0.000000 -1.000000 -0.000000 -0.000000 -1.000000 -0.000000 -0.000000 -1.000000 -0.000000 -0.000000 -1.000000 -0.000000 -0.000000 -1.000000 -0.000000 -0.000000 -1.000000 -0.000000 -0.000000 -1.000000 -0.000000 -0.000000 -1.000000 -0.000000 -0.000000 -1.000000 -0.000000 -0.000000 -1.000000 -0.000000 -0.000000 -1.000000 -0.000000 -0.000000 -1.000000 -0.000000 -0.000000 -1.000000 -0.000000 -0.000000 -1.000000 -0.000000 -0.000000 -1.000000 -0.000000 -0.000000 -1.000000 -0.000000 -0.000000 -1.000000 -0.000000 -0.000000 -1.000000 -0.000000 -0.000000 -1.000000 -0.000000 -0.000000 -1.000000 -0.000000 -0.000000 -1.000000 -0.000000 -0.000000 0.000000 -1.000000 0.000000 0.000000 -1.000000 0.000000 -0.000000 -0.337001 0.941504 -0.000000 -0.337001 0.941504 -0.000000 -0.461842 0.886962 -0.000000 -0.461842 0.886962 -0.000000 -0.578111 0.815958 -0.000000 -0.578111 0.815958 -0.000000 -0.683650 0.729810 -0.000000 -0.683650 0.729810 -0.000000 -0.776500 0.630117 -0.000000 -0.776500 0.630117 -0.000000 -0.854939 0.518728 -0.000000 -0.854939 0.518728 -0.000000 -0.917510 0.397712 -0.000000 -0.917510 0.397712 -0.000000 -0.963052 0.269315 -0.000000 -0.963052 0.269315 -0.000000 -0.990720 0.135919 -0.000000 -0.990720 0.135919 -0.000000 -0.884332 -0.466858 -0.000000 -0.908422 -0.418055 -0.000000 -0.933472 -0.358650 -0.000000 -0.953939 -0.300000 -0.000000 -0.953939 -0.300000 -0.000000 -0.848362 -0.529417 -0.000000 -0.822702 -0.568473 -0.000000 -0.774720 -0.632304 -0.000000 -0.749452 -0.662059 -0.000000 -0.688677 -0.725069 -0.000000 -0.708787 -0.705423 -0.000000 -0.665617 -0.746293 -0.000000 -0.749452 -0.662059 -0.000000 -0.688677 -0.725069 -0.000000 -0.591608 -0.806226 -0.000000 -0.591608 -0.806226 -0.000000 -0.485068 -0.874476 -0.000000 -0.485068 -0.874476 -0.000000 -0.370764 -0.928727 -0.000000 -0.370764 -0.928727 -0.000000 -0.250523 -0.968111 -0.000000 -0.250523 -0.968111 -0.000000 -0.126272 -0.991996 -0.000000 -0.126272 -0.991996 -0.000000 -0.000000 -1.000000 -0.000000 -0.000000 -1.000000 -0.000000 -0.774720 -0.632304 -0.000000 -0.822702 -0.568473 -0.000000 -0.848362 -0.529417 -0.000000 -0.884332 -0.466858 -0.000000 -0.908422 -0.418055 -0.000000 -0.933472 -0.358650 -0.000000 -0.953939 -0.300000 -0.000000 -0.953939 -0.300000 0.000000 -0.000000 -1.000000 0.000000 -0.000000 -1.000000 0.000000 -0.994499 -0.104750 0.000000 -0.994499 -0.104750 -0.000000 -0.998554 0.053750 -0.000000 -0.998554 0.053750 -0.000000 -0.977508 0.210899 -0.000000 -0.977508 0.210899 -0.000000 -0.931888 0.362746 -0.000000 -0.931888 0.362746 -0.000000 -0.862842 0.505474 -0.000000 -0.862842 0.505474 -0.000000 -0.772105 0.635495 -0.000000 -0.772105 0.635495 -0.000000 -0.661958 0.749541 -0.000000 -0.661958 0.749541 -0.000000 -0.535170 0.844744 -0.000000 -0.535170 0.844744 -0.000000 -0.394929 0.918712 -0.000000 -0.394929 0.918712 -0.000000 -0.244760 0.969584 -0.000000 -0.244760 0.969584 -0.000000 -0.088438 0.996082 -0.000000 -0.088438 0.996082 0.000000 -0.088438 0.996082 0.000000 -0.088438 0.996082 -0.000000 0.070737 0.997495 -0.000000 0.070737 0.997495 -0.000000 0.228119 0.973633 -0.000000 0.228119 0.973633 -0.000000 0.379721 0.925101 -0.000000 0.379721 0.925101 -0.000000 0.521702 0.853128 -0.000000 0.521702 0.853128 -0.000000 0.650463 0.759538 -0.000000 0.650463 0.759538 -0.000000 0.762743 0.646702 -0.000000 0.762743 0.646702 -0.000000 0.855695 0.517480 -0.000000 0.855695 0.517480 -0.000000 0.926966 0.375146 -0.000000 0.926966 0.375146 -0.000000 0.974749 0.223305 -0.000000 0.974749 0.223305 -0.000000 0.997832 0.065807 -0.000000 0.997832 0.065807 -0.000000 0.995633 -0.093359 -0.000000 0.995633 -0.093359 0.000000 -1.000000 0.000000 0.000000 -1.000000 0.000000 0.000000 -1.000000 0.000000 0.000000 -1.000000 0.000000 0.000000 0.447214 -0.894427 0.000000 0.447214 -0.894427 0.000000 0.447214 -0.894427 0.000000 0.447214 -0.894427 0.000000 0.447214 -0.894427 0.000000 0.447214 0.894427 0.000000 0.447214 0.894427 0.000000 0.447214 0.894427 0.000000 0.447214 0.894427 0.000000 0.447214 0.894427 -1.000000 0.000000 0.000000 -1.000000 0.000000 0.000000 -1.000000 0.000000 0.000000 0.000000 1.000000 0.000000 0.000000 1.000000 0.000000 0.000000 1.000000 0.000000 0.000000 1.000000 0.000000 0.000000 1.000000 0.000000 0.000000 1.000000 0.000000 0.000000 1.000000 0.000000 0.000000 1.000000 0.000000 0.000000 -1.000000 0.000000 0.000000 -1.000000 0.000000 0.000000 -1.000000 0.000000 0.000000 -1.000000 0.000000 0.000000 0.447214 -0.894427 0.000000 0.447214 -0.894427 0.000000 0.447214 -0.894427 0.000000 0.447214 -0.894427 0.000000 0.447214 -0.894427 0.000000 0.447214 0.894427 0.000000 0.447214 0.894427 0.000000 0.447214 0.894427 0.000000 0.447214 0.894427 0.000000 0.447214 0.894427 -1.000000 0.000000 0.000000 -1.000000 0.000000 0.000000 -1.000000 0.000000 0.000000 0.000000 1.000000 0.000000 0.000000 1.000000 0.000000 0.000000 1.000000 0.000000 0.000000 1.000000 0.000000 0.000000 1.000000 0.000000 0.000000 1.000000 0.000000 0.000000 1.000000 0.000000 0.000000 1.000000 0.000000 0.000000 -1.000000 0.000000 0.000000 -1.000000 0.000000 0.000000 -1.000000 0.000000 0.000000 -1.000000 0.000000 0.000000 0.447214 -0.894427 0.000000 0.447214 -0.894427 0.000000 0.447214 -0.894427 0.000000 0.447214 -0.894427 0.000000 0.447214 -0.894427 0.000000 0.447214 0.894427 0.000000 0.447214 0.894427 0.000000 0.447214 0.894427 0.000000 0.447214 0.894427 0.000000 0.447214 0.894427 -1.000000 0.000000 0.000000 -1.000000 0.000000 0.000000 -1.000000 0.000000 0.000000 0.000000 1.000000 0.000000 0.000000 1.000000 0.000000 0.000000 1.000000 0.000000 0.000000 1.000000 0.000000 0.000000 -1.000000 0.000000 0.000000 -1.000000 0.000000 0.000000 -1.000000 0.000000 0.000000 -1.000000 0.000000 0.000000 0.447214 -0.894427 0.000000 0.447214 -0.894427 0.000000 0.447214 -0.894427 0.000000 0.447214 -0.894427 0.000000 0.447214 -0.894427 0.000000 0.447214 0.894427 0.000000 0.447214 0.894427 0.000000 0.447214 0.894427 0.000000 0.447214 0.894427 0.000000 0.447214 0.894427 -1.000000 0.000000 0.000000 -1.000000 0.000000 0.000000 -1.000000 0.000000 0.000000 0.000000 -1.000000 0.000000 0.000000 -1.000000 0.000000 0.000000 -1.000000 0.000000 0.000000 -1.000000 0.000000 0.000000 0.447214 0.894427 0.000000 0.447214 0.894427 0.000000 0.447214 0.894427 0.000000 0.447214 0.894427 0.000000 0.447214 0.894427 0.000000 0.447214 -0.894427 0.000000 0.447214 -0.894427 0.000000 0.447214 -0.894427 0.000000 0.447214 -0.894427 0.000000 0.447214 -0.894427 -1.000000 0.000000 0.000000 -1.000000 0.000000 0.000000 -1.000000 0.000000 0.000000 0.000000 1.000000 0.000000 0.000000 1.000000 0.000000 0.000000 1.000000 0.000000 0.000000 1.000000 0.000000 -0.000000 0.857493 0.514496 -0.000000 0.857493 0.514496 -0.000000 0.857493 0.514496 -0.000000 0.857493 0.514496 -0.000000 0.857493 0.514496 -0.000000 0.857493 0.514496 -0.000000 0.857493 0.514496 -0.000000 0.857493 0.514496 -0.000000 0.000000 -1.000000 -0.000000 0.000000 -1.000000 -0.000000 0.000000 -1.000000 -0.000000 0.000000 -1.000000 0.000000 0.447214 0.894427 0.000000 0.447214 0.894427 0.000000 0.447214 0.894427 0.000000 0.447214 0.894427 0.000000 -0.895424 0.445215 0.000000 -0.895424 0.445215 0.000000 -0.895424 0.445215 0.000000 -0.895424 0.445215 -0.000000 -0.945921 0.324398 -0.000000 -0.945921 0.324398 -0.000000 -0.879625 0.475667 -0.000000 -0.879625 0.475667 -0.000000 -0.789336 0.613961 -0.000000 -0.789336 0.613961 -0.000000 -0.677516 0.735508 -0.000000 -0.677516 0.735508 -0.000000 -0.547215 0.836992 -0.000000 -0.547215 0.836992 -0.000000 -0.401987 0.915645 -0.000000 -0.401987 0.915645 -0.000000 -0.245795 0.969322 -0.000000 -0.245795 0.969322 -0.000000 -0.082897 0.996558 -0.000000 -0.082897 0.996558 -0.000000 0.082262 0.996611 -0.000000 0.082262 0.996611 -0.000000 0.245176 0.969478 -0.000000 0.245176 0.969478 -0.000000 0.401403 0.915901 -0.000000 0.401403 0.915901 -0.000000 0.546681 0.837341 -0.000000 0.546681 0.837341 -0.000000 0.677047 0.735940 -0.000000 0.677047 0.735940 -0.000000 0.788945 0.614464 -0.000000 0.788945 0.614464 -0.000000 0.879322 0.476228 -0.000000 0.879322 0.476228 -0.000000 0.945714 0.325001 -0.000000 0.945714 0.325001 -0.000000 0.986309 0.164909 -0.000000 0.986309 0.164909 -0.000000 1.000000 0.000319 -0.000000 1.000000 0.000319 -0.000000 0.986414 -0.164280 -0.000000 0.986414 -0.164280 -0.000000 0.945921 -0.324398 -0.000000 0.945921 -0.324398 0.000000 0.895424 -0.445215 0.000000 0.895424 -0.445215 0.000000 0.895424 -0.445215 0.000000 0.895424 -0.445215 0.000000 -0.692053 -0.721847 0.000000 -0.692053 -0.721847 0.000000 -0.994499 -0.104750 0.000000 -0.994499 -0.104750 0.000000 0.995633 -0.093359 0.000000 0.995633 -0.093359 1.000000 0.000000 0.000000 1.000000 0.000000 0.000000 1.000000 0.000000 0.000000 1.000000 0.000000 0.000000 1.000000 0.000000 0.000000 1.000000 0.000000 0.000000 1.000000 0.000000 0.000000 1.000000 0.000000 0.000000 1.000000 0.000000 0.000000 1.000000 0.000000 0.000000 1.000000 0.000000 0.000000 1.000000 0.000000 0.000000 1.000000 0.000000 0.000000 1.000000 0.000000 0.000000 1.000000 0.000000 0.000000 1.000000 0.000000 0.000000 1.000000 0.000000 0.000000 1.000000 0.000000 0.000000 1.000000 0.000000 0.000000 1.000000 0.000000 0.000000 1.000000 0.000000 0.000000 1.000000 0.000000 0.000000 1.000000 0.000000 0.000000 1.000000 0.000000 0.000000 1.000000 0.000000 0.000000 1.000000 0.000000 0.000000 1.000000 0.000000 0.000000 1.000000 0.000000 0.000000 1.000000 0.000000 0.000000 1.000000 0.000000 0.000000 1.000000 0.000000 0.000000 1.000000 0.000000 0.000000 1.000000 0.000000 0.000000 1.000000 0.000000 0.000000 1.000000 0.000000 0.000000 1.000000 0.000000 0.000000 1.000000 0.000000 0.000000 1.000000 0.000000 0.000000 1.000000 0.000000 0.000000 1.000000 0.000000 0.000000 1.000000 0.000000 0.000000 1.000000 0.000000 0.000000 1.000000 0.000000 0.000000 1.000000 0.000000 0.000000 1.000000 0.000000 0.000000 1.000000 0.000000 0.000000 1.000000 0.000000 0.000000 1.000000 0.000000 0.000000 1.000000 0.000000 0.000000 1.000000 0.000000 0.000000 1.000000 0.000000 0.000000 1.000000 0.000000 0.000000 1.000000 0.000000 0.000000 1.000000 0.000000 0.000000 1.000000 0.000000 0.000000 1.000000 0.000000 0.000000 1.000000 0.000000 0.000000 1.000000 0.000000 0.000000 1.000000 0.000000 0.000000 1.000000 0.000000 0.000000 1.000000 0.000000 0.000000 1.000000 0.000000 0.000000 1.000000 0.000000 0.000000 1.000000 0.000000 0.000000 1.000000 0.000000 0.000000 1.000000 0.000000 0.000000 1.000000 0.000000 0.000000 1.000000 0.000000 0.000000 1.000000 0.000000 0.000000 1.000000 0.000000 0.000000 1.000000 0.000000 0.000000 1.000000 0.000000 0.000000 1.000000 0.000000 0.000000 1.000000 0.000000 0.000000 1.000000 0.000000 0.000000 1.000000 0.000000 0.000000 1.000000 0.000000 0.000000 1.000000 0.000000 0.000000 1.000000 0.000000 0.000000 1.000000 0.000000 0.000000 1.000000 0.000000 0.000000 1.000000 0.000000 0.000000 1.000000 0.000000 0.000000 1.000000 0.000000 0.000000 1.000000 0.000000 0.000000 1.000000 0.000000 0.000000 1.000000 0.000000 0.000000 1.000000 0.000000 0.000000 1.000000 0.000000 0.000000 1.000000 0.000000 0.000000 1.000000 0.000000 0.000000 1.000000 0.000000 0.000000 1.000000 0.000000 0.000000 1.000000 0.000000 0.000000 1.000000 0.000000 0.000000 1.000000 0.000000 0.000000 1.000000 0.000000 0.000000 1.000000 0.000000 0.000000 1.000000 0.000000 0.000000 1.000000 0.000000 0.000000 1.000000 0.000000 0.000000 1.000000 0.000000 0.000000 1.000000 0.000000 0.000000 1.000000 0.000000 0.000000 1.000000 0.000000 0.000000 1.000000 0.000000 0.000000 1.000000 0.000000 0.000000 1.000000 0.000000 0.000000 1.000000 0.000000 0.000000 1.000000 0.000000 0.000000 1.000000 0.000000 0.000000 1.000000 0.000000 0.000000 1.000000 0.000000 0.000000 1.000000 0.000000 0.000000 1.000000 0.000000 0.000000 1.000000 0.000000 0.000000 1.000000 0.000000 0.000000 1.000000 0.000000 0.000000 1.000000 0.000000 0.000000 1.000000 0.000000 0.000000 1.000000 0.000000 0.000000 1.000000 0.000000 0.000000 1.000000 0.000000 0.000000 1.000000 0.000000 0.000000 1.000000 0.000000 0.000000 1.000000 0.000000 0.000000 1.000000 0.000000 0.000000 1.000000 0.000000 0.000000 1.000000 0.000000 0.000000 1.000000 0.000000 0.000000 1.000000 0.000000 0.000000 1.000000 0.000000 0.000000 1.000000 0.000000 0.000000 1.000000 0.000000 0.000000 1.000000 0.000000 0.000000 1.000000 0.000000 0.000000 1.000000 0.000000 0.000000 1.000000 0.000000 0.000000 1.000000 0.000000 0.000000 1.000000 0.000000 0.000000 1.000000 0.000000 0.000000 1.000000 0.000000 0.000000 1.000000 0.000000 0.000000 1.000000 0.000000 0.000000 1.000000 0.000000 0.000000 1.000000 0.000000 0.000000 1.000000 0.000000 0.000000 1.000000 0.000000 0.000000 1.000000 0.000000 0.000000 1.000000 0.000000 0.000000 1.000000 0.000000 0.000000 1.000000 0.000000 0.000000 1.000000 0.000000 0.000000 1.000000 0.000000 0.000000 1.000000 0.000000 0.000000 1.000000 0.000000 0.000000 1.000000 0.000000 0.000000 1.000000 0.000000 0.000000 1.000000 0.000000 0.000000 1.000000 0.000000 0.000000 1.000000 0.000000 0.000000 1.000000 0.000000 0.000000 1.000000 0.000000 0.000000 1.000000 0.000000 0.000000 1.000000 0.000000 0.000000 1.000000 0.000000 0.000000 1.000000 0.000000 0.000000 1.000000 0.000000 0.000000 1.000000 0.000000 0.000000 1.000000 0.000000 0.000000 1.000000 0.000000 0.000000 1.000000 0.000000 0.000000 1.000000 0.000000 0.000000 1.000000 0.000000 0.000000 1.000000 0.000000 0.000000 1.000000 0.000000 0.000000 1.000000 0.000000 0.000000 1.000000 0.000000 0.000000 1.000000 0.000000 0.000000 1.000000 0.000000 0.000000 1.000000 0.000000 0.000000 1.000000 0.000000 0.000000 1.000000 0.000000 0.000000 1.000000 0.000000 0.000000 1.000000 0.000000 0.000000 1.000000 0.000000 0.000000 1.000000 0.000000 0.000000 1.000000 0.000000 0.000000 1.000000 0.000000 0.000000 1.000000 0.000000 0.000000 1.000000 0.000000 0.000000 1.000000 0.000000 0.000000 1.000000 0.000000 0.000000 1.000000 0.000000 0.000000 1.000000 0.000000 0.000000 1.000000 0.000000 0.000000 1.000000 0.000000 0.000000 1.000000 0.000000 0.000000</float_array>
          <technique_common>
            <accessor source="#JAW_8-mesh-normals-array" count="1312" stride="3">
              <param name="X" type="float"/>
              <param name="Y" type="float"/>
              <param name="Z" type="float"/>
            </accessor>
          </technique_common>
        </source>
        <vertices id="JAW_8-mesh-vertices">
          <input semantic="POSITION" source="#JAW_8-mesh-positions"/>
        </vertices>
        <triangles material="ABS__White_" count="1282">
          <input semantic="VERTEX" source="#JAW_8-mesh-vertices" offset="0"/>
          <input semantic="NORMAL" source="#JAW_8-mesh-normals" offset="1"/>
          <p>0 0 1 1 3 2 3 2 1 1 2 3 33 4 4 5 32 6 32 6 4 5 5 7 32 6 5 7 31 8 31 8 5 7 6 9 31 8 6 9 30 10 30 10 6 9 7 11 30 10 7 11 29 12 29 12 7 11 8 13 29 12 8 13 28 14 28 14 8 13 9 15 28 14 9 15 27 16 27 16 9 15 10 17 27 16 10 17 26 18 26 18 10 17 11 19 26 18 11 19 25 20 25 20 11 19 12 21 25 20 12 21 24 22 24 22 12 21 13 23 24 22 13 23 23 24 23 24 13 23 14 25 23 24 14 25 22 26 22 26 14 25 15 27 22 26 15 27 21 28 21 28 15 27 16 29 21 28 16 29 20 30 20 30 16 29 17 31 20 30 17 31 19 32 19 32 17 31 18 33 19 32 18 33 3 2 3 2 18 33 0 0 34 34 4 5 35 35 35 35 4 5 33 4 2 3 1 1 63 36 63 36 1 1 36 37 63 36 36 37 62 38 62 38 36 37 37 39 62 38 37 39 61 40 61 40 37 39 38 41 61 40 38 41 60 42 60 42 38 41 39 43 60 42 39 43 59 44 59 44 39 43 40 45 59 44 40 45 58 46 58 46 40 45 41 47 58 46 41 47 57 48 57 48 41 47 42 49 57 48 42 49 56 50 56 50 42 49 43 51 56 50 43 51 55 52 55 52 43 51 44 53 55 52 44 53 54 54 54 54 44 53 45 55 54 54 45 55 53 56 53 56 45 55 46 57 53 56 46 57 52 58 52 58 46 57 47 59 52 58 47 59 51 60 51 60 47 59 48 61 51 60 48 61 50 62 50 62 48 61 49 63 50 62 49 63 35 35 35 35 49 63 34 34 63 64 62 65 2 66 2 66 62 65 61 67 2 66 61 67 60 68 59 69 22 70 60 68 60 68 22 70 3 71 60 68 3 71 2 66 22 70 59 69 23 72 23 72 59 69 58 73 23 72 58 73 57 74 57 74 56 75 23 72 23 72 56 75 28 76 23 72 28 76 24 77 24 77 28 76 27 78 24 77 27 78 25 79 25 79 27 78 26 80 56 75 55 81 28 76 28 76 55 81 54 82 28 76 54 82 29 83 29 83 54 82 53 84 29 83 53 84 33 85 33 85 53 84 35 86 35 86 53 84 52 87 35 86 52 87 51 88 51 88 50 89 35 86 32 90 31 91 33 85 33 85 31 91 30 92 33 85 30 92 29 83 22 70 21 93 3 71 3 71 21 93 20 94 3 71 20 94 19 95 65 96 111 97 64 98 64 98 111 97 88 99 64 98 88 99 87 100 87 100 88 99 89 101 87 100 89 101 86 102 86 102 89 101 90 103 86 102 90 103 85 104 85 104 90 103 91 105 85 104 91 105 84 106 84 106 91 105 92 107 84 106 92 107 83 108 83 108 92 107 93 109 83 108 93 109 82 110 82 110 93 109 94 111 82 110 94 111 81 112 81 112 94 111 95 113 81 112 95 113 80 114 80 114 95 113 96 115 80 114 96 115 79 116 79 116 96 115 97 117 79 116 97 117 78 118 78 118 97 117 98 119 78 118 98 119 77 120 77 120 98 119 99 121 77 120 99 121 76 122 76 122 99 121 100 123 76 122 100 123 75 124 75 124 100 123 101 125 75 124 101 125 74 126 74 126 101 125 102 127 74 126 102 127 73 128 73 128 102 127 103 129 73 128 103 129 72 130 72 130 103 129 104 131 72 130 104 131 71 132 71 132 104 131 105 133 71 132 105 133 70 134 70 134 105 133 106 135 70 134 106 135 69 136 69 136 106 135 107 137 69 136 107 137 68 138 68 138 107 137 108 139 68 138 108 139 67 140 67 140 108 139 109 141 67 140 109 141 66 142 66 142 109 141 110 143 66 142 110 143 65 96 65 96 110 143 111 97 87 144 77 145 64 146 64 146 77 145 76 147 64 146 76 147 65 148 65 148 76 147 75 149 65 148 75 149 66 150 66 150 75 149 74 151 66 150 74 151 67 152 67 152 74 151 73 153 67 152 73 153 68 154 68 154 73 153 72 155 68 154 72 155 69 156 69 156 72 155 71 157 69 156 71 157 70 158 77 145 87 144 78 159 78 159 87 144 86 160 78 159 86 160 79 161 79 161 86 160 85 162 79 161 85 162 80 163 80 163 85 162 84 164 80 163 84 164 81 165 81 165 84 164 83 166 81 165 83 166 82 167 113 168 159 169 112 170 112 170 159 169 136 171 112 170 136 171 135 172 135 172 136 171 137 173 135 172 137 173 134 174 134 174 137 173 138 175 134 174 138 175 133 176 133 176 138 175 139 177 133 176 139 177 132 178 132 178 139 177 140 179 132 178 140 179 131 180 131 180 140 179 141 181 131 180 141 181 130 182 130 182 141 181 142 183 130 182 142 183 129 184 129 184 142 183 143 185 129 184 143 185 128 186 128 186 143 185 144 187 128 186 144 187 127 188 127 188 144 187 145 189 127 188 145 189 126 190 126 190 145 189 146 191 126 190 146 191 125 192 125 192 146 191 147 193 125 192 147 193 124 194 124 194 147 193 148 195 124 194 148 195 123 196 123 196 148 195 149 197 123 196 149 197 122 198 122 198 149 197 150 199 122 198 150 199 121 200 121 200 150 199 151 201 121 200 151 201 120 202 120 202 151 201 152 203 120 202 152 203 119 204 119 204 152 203 153 205 119 204 153 205 118 206 118 206 153 205 154 207 118 206 154 207 117 208 117 208 154 207 155 209 117 208 155 209 116 210 116 210 155 209 156 211 116 210 156 211 115 212 115 212 156 211 157 213 115 212 157 213 114 214 114 214 157 213 158 215 114 214 158 215 113 168 113 168 158 215 159 169 135 216 125 217 112 218 112 218 125 217 124 219 112 218 124 219 113 220 113 220 124 219 123 221 113 220 123 221 114 222 114 222 123 221 122 223 114 222 122 223 115 224 115 224 122 223 121 225 115 224 121 225 116 226 116 226 121 225 120 227 116 226 120 227 117 228 117 228 120 227 119 229 117 228 119 229 118 230 125 217 135 216 126 231 126 231 135 216 134 232 126 231 134 232 127 233 127 233 134 232 133 234 127 233 133 234 128 235 128 235 133 234 132 236 128 235 132 236 129 237 129 237 132 236 131 238 129 237 131 238 130 239 160 240 161 241 163 242 163 242 161 241 162 243 162 243 161 241 193 244 193 244 161 241 164 245 193 244 164 245 192 246 192 246 164 245 165 247 192 246 165 247 191 248 191 248 165 247 166 249 191 248 166 249 190 250 190 250 166 249 167 251 190 250 167 251 189 252 189 252 167 251 168 253 189 252 168 253 188 254 188 254 168 253 169 255 188 254 169 255 187 256 187 256 169 255 170 257 187 256 170 257 186 258 186 258 170 257 171 259 186 258 171 259 185 260 185 260 171 259 172 261 185 260 172 261 184 262 184 262 172 261 173 263 184 262 173 263 183 264 183 264 173 263 174 265 183 264 174 265 182 266 182 266 174 265 175 267 182 266 175 267 181 268 181 268 175 267 176 269 181 268 176 269 180 270 180 270 176 269 177 271 180 270 177 271 179 272 179 272 177 271 178 273 178 273 194 274 179 272 179 272 194 274 195 275 195 275 194 274 223 276 223 276 194 274 196 277 223 276 196 277 222 278 222 278 196 277 197 279 222 278 197 279 221 280 221 280 197 279 198 281 221 280 198 281 220 282 220 282 198 281 199 283 220 282 199 283 219 284 219 284 199 283 200 285 219 284 200 285 218 286 218 286 200 285 201 287 218 286 201 287 217 288 217 288 201 287 202 289 217 288 202 289 216 290 216 290 202 289 203 291 216 290 203 291 215 292 215 292 203 291 204 293 215 292 204 293 214 294 214 294 204 293 205 295 214 294 205 295 213 296 213 296 205 295 206 297 213 296 206 297 212 298 212 298 206 297 207 299 212 298 207 299 211 300 211 300 207 299 208 301 211 300 208 301 210 302 210 302 208 301 209 303 210 302 209 303 163 242 163 242 209 303 160 240 223 304 222 305 195 306 195 306 222 305 221 307 195 306 221 307 220 308 219 309 183 310 220 308 220 308 183 310 179 311 220 308 179 311 195 306 183 310 219 309 184 312 184 312 219 309 218 313 184 312 218 313 217 314 217 314 216 315 184 312 184 312 216 315 189 316 184 312 189 316 185 317 185 317 189 316 188 318 185 317 188 318 186 319 186 319 188 318 187 320 216 315 215 321 189 316 189 316 215 321 214 322 189 316 214 322 190 323 190 323 214 322 213 324 190 323 213 324 162 325 162 325 213 324 163 326 163 326 213 324 212 327 163 326 212 327 211 328 211 328 210 329 163 326 193 330 192 331 162 325 162 325 192 331 191 332 162 325 191 332 190 323 183 310 182 333 179 311 179 311 182 333 181 334 179 311 181 334 180 335 225 336 271 337 224 338 224 338 271 337 248 339 224 338 248 339 247 340 247 340 248 339 249 341 247 340 249 341 246 342 246 342 249 341 250 343 246 342 250 343 245 344 245 344 250 343 251 345 245 344 251 345 244 346 244 346 251 345 252 347 244 346 252 347 243 348 243 348 252 347 253 349 243 348 253 349 242 350 242 350 253 349 254 351 242 350 254 351 241 352 241 352 254 351 255 353 241 352 255 353 240 354 240 354 255 353 256 355 240 354 256 355 239 356 239 356 256 355 257 357 239 356 257 357 238 358 238 358 257 357 258 359 238 358 258 359 237 360 237 360 258 359 259 361 237 360 259 361 236 362 236 362 259 361 260 363 236 362 260 363 235 364 235 364 260 363 261 365 235 364 261 365 234 366 234 366 261 365 262 367 234 366 262 367 233 368 233 368 262 367 263 369 233 368 263 369 232 370 232 370 263 369 264 371 232 370 264 371 231 372 231 372 264 371 265 373 231 372 265 373 230 374 230 374 265 373 266 375 230 374 266 375 229 376 229 376 266 375 267 377 229 376 267 377 228 378 228 378 267 377 268 379 228 378 268 379 227 380 227 380 268 379 269 381 227 380 269 381 226 382 226 382 269 381 270 383 226 382 270 383 225 336 225 336 270 383 271 337 247 384 237 385 224 386 224 386 237 385 236 387 224 386 236 387 225 388 225 388 236 387 235 389 225 388 235 389 226 390 226 390 235 389 234 391 226 390 234 391 227 392 227 392 234 391 233 393 227 392 233 393 228 394 228 394 233 393 232 395 228 394 232 395 229 396 229 396 232 395 231 397 229 396 231 397 230 398 237 385 247 384 238 399 238 399 247 384 246 400 238 399 246 400 239 401 239 401 246 400 245 402 239 401 245 402 240 403 240 403 245 402 244 404 240 403 244 404 241 405 241 405 244 404 243 406 241 405 243 406 242 407 273 408 319 409 272 410 272 410 319 409 296 411 272 410 296 411 295 412 295 412 296 411 297 413 295 412 297 413 294 414 294 414 297 413 298 415 294 414 298 415 293 416 293 416 298 415 299 417 293 416 299 417 292 418 292 418 299 417 300 419 292 418 300 419 291 420 291 420 300 419 301 421 291 420 301 421 290 422 290 422 301 421 302 423 290 422 302 423 289 424 289 424 302 423 303 425 289 424 303 425 288 426 288 426 303 425 304 427 288 426 304 427 287 428 287 428 304 427 305 429 287 428 305 429 286 430 286 430 305 429 306 431 286 430 306 431 285 432 285 432 306 431 307 433 285 432 307 433 284 434 284 434 307 433 308 435 284 434 308 435 283 436 283 436 308 435 309 437 283 436 309 437 282 438 282 438 309 437 310 439 282 438 310 439 281 440 281 440 310 439 311 441 281 440 311 441 280 442 280 442 311 441 312 443 280 442 312 443 279 444 279 444 312 443 313 445 279 444 313 445 278 446 278 446 313 445 314 447 278 446 314 447 277 448 277 448 314 447 315 449 277 448 315 449 276 450 276 450 315 449 316 451 276 450 316 451 275 452 275 452 316 451 317 453 275 452 317 453 274 454 274 454 317 453 318 455 274 454 318 455 273 408 273 408 318 455 319 409 295 456 285 457 272 458 272 458 285 457 284 459 272 458 284 459 273 460 273 460 284 459 283 461 273 460 283 461 274 462 274 462 283 461 282 463 274 462 282 463 275 464 275 464 282 463 281 465 275 464 281 465 276 466 276 466 281 465 280 467 276 466 280 467 277 468 277 468 280 467 279 469 277 468 279 469 278 470 285 457 295 456 286 471 286 471 295 456 294 472 286 471 294 472 287 473 287 473 294 472 293 474 287 473 293 474 288 475 288 475 293 474 292 476 288 475 292 476 289 477 289 477 292 476 291 478 289 477 291 478 290 479 320 480 321 481 322 482 324 483 325 484 323 485 323 485 325 484 326 486 322 487 327 488 334 489 334 489 327 488 328 490 334 489 328 490 329 491 329 491 330 492 334 489 334 489 330 492 331 493 334 489 331 493 333 494 333 494 331 493 323 495 333 494 323 495 326 496 326 496 332 497 333 494 334 489 320 498 322 487 335 499 333 500 336 501 336 501 333 500 332 502 325 503 324 504 335 505 335 505 324 504 337 506 335 505 337 506 340 507 340 507 337 506 338 508 340 507 338 508 339 509 339 509 327 510 340 507 340 507 327 510 322 511 340 507 322 511 321 512 335 505 336 513 325 503 340 514 321 515 344 516 344 516 321 515 343 517 343 517 321 515 320 518 343 517 320 518 342 519 342 519 320 518 341 520 341 520 320 518 334 521 325 522 336 523 348 524 348 524 336 523 347 525 347 525 336 523 332 526 347 525 332 526 346 527 346 527 332 526 345 528 345 528 332 526 326 529 350 530 399 531 349 532 349 532 399 531 397 533 349 532 397 533 372 534 372 534 397 533 443 535 372 534 443 535 371 536 371 536 443 535 441 537 371 536 441 537 370 538 370 538 441 537 439 539 370 538 439 539 369 540 369 540 439 539 437 541 369 540 437 541 368 542 368 542 437 541 435 543 368 542 435 543 367 544 367 544 435 543 433 545 367 544 433 545 366 546 366 546 433 545 431 547 366 546 431 547 365 548 365 548 431 547 429 549 365 548 429 549 364 550 364 550 429 549 427 551 364 550 427 551 363 552 363 552 427 551 425 553 363 552 425 553 362 554 362 554 425 553 423 555 362 554 423 555 361 556 361 556 423 555 421 557 361 556 421 557 360 558 360 558 421 557 419 559 360 558 419 559 359 560 359 560 419 559 417 561 359 560 417 561 358 562 358 562 417 561 415 563 358 562 415 563 357 564 357 564 415 563 413 565 357 564 413 565 356 566 356 566 413 565 411 567 356 566 411 567 355 568 355 568 411 567 409 569 355 568 409 569 354 570 354 570 409 569 407 571 354 570 407 571 353 572 353 572 407 571 405 573 353 572 405 573 352 574 352 574 405 573 403 575 352 574 403 575 351 576 351 576 403 575 401 577 351 576 401 577 350 530 350 530 401 577 399 531 374 578 444 579 373 580 373 580 444 579 398 581 373 580 398 581 396 582 396 582 398 581 400 583 396 582 400 583 395 584 395 584 400 583 402 585 395 584 402 585 394 586 394 586 402 585 404 587 394 586 404 587 393 588 393 588 404 587 406 589 393 588 406 589 392 590 392 590 406 589 408 591 392 590 408 591 391 592 391 592 408 591 410 593 391 592 410 593 390 594 390 594 410 593 412 595 390 594 412 595 389 596 389 596 412 595 414 597 389 596 414 597 388 598 388 598 414 597 416 599 388 598 416 599 387 600 387 600 416 599 418 601 387 600 418 601 386 602 386 602 418 601 420 603 386 602 420 603 385 604 385 604 420 603 422 605 385 604 422 605 384 606 384 606 422 605 424 607 384 606 424 607 383 608 383 608 424 607 426 609 383 608 426 609 382 610 382 610 426 609 428 611 382 610 428 611 381 612 381 612 428 611 430 613 381 612 430 613 380 614 380 614 430 613 432 615 380 614 432 615 379 616 379 616 432 615 434 617 379 616 434 617 378 618 378 618 434 617 436 619 378 618 436 619 377 620 377 620 436 619 438 621 377 620 438 621 376 622 376 622 438 621 440 623 376 622 440 623 375 624 375 624 440 623 442 625 375 624 442 625 374 578 374 578 442 625 444 579 397 533 398 581 443 535 443 535 398 581 444 579 443 535 444 579 441 537 441 537 444 579 442 625 441 537 442 625 439 539 439 539 442 625 440 623 439 539 440 623 437 541 437 541 440 623 438 621 437 541 438 621 435 543 435 543 438 621 436 619 435 543 436 619 433 545 433 545 436 619 434 617 433 545 434 617 431 547 431 547 434 617 432 615 431 547 432 615 429 549 429 549 432 615 430 613 429 549 430 613 427 551 427 551 430 613 428 611 427 551 428 611 425 553 425 553 428 611 426 609 425 553 426 609 423 555 423 555 426 609 424 607 423 555 424 607 421 557 421 557 424 607 422 605 421 557 422 605 419 559 419 559 422 605 420 603 419 559 420 603 417 561 417 561 420 603 418 601 417 561 418 601 415 563 415 563 418 601 416 599 415 563 416 599 413 565 413 565 416 599 414 597 413 565 414 597 411 567 411 567 414 597 412 595 411 567 412 595 409 569 409 569 412 595 410 593 409 569 410 593 407 571 407 571 410 593 408 591 407 571 408 591 405 573 405 573 408 591 406 589 405 573 406 589 403 575 403 575 406 589 404 587 403 575 404 587 401 577 401 577 404 587 402 585 401 577 402 585 399 531 399 531 402 585 400 583 399 531 400 583 397 533 397 533 400 583 398 581 458 626 445 627 457 628 457 628 445 627 446 629 457 628 446 629 456 630 456 630 446 629 447 631 456 630 447 631 455 632 455 632 447 631 448 633 455 632 448 633 454 634 454 634 448 633 449 635 454 634 449 635 453 636 453 636 449 635 450 637 453 636 450 637 452 638 452 638 450 637 451 639 0 640 469 641 1 642 1 642 469 641 369 643 1 642 369 643 368 644 469 641 0 640 468 645 468 645 0 640 18 646 468 645 18 646 17 647 17 647 16 648 468 645 468 645 16 648 15 649 468 645 15 649 14 650 468 645 14 650 98 651 98 651 14 650 13 652 98 651 13 652 99 653 99 653 13 652 12 654 99 653 12 654 11 655 99 653 11 655 100 656 100 656 11 655 10 657 100 656 10 657 492 658 492 658 10 657 9 659 492 658 9 659 8 660 8 660 7 661 492 658 492 658 7 661 6 662 492 658 6 662 5 663 5 663 4 664 492 658 492 658 4 664 491 665 491 665 4 664 34 666 491 665 34 666 485 667 485 667 34 666 484 668 484 668 34 666 483 669 483 669 34 666 49 670 483 669 49 670 482 671 482 671 49 670 481 672 481 672 49 670 480 673 480 673 49 670 48 674 480 673 48 674 47 675 47 675 46 676 480 673 480 673 46 676 45 677 480 673 45 677 44 678 44 678 43 679 480 673 480 673 43 679 42 680 480 673 42 680 479 681 479 681 42 680 41 682 479 681 41 682 40 683 40 683 39 684 479 681 479 681 39 684 361 685 479 681 361 685 360 686 39 684 38 687 361 685 361 685 38 687 37 688 361 685 37 688 362 689 362 689 37 688 36 690 362 689 36 690 363 691 363 691 36 690 364 692 364 692 36 690 1 642 364 692 1 642 365 693 365 693 1 642 366 694 366 694 1 642 367 695 367 695 1 642 368 644 111 696 457 697 88 698 88 698 457 697 456 699 88 698 456 699 463 700 463 700 456 699 455 701 463 700 455 701 462 702 462 702 455 701 454 703 462 702 454 703 461 704 461 704 454 703 453 705 461 704 453 705 452 706 457 697 111 696 458 707 458 707 111 696 110 708 458 707 110 708 109 709 109 709 108 710 458 707 458 707 108 710 107 711 458 707 107 711 106 712 458 707 106 712 347 713 347 713 106 712 105 714 347 713 105 714 104 715 104 715 103 716 347 713 347 713 103 716 102 717 347 713 102 717 101 718 101 718 100 656 347 713 347 713 100 656 492 658 347 713 492 658 536 719 536 719 492 658 493 720 536 719 493 720 343 721 343 721 493 720 494 722 343 721 494 722 158 723 158 723 494 722 159 724 159 724 494 722 495 725 159 724 495 725 496 726 98 651 97 727 468 645 468 645 97 727 96 728 468 645 96 728 95 729 95 729 94 730 468 645 468 645 94 730 93 731 468 645 93 731 467 732 467 732 93 731 92 733 467 732 92 733 91 734 467 732 91 734 466 735 466 735 91 734 90 736 466 735 90 736 465 737 465 737 90 736 89 738 465 737 89 738 88 698 159 724 497 739 136 740 136 740 497 739 498 741 136 740 498 741 499 742 343 721 158 723 514 743 514 743 158 723 157 744 514 743 157 744 156 745 156 745 155 746 514 743 514 743 155 746 154 747 514 743 154 747 153 748 153 748 152 749 514 743 514 743 152 749 151 750 514 743 151 750 150 751 150 751 149 752 514 743 514 743 149 752 513 753 513 753 149 752 148 754 513 753 148 754 507 755 507 755 148 754 506 756 506 756 148 754 505 757 505 757 148 754 147 758 505 757 147 758 504 759 504 759 147 758 146 760 504 759 146 760 145 761 504 759 145 761 503 762 503 762 145 761 144 763 503 762 144 763 143 764 503 762 143 764 502 765 502 765 143 764 142 766 502 765 142 766 141 767 502 765 141 767 501 768 501 768 141 767 140 769 501 768 140 769 139 770 501 768 139 770 500 771 500 771 139 770 138 772 500 771 138 772 137 773 500 771 137 773 499 742 499 742 137 773 136 740 372 774 473 775 349 776 349 776 473 775 474 777 349 776 474 777 475 778 473 775 372 774 469 641 469 641 372 774 371 779 469 641 371 779 370 780 370 780 369 643 469 641 360 686 359 781 479 681 479 681 359 781 358 782 479 681 358 782 478 783 478 783 358 782 357 784 478 783 357 784 356 785 356 785 355 786 478 783 478 783 355 786 477 787 477 787 355 786 354 788 477 787 354 788 353 789 477 787 353 789 476 790 476 790 353 789 352 791 476 790 352 791 351 792 476 790 351 792 475 778 475 778 351 792 350 793 475 778 350 793 349 776 452 706 459 794 461 704 461 704 459 794 460 795 463 700 464 796 88 698 88 698 464 796 465 737 470 797 471 798 469 641 469 641 471 798 472 799 469 641 472 799 473 775 485 667 486 800 491 665 491 665 486 800 487 801 491 665 487 801 488 802 488 802 489 803 491 665 491 665 489 803 490 804 496 726 497 739 159 724 507 755 508 805 513 753 513 753 508 805 509 806 513 753 509 806 510 807 511 808 512 809 510 807 510 807 512 809 513 753 514 743 515 810 343 721 343 721 515 810 516 811 343 721 516 811 517 812 517 812 518 813 343 721 343 721 518 813 519 814 343 721 519 814 520 815 343 721 520 815 344 816 344 816 520 815 521 817 344 816 521 817 522 818 522 818 523 819 344 816 344 816 523 819 524 820 344 816 524 820 526 821 526 821 524 820 525 822 526 821 527 823 344 816 344 816 527 823 528 824 344 816 528 824 529 825 529 825 530 826 344 816 344 816 530 826 531 827 344 816 531 827 532 828 532 828 533 829 344 816 344 816 533 829 348 830 344 816 348 830 536 719 536 719 348 830 347 713 533 829 534 831 348 830 348 830 534 831 535 832 451 639 537 833 452 638 452 638 537 833 459 834 546 835 468 836 545 837 545 837 468 836 467 838 545 837 467 838 544 839 544 839 467 838 466 840 544 839 466 840 543 841 543 841 466 840 465 842 543 841 465 842 542 843 542 843 465 842 464 844 542 843 464 844 541 845 541 845 464 844 463 846 541 845 463 846 540 847 540 847 463 846 462 848 540 847 462 848 539 849 539 849 462 848 461 850 539 849 461 850 538 851 538 851 461 850 460 852 538 851 460 852 537 833 537 833 460 852 459 834 331 853 556 854 323 855 323 855 556 854 345 856 323 855 345 856 326 857 556 854 331 853 555 858 555 858 331 853 330 859 555 858 330 859 554 860 554 860 330 859 329 861 554 860 329 861 553 862 553 862 329 861 328 863 553 862 328 863 327 864 339 865 532 866 327 864 327 864 532 866 531 867 327 864 531 867 552 868 552 868 531 867 551 869 551 869 531 867 530 870 551 869 530 870 550 871 550 871 530 870 529 872 550 871 529 872 549 873 549 873 529 872 528 874 549 873 528 874 548 875 548 875 528 874 527 876 548 875 527 876 547 877 547 877 527 876 526 878 532 866 339 865 533 879 533 879 339 865 338 880 533 879 338 880 534 881 534 881 338 880 337 882 534 881 337 882 535 883 535 883 337 882 324 884 535 883 324 884 348 885 348 885 324 884 325 886 325 886 324 884 323 855 325 886 323 855 326 857 552 868 553 862 327 864 526 878 525 887 547 877 547 877 525 887 557 888 469 889 558 890 470 891 470 891 558 890 559 892 470 891 559 892 471 893 471 893 559 892 560 894 471 893 560 894 472 895 472 895 560 894 561 896 472 895 561 896 473 897 473 897 561 896 562 898 473 897 562 898 474 899 474 899 562 898 563 900 474 899 563 900 475 901 475 901 563 900 564 902 475 901 564 902 476 903 476 903 564 902 565 904 476 903 565 904 477 905 477 905 565 904 566 906 477 905 566 906 478 907 478 907 566 906 567 908 478 907 567 908 479 909 479 909 567 908 568 910 568 910 569 911 479 909 479 909 569 911 480 912 480 912 569 911 481 913 481 913 569 911 570 914 481 913 570 914 482 915 482 915 570 914 571 916 482 915 571 916 483 917 483 917 571 916 572 918 483 917 572 918 484 919 484 919 572 918 573 920 484 919 573 920 485 921 485 921 573 920 574 922 485 921 574 922 486 923 486 923 574 922 575 924 486 923 575 924 487 925 487 925 575 924 576 926 487 925 576 926 488 927 488 927 576 926 577 928 488 927 577 928 489 929 489 929 577 928 578 930 489 929 578 930 490 931 490 931 578 930 579 932 490 931 579 932 491 933 491 933 579 932 580 934 516 935 515 936 582 937 582 937 515 936 581 938 584 939 516 940 583 941 583 941 516 940 585 942 585 942 516 940 582 943 586 944 583 945 515 946 515 946 583 945 585 947 515 946 585 947 581 948 581 949 585 950 582 951 515 952 514 953 586 954 586 954 514 953 587 955 584 956 588 957 516 958 516 958 588 957 517 959 522 960 521 961 590 962 590 962 521 961 589 963 592 964 522 965 591 966 591 966 522 965 593 967 593 967 522 965 590 968 594 969 591 970 521 971 521 971 591 970 593 972 521 971 593 972 589 973 589 974 593 975 590 976 521 977 520 978 594 979 594 979 520 978 595 980 592 981 596 982 522 983 522 983 596 982 523 984 518 985 517 986 598 987 598 987 517 986 597 988 600 989 518 990 599 991 599 991 518 990 601 992 601 992 518 990 598 993 588 994 599 995 517 996 517 996 599 995 601 997 517 996 601 997 597 998 597 999 601 1000 598 1001 600 1002 602 1003 518 1004 518 1004 602 1003 519 1005 520 1006 519 1007 604 1008 604 1008 519 1007 603 1009 595 1010 520 1011 605 1012 605 1012 520 1011 606 1013 606 1013 520 1011 604 1014 602 1015 605 1016 519 1017 519 1017 605 1016 606 1018 519 1017 606 1018 603 1019 603 1020 606 1021 604 1022 524 1023 523 1024 608 1025 608 1025 523 1024 607 1026 596 1027 609 1028 523 1029 523 1029 609 1028 610 1030 523 1029 610 1030 607 1031 611 1032 524 1033 609 1034 609 1034 524 1033 610 1035 610 1035 524 1033 608 1036 610 1037 608 1038 607 1039 611 1040 557 1041 524 1042 524 1042 557 1041 525 1043 340 1044 344 1045 335 1046 335 1046 344 1045 536 1047 335 1046 536 1047 333 1048 333 1048 536 1047 612 1049 333 1048 612 1049 341 1050 341 1050 334 1051 333 1048 536 1052 343 1053 612 1054 612 1054 343 1053 342 1055 613 1056 614 1057 492 1058 492 1058 614 1057 493 1059 614 1060 615 1061 493 1062 493 1062 615 1061 494 1063 494 1064 615 1065 495 1066 495 1066 615 1065 616 1067 495 1066 616 1067 496 1068 496 1068 616 1067 617 1069 496 1068 617 1069 497 1070 497 1070 617 1069 618 1071 497 1070 618 1071 498 1072 498 1072 618 1071 619 1073 498 1072 619 1073 499 1074 499 1074 619 1073 620 1075 499 1074 620 1075 500 1076 500 1076 620 1075 621 1077 500 1076 621 1077 501 1078 501 1078 621 1077 622 1079 501 1078 622 1079 502 1080 502 1080 622 1079 623 1081 502 1080 623 1081 503 1082 503 1082 623 1081 624 1083 503 1082 624 1083 504 1084 504 1084 624 1083 625 1085 504 1084 625 1085 505 1086 505 1086 625 1085 626 1087 505 1086 626 1087 506 1088 506 1088 626 1087 627 1089 506 1088 627 1089 507 1090 507 1090 627 1089 628 1091 507 1090 628 1091 508 1092 508 1092 628 1091 629 1093 508 1092 629 1093 509 1094 509 1094 629 1093 630 1095 509 1094 630 1095 510 1096 510 1096 630 1095 631 1097 510 1096 631 1097 511 1098 511 1098 631 1097 632 1099 511 1098 632 1099 512 1100 512 1100 632 1099 633 1101 512 1100 633 1101 513 1102 513 1102 633 1101 634 1103 634 1104 587 1105 513 1106 513 1106 587 1105 514 1107 458 626 347 1108 445 627 445 627 347 1108 346 1109 469 889 468 1110 558 890 558 890 468 1110 546 1111 580 934 613 1112 491 933 491 933 613 1112 492 1113 160 1114 558 1115 161 1116 161 1116 558 1115 546 1117 161 1116 546 1117 164 1118 164 1118 546 1117 165 1119 165 1119 546 1117 166 1120 166 1120 546 1117 167 1121 167 1121 546 1117 168 1122 168 1122 546 1117 262 1123 168 1122 262 1123 169 1124 169 1124 262 1123 261 1125 169 1124 261 1125 170 1126 170 1126 261 1125 171 1127 171 1127 261 1125 260 1128 171 1127 260 1128 172 1129 172 1129 260 1128 613 1130 172 1129 613 1130 173 1131 173 1131 613 1130 174 1132 174 1132 613 1130 175 1133 175 1133 613 1130 176 1134 176 1134 613 1130 177 1135 177 1135 613 1130 178 1136 178 1136 613 1130 580 1137 178 1136 580 1137 194 1138 194 1138 580 1137 574 1139 194 1138 574 1139 573 1140 209 1141 382 1142 160 1114 160 1114 382 1142 381 1143 160 1114 381 1143 380 1144 208 1145 384 1146 209 1141 209 1141 384 1146 383 1147 209 1141 383 1147 382 1142 384 1146 208 1145 385 1148 385 1148 208 1145 207 1149 385 1148 207 1149 206 1150 385 1148 206 1150 568 1151 568 1151 206 1150 205 1152 568 1151 205 1152 204 1153 204 1153 203 1154 568 1151 568 1151 203 1154 569 1155 569 1155 203 1154 202 1156 569 1155 202 1156 201 1157 201 1157 200 1158 569 1155 569 1155 200 1158 199 1159 569 1155 199 1159 198 1160 198 1160 197 1161 569 1155 569 1155 197 1161 196 1162 569 1155 196 1162 570 1163 570 1163 196 1162 571 1164 571 1164 196 1162 572 1165 572 1165 196 1162 194 1138 572 1165 194 1138 573 1140 271 1166 543 1167 248 1168 248 1168 543 1167 542 1169 248 1168 542 1169 541 1170 271 1166 270 1171 543 1167 543 1167 270 1171 544 1172 544 1172 270 1171 269 1173 544 1172 269 1173 545 1174 545 1174 269 1173 268 1175 545 1174 268 1175 267 1176 545 1174 267 1176 546 1117 546 1117 267 1176 266 1177 546 1117 266 1177 265 1178 265 1178 264 1179 546 1117 546 1117 264 1179 263 1180 546 1117 263 1180 262 1123 613 1130 260 1128 346 1181 346 1181 260 1128 259 1182 346 1181 259 1182 258 1183 258 1183 257 1184 346 1181 346 1181 257 1184 256 1185 346 1181 256 1185 255 1186 255 1186 254 1187 346 1181 346 1181 254 1187 445 1188 445 1188 254 1187 253 1189 445 1188 253 1189 252 1190 252 1190 251 1191 445 1188 445 1188 251 1191 250 1192 445 1188 250 1192 249 1193 445 1188 249 1193 446 1194 446 1194 249 1193 248 1168 446 1194 248 1168 447 1195 447 1195 248 1168 541 1170 447 1195 541 1170 448 1196 448 1196 541 1170 540 1197 448 1196 540 1197 449 1198 449 1198 540 1197 539 1199 449 1198 539 1199 450 1200 450 1200 539 1199 451 1201 451 1201 539 1199 537 1202 537 1202 539 1199 538 1203 319 1204 620 1205 296 1206 296 1206 620 1205 619 1207 296 1206 619 1207 618 1208 620 1205 319 1204 621 1209 621 1209 319 1204 318 1210 621 1209 318 1210 317 1211 621 1209 317 1211 622 1212 622 1212 317 1211 316 1213 622 1212 316 1213 315 1214 622 1212 315 1214 623 1215 623 1215 315 1214 314 1216 623 1215 314 1216 313 1217 623 1215 313 1217 624 1218 624 1218 313 1217 312 1219 624 1218 312 1219 311 1220 624 1218 311 1220 625 1221 625 1221 311 1220 310 1222 625 1221 310 1222 309 1223 625 1221 309 1223 626 1224 626 1224 309 1223 308 1225 626 1224 308 1225 627 1226 627 1226 308 1225 628 1227 628 1227 308 1225 634 1228 628 1227 634 1228 629 1229 629 1229 634 1228 630 1230 630 1230 634 1228 631 1231 631 1231 634 1228 633 1232 631 1231 633 1232 632 1233 308 1225 307 1234 634 1228 634 1228 307 1234 587 1235 587 1235 307 1234 306 1236 587 1235 306 1236 305 1237 305 1237 304 1238 587 1235 587 1235 304 1238 303 1239 587 1235 303 1239 302 1240 302 1240 301 1241 587 1235 587 1235 301 1241 300 1242 587 1235 300 1242 299 1243 299 1243 298 1244 587 1235 587 1235 298 1244 342 1245 587 1235 342 1245 586 1246 586 1246 342 1245 584 1247 586 1246 584 1247 583 1248 342 1245 298 1244 615 1249 615 1249 298 1244 297 1250 615 1249 297 1250 616 1251 616 1251 297 1250 617 1252 617 1252 297 1250 618 1208 618 1208 297 1250 296 1206 396 1253 564 1254 373 1255 373 1255 564 1254 563 1256 373 1255 563 1256 562 1257 396 1253 395 1258 564 1254 564 1254 395 1258 565 1259 565 1259 395 1258 394 1260 565 1259 394 1260 393 1261 565 1259 393 1261 566 1262 566 1262 393 1261 392 1263 566 1262 392 1263 391 1264 566 1262 391 1264 567 1265 567 1265 391 1264 390 1266 567 1265 390 1266 389 1267 389 1267 388 1268 567 1265 567 1265 388 1268 568 1151 568 1151 388 1268 387 1269 568 1151 387 1269 386 1270 386 1270 385 1148 568 1151 380 1144 379 1271 160 1114 160 1114 379 1271 378 1272 160 1114 378 1272 377 1273 160 1114 377 1273 558 1115 558 1115 377 1273 376 1274 558 1115 376 1274 375 1275 375 1275 374 1276 558 1115 558 1115 374 1276 562 1257 558 1115 562 1257 561 1277 374 1276 373 1255 562 1257 613 1130 346 1181 612 1278 612 1278 346 1181 345 1279 612 1278 345 1279 341 1280 341 1280 345 1279 554 1281 341 1280 554 1281 553 1282 556 1283 555 1284 345 1279 345 1279 555 1284 554 1281 553 1282 552 1285 341 1280 341 1280 552 1285 551 1286 341 1280 551 1286 550 1287 550 1287 549 1288 341 1280 341 1280 549 1288 548 1289 341 1280 548 1289 547 1290 557 1291 611 1292 547 1290 547 1290 611 1292 341 1280 609 1293 596 1294 611 1292 611 1292 596 1294 341 1280 596 1294 592 1295 341 1280 341 1280 592 1295 594 1296 341 1280 594 1296 595 1297 592 1295 591 1298 594 1296 605 1299 602 1300 595 1297 595 1297 602 1300 342 1245 595 1297 342 1245 341 1280 602 1300 600 1301 342 1245 342 1245 600 1301 588 1302 342 1245 588 1302 584 1247 600 1301 599 1303 588 1302 615 1249 614 1304 342 1245 342 1245 614 1304 612 1278 612 1278 614 1304 613 1130 579 1305 578 1306 580 1137 580 1137 578 1306 577 1307 580 1137 577 1307 576 1308 576 1308 575 1309 580 1137 580 1137 575 1309 574 1139 561 1277 560 1310 558 1115 558 1115 560 1310 559 1311</p>
        </triangles>
      </mesh>
    </geometry>
  </library_geometries>
  <library_visual_scenes>
    <visual_scene id="Scene" name="Scene">
      <node id="JAW_8-node" name="JAW_8" type="NODE">
        <instance_geometry url="#JAW_8-mesh">
          <bind_material>
            <technique_common>
              <instance_material symbol="ABS__White_" target="#ABS__White_"/>
            </technique_common>
          </bind_material>
        </instance_geometry>
      </node>
    </visual_scene>
  </library_visual_scenes>
  <scene>
    <instance_visual_scene url="#Scene"/>
  </scene>
</COLLADA>
